<svg width="40" height="40" viewBox="0 0 40 40" fill="none" xmlns="http://www.w3.org/2000/svg">
<path d="M0 12C0 5.37258 5.37258 0 12 0H28C34.6274 0 40 5.37258 40 12V28C40 34.6274 34.6274 40 28 40H12C5.37258 40 0 34.6274 0 28V12Z" fill="#E8EDFF"/>
<g clip-path="url(#clip0_9662_11694)">
<path d="M27.95 22.5H24.1667C23.7246 22.5 23.3007 22.6756 22.9882 22.9882C22.6756 23.3007 22.5 23.7246 22.5 24.1667V27.95" stroke="#6744FF" stroke-width="1.66667" stroke-linecap="round" stroke-linejoin="round"/>
<path d="M15.8359 12.7833V14.1667C15.8359 14.8297 16.0993 15.4656 16.5682 15.9344C17.037 16.4033 17.6729 16.6667 18.3359 16.6667C18.778 16.6667 19.2019 16.8423 19.5144 17.1548C19.827 17.4674 20.0026 17.8913 20.0026 18.3333C20.0026 19.25 20.7526 20 21.6693 20C22.1113 20 22.5352 19.8244 22.8478 19.5118C23.1603 19.1993 23.3359 18.7754 23.3359 18.3333C23.3359 17.4167 24.0859 16.6667 25.0026 16.6667H27.6443" stroke="#6744FF" stroke-width="1.66667" stroke-linecap="round" stroke-linejoin="round"/>
<path d="M19.1693 28.2916V25C19.1693 24.5579 18.9937 24.134 18.6811 23.8214C18.3686 23.5089 17.9446 23.3333 17.5026 23.3333C17.0606 23.3333 16.6367 23.1577 16.3241 22.8451C16.0115 22.5326 15.8359 22.1087 15.8359 21.6666V20.8333C15.8359 20.3913 15.6603 19.9673 15.3478 19.6548C15.0352 19.3422 14.6113 19.1666 14.1693 19.1666H11.7109" stroke="#6744FF" stroke-width="1.66667" stroke-linecap="round" stroke-linejoin="round"/>
<path d="M19.9974 28.3333C24.5998 28.3333 28.3307 24.6023 28.3307 20C28.3307 15.3976 24.5998 11.6666 19.9974 11.6666C15.395 11.6666 11.6641 15.3976 11.6641 20C11.6641 24.6023 15.395 28.3333 19.9974 28.3333Z" stroke="#6744FF" stroke-width="1.66667" stroke-linecap="round" stroke-linejoin="round"/>
</g>
<defs>
<clipPath id="clip0_9662_11694">
<rect width="20" height="20" fill="white" transform="translate(10 10)"/>
</clipPath>
</defs>
</svg>
