<svg width="44" height="44" viewBox="0 0 44 44" fill="none" xmlns="http://www.w3.org/2000/svg">
<path d="M0 16C0 7.16344 7.16344 0 16 0H28C36.8366 0 44 7.16344 44 16V28C44 36.8366 36.8366 44 28 44H16C7.16344 44 0 36.8366 0 28V16Z" fill="#FFEDD5"/>
<path d="M20.3333 21.1667C22.1743 21.1667 23.6667 19.6743 23.6667 17.8333C23.6667 15.9924 22.1743 14.5 20.3333 14.5C18.4924 14.5 17 15.9924 17 17.8333C17 19.6743 18.4924 21.1667 20.3333 21.1667Z" fill="#B91C1C" stroke="#B91C1C" stroke-width="1.66667" stroke-linecap="round" stroke-linejoin="round"/>
<path d="M20.5833 24.5H17.8333C16.9493 24.5 16.1014 24.8512 15.4763 25.4763C14.8512 26.1014 14.5 26.9493 14.5 27.8333V29.5" stroke="#B91C1C" stroke-width="1.66667" stroke-linecap="round" stroke-linejoin="round"/>
<path d="M26.1641 28.6666C27.5448 28.6666 28.6641 27.5473 28.6641 26.1666C28.6641 24.7859 27.5448 23.6666 26.1641 23.6666C24.7834 23.6666 23.6641 24.7859 23.6641 26.1666C23.6641 27.5473 24.7834 28.6666 26.1641 28.6666Z" fill="#B91C1C" stroke="#B91C1C" stroke-width="1.66667" stroke-linecap="round" stroke-linejoin="round"/>
<path d="M29.4974 29.5L27.9141 27.9166" stroke="#B91C1C" stroke-width="1.66667" stroke-linecap="round" stroke-linejoin="round"/>
</svg>
