<svg width="32" height="32" viewBox="0 0 32 32" fill="none" xmlns="http://www.w3.org/2000/svg">
<path d="M0 8C0 3.58172 3.58172 0 8 0H24C28.4183 0 32 3.58172 32 8V24C32 28.4183 28.4183 32 24 32H8C3.58172 32 0 28.4183 0 24V8Z" fill="#6744FF" fill-opacity="0.1"/>
<path d="M16 19.3333C15.5417 19.3333 15.1494 19.1703 14.8233 18.8442C14.4972 18.5181 14.3339 18.1256 14.3333 17.6667C14.3328 17.2078 14.4961 16.8156 14.8233 16.49C15.1506 16.1644 15.5428 16.0011 16 16C16.4572 15.9989 16.8497 16.1622 17.1775 16.49C17.5053 16.8178 17.6683 17.21 17.6667 17.6667C17.665 18.1233 17.5019 18.5158 17.1775 18.8442C16.8531 19.1725 16.4606 19.3356 16 19.3333ZM12.1458 11.8333H19.8542L21.5208 8.5H10.4792L12.1458 11.8333ZM13 23.5H19C20.25 23.5 21.3125 23.0661 22.1875 22.1983C23.0625 21.3306 23.5 20.2644 23.5 19C23.5 18.4722 23.4097 17.9583 23.2292 17.4583C23.0486 16.9583 22.7917 16.5069 22.4583 16.1042L20.2917 13.5H11.7083L9.54167 16.1042C9.20833 16.5069 8.95139 16.9583 8.77083 17.4583C8.59028 17.9583 8.5 18.4722 8.5 19C8.5 20.2639 8.93417 21.33 9.8025 22.1983C10.6708 23.0667 11.7367 23.5006 13 23.5Z" fill="#6744FF"/>
</svg>
