<svg width="259" height="312" viewBox="0 0 259 312" fill="none" xmlns="http://www.w3.org/2000/svg">
<g clip-path="url(#clip0_1891_14987)">
<path d="M139.186 285.691H110.619C69.4879 285.691 35.7969 252.014 35.7969 210.901V193.571C35.7969 152.388 69.4879 118.711 110.689 118.711H139.256C180.458 118.711 214.149 152.388 214.149 193.571V210.901C214.079 252.014 180.388 285.691 139.186 285.691Z" fill="#4D4DB5"/>
<path d="M167.262 112.607C168.596 112.607 168.596 110.502 167.262 110.502C165.928 110.502 165.928 112.607 167.262 112.607Z" fill="#9685FF"/>
<path d="M123.885 249.909C89.7727 250.26 59.8017 240.788 38.5342 231.387C47.3781 263.45 76.928 287.164 111.672 287.164H136.098C170.491 287.164 199.76 263.941 208.955 232.369C188.319 240.788 158.629 249.558 123.885 249.909Z" fill="#074274"/>
<path d="M95.2476 167.54C121.007 173.925 160.033 175.539 199.76 146.633L199.83 146.563C186.284 125.655 162.7 111.693 136.098 111.693H111.672C85.1402 111.693 61.6267 125.515 48.0801 146.282C48.1503 146.282 48.1503 146.352 48.2205 146.352C48.3608 146.563 67.2419 160.595 95.2476 167.54Z" fill="#4D4DB5"/>
<path d="M46.2551 149.299C39.6573 160.524 35.7969 173.644 35.7969 187.536V211.25C35.7969 218.196 36.7795 224.931 38.5343 231.315C47.0272 235.104 56.924 238.893 67.9438 241.98V161.647C55.3096 155.894 47.4484 150.211 46.2551 149.299Z" fill="#4D4DB5"/>
<path d="M144.099 173.714C138.274 174.556 132.378 174.977 126.482 174.977C115.883 174.977 105.074 173.644 94.2647 170.908C85.7015 168.803 78.0508 165.997 71.453 163.19V242.611C71.453 242.752 71.453 242.892 71.3828 243.032C87.0351 247.242 104.793 250.118 123.885 249.908C144.52 249.697 163.331 246.54 179.545 242.26V162.77C168.104 168.242 156.242 171.89 144.099 173.714Z" fill="#4D4DB5"/>
<path d="M201.725 149.58C195.689 154 189.442 157.789 183.055 161.086V241.279C192.741 238.543 201.444 235.456 208.955 232.368C210.92 225.703 211.973 218.617 211.973 211.321V187.607C211.973 173.715 208.253 160.735 201.725 149.58Z" fill="#4D4DB5"/>
<path d="M199.83 146.562C200.462 147.545 201.093 148.527 201.655 149.579C201.725 149.579 201.725 149.509 201.795 149.509" fill="#5DADE8"/>
<path d="M46.1152 149.228C46.1152 149.228 46.1854 149.298 46.2556 149.369C46.8171 148.386 47.4488 147.334 48.0805 146.422" fill="#5DADE8"/>
<path d="M201.725 149.579C201.164 148.597 200.532 147.544 199.9 146.562C199.9 146.562 199.83 146.562 199.83 146.632C160.103 175.538 121.077 173.924 95.3176 167.54C67.3119 160.594 48.5011 146.562 48.2905 146.422C48.2203 146.422 48.2203 146.352 48.1501 146.352C47.5184 147.334 46.8867 148.316 46.3252 149.298C47.5184 150.21 55.3797 155.893 68.0138 161.646V242.049C69.1369 242.4 70.3301 242.681 71.4531 243.032C71.4531 242.891 71.5233 242.751 71.5233 242.611V163.19C78.1211 165.996 85.7718 168.732 94.335 170.907C105.144 173.644 115.953 174.977 126.552 174.977C132.518 174.977 138.344 174.556 144.17 173.714C156.312 171.96 168.175 168.312 179.615 162.839V242.26C180.809 241.979 182.002 241.628 183.125 241.278V161.085C189.372 157.788 195.619 153.999 201.725 149.579Z" fill="#074274"/>
<path d="M13.336 136.251C20.7013 136.251 26.6721 130.282 26.6721 122.92C26.6721 115.558 20.7013 109.59 13.336 109.59C5.97075 109.59 0 115.558 0 122.92C0 130.282 5.97075 136.251 13.336 136.251Z" fill="#4D4DB5"/>
<path d="M240.049 138.355C250.515 138.355 259 129.874 259 119.412C259 108.95 250.515 100.469 240.049 100.469C229.582 100.469 221.098 108.95 221.098 119.412C221.098 129.874 229.582 138.355 240.049 138.355Z" fill="#4D4DB5"/>
<path d="M60.4338 40.6219C60.4338 40.6219 52.1514 23.2925 47.4487 29.7471C42.7459 36.2018 60.4338 40.6219 60.4338 40.6219Z" fill="#BAD5E5"/>
<path d="M173.158 24.4859C173.158 24.4859 191.057 17.4699 184.95 12.3483C178.844 7.22664 173.158 24.4859 173.158 24.4859Z" fill="#BAD5E5"/>
<path d="M77.5594 18.4516C77.5594 18.4516 72.2952 -4.35028 64.9955 0.701211C57.6958 5.75271 77.5594 18.4516 77.5594 18.4516Z" fill="#BAD5E5"/>
<path d="M84.2275 292.004C84.2275 292.004 95.5983 300.002 123.955 300.002C152.312 300.002 163.542 292.004 163.542 292.004" stroke="#BAD5E5" stroke-width="4" stroke-miterlimit="10" stroke-linecap="round"/>
<path d="M84.2275 303.02C84.2275 303.02 95.5983 311.018 123.955 311.018C152.312 311.018 163.542 303.02 163.542 303.02" stroke="#BAD5E5" stroke-width="3" stroke-miterlimit="10" stroke-linecap="round"/>
<path d="M190.215 85.315C190.215 128.814 159.542 139.829 123.324 139.829C87.1059 139.829 57.7666 128.183 57.7666 85.315C57.7666 53.3924 87.1059 28.2051 123.324 28.2051C159.612 28.2051 190.215 53.3924 190.215 85.315Z" fill="#9685FF"/>
<path d="M110.619 54.0234H137.501C150.065 54.0234 160.243 64.1966 160.243 76.7552V85.034C160.243 97.5926 150.065 107.766 137.501 107.766H110.619C98.0548 107.766 87.8773 97.5926 87.8773 85.034V76.7552C87.8071 64.2667 98.0548 54.0234 110.619 54.0234Z" fill="#074274"/>
<path d="M190.776 71.6328C193.373 71.6328 195.408 73.7376 195.408 76.2633V101.1C195.408 103.696 193.303 105.73 190.776 105.73C188.179 105.73 186.143 103.626 186.143 101.1V76.2633C186.073 73.7376 188.179 71.6328 190.776 71.6328Z" fill="#074274"/>
<path d="M58.3278 71.6328C60.9249 71.6328 62.9604 73.7376 62.9604 76.2633V101.1C62.9604 103.696 60.8547 105.73 58.3278 105.73C55.7308 105.73 53.6953 103.626 53.6953 101.1V76.2633C53.6953 73.7376 55.801 71.6328 58.3278 71.6328Z" fill="#074274"/>
<path d="M108.373 73.3875C104.583 72.4754 98.1253 83.9115 98.757 88.0509C99.3887 92.1903 109.005 90.2258 110.9 85.5251C112.795 80.8244 112.093 74.2996 108.373 73.3875Z" fill="#00D7F8"/>
<path d="M139.467 73.3875C143.257 72.4754 149.715 83.9115 149.083 88.0509C148.451 92.1903 138.835 90.2258 136.94 85.5251C135.045 80.8244 135.677 74.2996 139.467 73.3875Z" fill="#00D7F8"/>
</g>
<defs>
<clipPath id="clip0_1891_14987">
<rect width="259" height="312" fill="white"/>
</clipPath>
</defs>
</svg>
