<svg width="56" height="56" viewBox="0 0 56 56" fill="none" xmlns="http://www.w3.org/2000/svg">
<g clip-path="url(#clip0_1019_26267)">
<rect width="56" height="56" rx="28" fill="#F3F2FF"/>
<path fill-rule="evenodd" clip-rule="evenodd" d="M17.1252 24.5C17.1252 18.4939 21.9941 13.625 28.0002 13.625C34.0063 13.625 38.8752 18.4939 38.8752 24.5C38.8752 30.5061 34.0063 35.375 28.0002 35.375C21.9941 35.375 17.1252 30.5061 17.1252 24.5Z" fill="#4518BF"/>
<path fill-rule="evenodd" clip-rule="evenodd" d="M8.0657 58.5879C8.25261 47.7376 17.1058 39 28.0002 39C38.8948 39 47.7482 47.738 47.9347 58.5887C47.9471 59.3083 47.5325 59.967 46.8784 60.2672C41.1293 62.9052 34.7343 64.375 28.001 64.375C21.267 64.375 14.8715 62.9049 9.12197 60.2664C8.46785 59.9662 8.0533 59.3075 8.0657 58.5879Z" fill="#4518BF"/>
</g>
<defs>
<clipPath id="clip0_1019_26267">
<rect width="56" height="56" rx="28" fill="white"/>
</clipPath>
</defs>
</svg>
