<svg width="11" height="13" viewBox="0 0 11 13" fill="none" xmlns="http://www.w3.org/2000/svg">
<path d="M0.880682 12.5V0.863636H5.73295C6.60417 0.863636 7.33333 0.986742 7.92045 1.23295C8.51136 1.47917 8.95455 1.82386 9.25 2.26705C9.54924 2.71023 9.69886 3.22348 9.69886 3.80682C9.69886 4.25 9.60606 4.64583 9.42045 4.99432C9.23485 5.33902 8.97917 5.625 8.65341 5.85227C8.32765 6.07955 7.95076 6.23864 7.52273 6.32955V6.44318C7.99242 6.46591 8.42614 6.5928 8.82386 6.82386C9.22538 7.05492 9.54735 7.37689 9.78977 7.78977C10.0322 8.19886 10.1534 8.68371 10.1534 9.24432C10.1534 9.86932 9.99432 10.428 9.67614 10.9205C9.35795 11.4091 8.89773 11.7955 8.29545 12.0795C7.69318 12.3598 6.96212 12.5 6.10227 12.5H0.880682ZM3.69318 10.233H5.43182C6.04167 10.233 6.49053 10.1174 6.77841 9.88636C7.07008 9.6553 7.21591 9.33333 7.21591 8.92045C7.21591 8.62121 7.14583 8.36364 7.00568 8.14773C6.86553 7.92803 6.66667 7.75947 6.40909 7.64205C6.15152 7.52083 5.8428 7.46023 5.48295 7.46023H3.69318V10.233ZM3.69318 5.64773H5.25C5.55682 5.64773 5.82955 5.59659 6.06818 5.49432C6.30682 5.39205 6.49242 5.24432 6.625 5.05114C6.76136 4.85795 6.82955 4.625 6.82955 4.35227C6.82955 3.96212 6.69129 3.6553 6.41477 3.43182C6.13826 3.20833 5.76515 3.09659 5.29545 3.09659H3.69318V5.64773Z" fill="#9CA3AF"/>
</svg>
