<svg width="20" height="20" viewBox="0 0 20 20" fill="none" xmlns="http://www.w3.org/2000/svg">
<g clip-path="url(#clip0_4779_82828)">
<path d="M19.2702 10.185C19.2702 16.3216 14.9435 17.8787 9.83457 17.8787C4.72561 17.8787 0.583984 16.23 0.583984 10.185C0.583984 5.68301 4.72561 2.125 9.83457 2.125C14.9435 2.125 19.2702 5.68301 19.2702 10.185Z" fill="#D1D5DB"/>
<path d="M11.2409 5.77734H8.61313C6.51686 5.77734 4.8175 7.47671 4.8175 9.57297C4.8175 11.6692 6.51686 13.3686 8.61313 13.3686H11.2409C13.3371 13.3686 15.0365 11.6692 15.0365 9.57297C15.0365 7.47671 13.3371 5.77734 11.2409 5.77734Z" fill="#9CA3AF"/>
<path d="M8.2221 8.87729C8.2221 8.50064 7.91677 8.19531 7.54013 8.19531C7.16348 8.19531 6.85815 8.50064 6.85815 8.87729V10.2412C6.85815 10.6179 7.16348 10.9232 7.54013 10.9232C7.91677 10.9232 8.2221 10.6179 8.2221 10.2412V8.87729Z" fill="#4B5563"/>
<path d="M12.9959 8.87729C12.9959 8.50064 12.6906 8.19531 12.314 8.19531C11.9373 8.19531 11.632 8.50064 11.632 8.87729V10.2412C11.632 10.6179 11.9373 10.9232 12.314 10.9232C12.6906 10.9232 12.9959 10.6179 12.9959 10.2412V8.87729Z" fill="#4B5563"/>
<path d="M20.0001 8.91084C20.0001 8.54803 19.706 8.25391 19.3431 8.25391C18.9803 8.25391 18.6862 8.54803 18.6862 8.91084V12.4145C18.6862 12.7773 18.9803 13.0714 19.3431 13.0714C19.706 13.0714 20.0001 12.7773 20.0001 12.4145V8.91084Z" fill="#9CA3AF"/>
<path d="M1.31387 8.91084C1.31387 8.54803 1.01975 8.25391 0.656935 8.25391C0.29412 8.25391 0 8.54803 0 8.91084V12.4145C0 12.7773 0.29412 13.0714 0.656935 13.0714C1.01975 13.0714 1.31387 12.7773 1.31387 12.4145V8.91084Z" fill="#9CA3AF"/>
</g>
<defs>
<clipPath id="clip0_4779_82828">
<rect width="20" height="20" fill="white"/>
</clipPath>
</defs>
</svg>
