<svg width="16" height="15" viewBox="0 0 16 15" fill="none" xmlns="http://www.w3.org/2000/svg">
<path d="M0.556818 7.70455V6.85227C1.19697 6.85227 1.64394 6.72159 1.89773 6.46023C2.15152 6.19508 2.27841 5.75758 2.27841 5.14773V3.51705C2.27841 2.9375 2.3428 2.45076 2.47159 2.05682C2.60417 1.65909 2.80492 1.34091 3.07386 1.10227C3.3428 0.863636 3.68371 0.691288 4.09659 0.585227C4.50947 0.479166 4.99621 0.426136 5.55682 0.426136V1.77273C5.11742 1.77273 4.77462 1.83712 4.52841 1.96591C4.2822 2.0947 4.10985 2.29545 4.01136 2.56818C3.91667 2.83712 3.86932 3.18182 3.86932 3.60227V5.67045C3.86932 5.96212 3.82576 6.23295 3.73864 6.48295C3.65152 6.72917 3.49053 6.94318 3.25568 7.125C3.02083 7.30682 2.68561 7.44886 2.25 7.55114C1.81439 7.65341 1.25 7.70455 0.556818 7.70455ZM5.55682 14.9205C4.99621 14.9205 4.50947 14.8674 4.09659 14.7614C3.68371 14.6553 3.3428 14.483 3.07386 14.2443C2.80492 14.0057 2.60417 13.6875 2.47159 13.2898C2.3428 12.8958 2.27841 12.4091 2.27841 11.8295V10.1932C2.27841 9.58712 2.15152 9.15152 1.89773 8.88636C1.64394 8.62121 1.19697 8.48864 0.556818 8.48864V7.64205C1.25 7.64205 1.81439 7.69318 2.25 7.79545C2.68561 7.89394 3.02083 8.03598 3.25568 8.22159C3.49053 8.40341 3.65152 8.61932 3.73864 8.86932C3.82576 9.11553 3.86932 9.38447 3.86932 9.67614V11.7443C3.86932 12.161 3.91667 12.5038 4.01136 12.7727C4.10985 13.0455 4.2822 13.2462 4.52841 13.375C4.77462 13.5076 5.11742 13.5739 5.55682 13.5739V14.9205ZM0.556818 8.48864V6.85227H2.13068V8.48864H0.556818ZM15.7699 7.64205V8.48864C15.1297 8.48864 14.6828 8.62121 14.429 8.88636C14.1752 9.15152 14.0483 9.58712 14.0483 10.1932V11.8295C14.0483 12.4091 13.982 12.8958 13.8494 13.2898C13.7206 13.6875 13.5218 14.0057 13.2528 14.2443C12.9839 14.483 12.643 14.6553 12.2301 14.7614C11.8172 14.8674 11.3305 14.9205 10.7699 14.9205V13.5739C11.2093 13.5739 11.5521 13.5076 11.7983 13.375C12.0445 13.2462 12.215 13.0455 12.3097 12.7727C12.4081 12.5038 12.4574 12.161 12.4574 11.7443V9.67614C12.4574 9.38447 12.5009 9.11553 12.5881 8.86932C12.6752 8.61932 12.8362 8.40341 13.071 8.22159C13.3059 8.03598 13.6411 7.89394 14.0767 7.79545C14.5123 7.69318 15.0767 7.64205 15.7699 7.64205ZM10.7699 0.426136C11.3305 0.426136 11.8172 0.479166 12.2301 0.585227C12.643 0.691288 12.9839 0.863636 13.2528 1.10227C13.5218 1.34091 13.7206 1.65909 13.8494 2.05682C13.982 2.45076 14.0483 2.9375 14.0483 3.51705V5.14773C14.0483 5.75758 14.1752 6.19508 14.429 6.46023C14.6828 6.72159 15.1297 6.85227 15.7699 6.85227V7.70455C15.0767 7.70455 14.5123 7.65341 14.0767 7.55114C13.6411 7.44886 13.3059 7.30682 13.071 7.125C12.8362 6.94318 12.6752 6.72917 12.5881 6.48295C12.5009 6.23295 12.4574 5.96212 12.4574 5.67045V3.60227C12.4574 3.18182 12.4081 2.83712 12.3097 2.56818C12.215 2.29545 12.0445 2.0947 11.7983 1.96591C11.5521 1.83712 11.2093 1.77273 10.7699 1.77273V0.426136ZM15.7699 6.85227V8.48864H14.196V6.85227H15.7699Z" fill="#9CA3AF"/>
</svg>
