<svg width="19" height="14" viewBox="0 0 19 14" fill="none" xmlns="http://www.w3.org/2000/svg">
<path d="M10.125 3.875V10.125M15.125 3.875H12.625V7M12.625 7V10.125M12.625 7H14.5M7.625 4.79029C6.76714 3.5699 5.37626 3.5699 4.5184 4.79029C3.66053 6.01068 3.66053 7.98932 4.5184 9.20971C5.37626 10.4301 6.76714 10.4301 7.625 9.20971V7H6.375M3.25 13.25H15.75C16.7855 13.25 17.625 12.4105 17.625 11.375V2.625C17.625 1.58947 16.7855 0.75 15.75 0.75H3.25C2.21447 0.75 1.375 1.58947 1.375 2.625V11.375C1.375 12.4105 2.21447 13.25 3.25 13.25Z" stroke="#9CA3AF" stroke-width="1.5" stroke-linecap="round" stroke-linejoin="round"/>
</svg>
