<svg width="54" height="55" viewBox="0 0 54 55" fill="none" xmlns="http://www.w3.org/2000/svg">
<g id="Logo Circle">
<circle id="Ellipse" cx="27" cy="27.5" r="27" fill="#F3F4F6"/>
<path id="Logo" d="M35.4783 24.1482C34.7612 22.9095 33.8001 21.8288 32.653 20.9714C31.2967 19.9599 29.6541 19.4038 27.9614 19.383H27.8121C26.6117 19.3443 25.4145 19.527 24.2805 19.9221C23.3735 20.2651 22.6088 20.9035 22.1099 21.7341C22.299 21.1718 22.4487 20.5969 22.5578 20.0138C22.655 19.4446 22.7183 18.8702 22.7473 18.2935C22.7875 17.6054 22.8104 16.7223 22.8104 15.65V12.1177C22.8104 9.96924 21.8878 8.89502 20.0426 8.89502C18.0289 8.89502 17.0221 9.96924 17.0221 12.1177V29.5786C16.9707 31.5303 17.2823 33.4746 17.9408 35.3129C18.0397 35.5685 18.1587 35.8159 18.2969 36.0526C20.0196 38.9943 23.1894 39.9577 26.8014 39.9691C28.7188 40.0446 30.6285 39.6879 32.3888 38.9255C35.1222 37.6238 36.9828 34.9115 36.9828 29.7793C36.9941 27.8018 36.4746 25.8573 35.4783 24.1482ZM25.4405 30.0775C25.3515 30.0745 25.2639 30.0541 25.1829 30.0173C25.1018 29.9805 25.0288 29.9282 24.968 29.8632C24.9072 29.7982 24.8598 29.7219 24.8285 29.6387C24.7973 29.5554 24.7828 29.4668 24.7858 29.3779V27.4627C24.782 27.3733 24.7959 27.2841 24.8268 27.2002C24.8577 27.1162 24.905 27.0392 24.9658 26.9737C25.0267 26.9081 25.1 26.8552 25.1815 26.8181C25.263 26.7809 25.351 26.7603 25.4405 26.7573C25.6197 26.7648 25.7888 26.8423 25.9113 26.9732C26.0338 27.1041 26.0998 27.2778 26.0951 27.4569V29.3722C26.099 29.4615 26.085 29.5507 26.0541 29.6347C26.0232 29.7186 25.976 29.7956 25.9151 29.8612C25.8542 29.9268 25.781 29.9797 25.6995 30.0168C25.618 30.0539 25.53 30.0745 25.4405 30.0775ZM30.4077 30.0775C30.3232 30.0745 30.2402 30.055 30.1633 30.0199C30.0864 29.9849 30.0171 29.9351 29.9595 29.8733C29.9019 29.8115 29.8571 29.739 29.8276 29.6599C29.7981 29.5808 29.7844 29.4967 29.7875 29.4123V27.4282C29.7909 27.3105 29.8249 27.1956 29.8864 27.0951C29.9478 26.9945 30.0345 26.9117 30.1378 26.8548C30.219 26.811 30.3096 26.7874 30.402 26.786C30.4864 26.789 30.5695 26.8085 30.6464 26.8436C30.7233 26.8786 30.7925 26.9284 30.8501 26.9902C30.9077 27.052 30.9526 27.1245 30.9821 27.2036C31.0116 27.2827 31.0252 27.3668 31.0221 27.4512V29.4353C31.0155 29.5944 30.9503 29.7456 30.8391 29.8599C30.7278 29.9741 30.5784 30.0434 30.4192 30.0546L30.4077 30.0775Z" fill="#6744FF"/>
</g>
</svg>
