<svg xmlns="http://www.w3.org/2000/svg" width="32" height="32" viewBox="0 0 32 32" fill="none">
  <path d="M15.6051 0.901637C14.5145 0.0355119 13.1435 -0.221446 11.8414 0.195297L3.03415 3.01479C1.21976 3.59601 0 5.34405 0 7.36632V27.4541C0 28.9047 0.625323 30.233 1.71584 31.0977C2.80655 31.9639 4.17905 32.2208 5.47957 31.8042L12.0543 29.6988C11.8486 28.9752 11.7445 28.2201 11.7445 27.4541V18.3313C11.7445 16.4156 12.3992 14.586 13.5911 13.1825C14.4659 12.1486 15.6007 11.3858 16.8689 10.9786L17.321 10.8407V4.54672C17.321 3.09618 16.6957 1.76787 15.605 0.901637H15.6051Z" fill="#6E55FF"/>
  <path d="M31.9998 15.5117V24.6345C31.9998 26.6552 30.7815 28.4049 28.9657 28.9845L20.1584 31.8041C19.7504 31.9356 19.3349 31.9999 18.9239 31.9999C18.024 31.9999 17.1433 31.693 16.3947 31.0977C16.0526 30.8251 15.7561 30.5102 15.5124 30.1578C15.216 29.7349 14.9943 29.2634 14.8548 28.7574C14.8533 28.7574 14.8519 28.7574 14.8504 28.7589L14.8533 28.7558C14.7404 28.3407 14.6787 27.9037 14.6787 27.4541V18.3313C14.6787 17.3945 14.94 16.5158 15.401 15.7858C15.8619 15.0558 16.5224 14.4732 17.3209 14.1269C17.4487 14.0721 17.5793 14.0219 17.713 13.9797L18.7904 13.6351L26.5204 11.1601C27.8223 10.7434 29.1934 11.0004 30.284 11.8666C31.3747 12.7328 31.9999 14.0611 31.9999 15.5117H31.9998Z" fill="#6E55FF"/>
</svg>