<svg width="320" height="169" viewBox="0 0 320 169" fill="none" xmlns="http://www.w3.org/2000/svg">
<path d="M90.2039 111.221C94.7895 76.956 134.041 60.0117 161.004 60.0117C187.967 60.0117 229.787 77.7091 233.272 111.221C236.207 163.183 221.349 164.125 161.004 164.313C100.659 164.502 86.719 159.606 90.2039 111.221Z" fill="#4D5A98"/>
<path d="M161.609 100.301C160.798 100.301 160.141 99.6271 160.141 98.7952C160.141 97.9634 160.798 97.2891 161.609 97.2891C162.419 97.2891 163.076 97.9634 163.076 98.7952C163.076 99.6271 162.419 100.301 161.609 100.301Z" fill="white"/>
<path d="M161.609 110.844C160.798 110.844 160.141 110.17 160.141 109.338C160.141 108.506 160.798 107.832 161.609 107.832C162.419 107.832 163.076 108.506 163.076 109.338C163.076 110.17 162.419 110.844 161.609 110.844Z" fill="white"/>
<path d="M158.544 91.6439L157.813 91.9656C152.514 94.2966 146.57 90.4082 146.57 84.6107C146.57 80.1745 150.16 76.5781 154.589 76.5781H169.367C173.794 76.5781 177.384 80.1745 177.384 84.6107C177.384 90.4082 171.441 94.2966 166.143 91.9656L165.411 91.6439C163.222 90.6813 160.732 90.6813 158.544 91.6439Z" fill="white"/>
<path d="M161.605 120.258V132.684" stroke="white" stroke-width="6" stroke-linecap="round"/>
<path d="M211.811 44.4142C211.703 76.9523 188.403 85.1271 160.922 85.0312C133.44 84.9353 111.191 76.1159 111.297 44.0633C111.376 20.1924 133.717 1.40445 161.198 1.50037C188.679 1.59628 211.89 20.5431 211.811 44.4142Z" fill="#DF954A"/>
<path d="M156.794 42.6646C156.784 40.635 155.134 38.9982 153.108 39.0085C151.082 39.0189 149.447 40.6727 149.457 42.7022L149.508 53.0495C149.518 55.0791 151.168 56.716 153.194 56.7056C155.22 56.6952 156.854 55.0415 156.844 53.0119L156.794 42.6646Z" fill="white"/>
<path d="M171.27 38.9157L171.27 38.9157C169.345 38.9256 167.793 40.4966 167.802 42.4247L167.854 53.1395C167.864 55.0677 169.432 56.6227 171.356 56.6128C173.281 56.603 174.834 55.0319 174.824 53.1038L174.772 42.389C174.763 40.4609 173.195 38.9059 171.27 38.9157Z" fill="white"/>
<path d="M0 107.301H320V168.999H0V107.301Z" fill="white"/>
<mask id="mask0_7297_57554" style="mask-type:luminance" maskUnits="userSpaceOnUse" x="0" y="107" width="320" height="62">
<path d="M0 107.301H320V168.999H0V107.301Z" fill="white"/>
</mask>
<g mask="url(#mask0_7297_57554)">
<path d="M0 107.302V108.643H320V107.302V105.961H0V107.302Z" fill="#D1D5DB"/>
</g>
<path d="M94.748 159.66L116.109 118.751C116.34 118.308 116.797 118.031 117.295 118.031H198.018C198.516 118.031 198.972 118.308 199.204 118.751L220.564 159.66C221.031 160.552 220.384 161.623 219.377 161.623H95.9344C94.9284 161.623 94.2818 160.552 94.748 159.66Z" fill="#E5E7EB"/>
<path d="M121 147H193.5M129.5 136.5H184M136 127H177.5" stroke="#C7C7C7" stroke-linejoin="round"/>
<path d="M72.4336 95.1238L77.2786 100.254C77.2786 100.254 78.2933 98.4934 79.7426 96.8666C81.1946 95.2876 82.8498 94.1368 82.8498 94.1368L77.3996 89.793C77.3996 89.793 76.4392 89.8651 74.4248 92.0368C72.4116 94.2561 72.4336 95.1238 72.4336 95.1238ZM99.2619 111.554L101.576 111.736L83.8466 95.5089C83.8466 95.5089 82.3361 96.656 81.0715 98.0375C79.7605 99.468 78.7422 101.085 78.7422 101.085L96.4714 117.313L96.261 114.715L99.0431 114.355L99.2619 111.554ZM106.9 122.542L98.3331 118.614L98.0825 116.307L100.722 116.047L101.037 113.243L103.159 113.479L107.602 121.754L106.9 122.542Z" fill="#FF9797"/>
<path d="M87.9884 126.955C96.1186 126.705 102.507 119.9 102.257 111.756C102.008 103.611 95.2146 97.2112 87.0844 97.4613C78.9541 97.7113 72.5656 104.517 72.8153 112.661C73.0649 120.806 79.8581 127.205 87.9884 126.955Z" fill="#DF954A"/>
<path d="M235.648 120.715C243.782 120.715 250.376 114.109 250.376 105.961C250.376 97.8126 243.782 91.207 235.648 91.207C227.514 91.207 220.92 97.8126 220.92 105.961C220.92 114.109 227.514 120.715 235.648 120.715Z" fill="#DF954A"/>
</svg>
