<svg width="240" height="188" viewBox="0 0 240 188" fill="none" xmlns="http://www.w3.org/2000/svg">
<mask id="mask0_7297_57351" style="mask-type:luminance" maskUnits="userSpaceOnUse" x="0" y="0" width="240" height="188">
<path d="M240 0H0V188H240V0Z" fill="white"/>
</mask>
<g mask="url(#mask0_7297_57351)">
<path d="M194.646 75.9215C168.624 52.1382 124.725 50.2165 106.029 52.2285C102.961 69.8716 90.9405 106.917 67.3997 113.952C43.8592 120.989 1.89453 158.966 4.82548 168.126C7.75643 177.286 98.2773 190.028 114.232 187.163C130.186 184.298 160.788 136.219 160.788 136.219C175.124 119.535 201.967 84.1175 194.646 75.9215Z" fill="#F2F2F2"/>
<path d="M178.395 84.6335C178.583 84.7881 178.86 84.7606 179.016 84.5723C179.17 84.3838 179.143 84.1057 178.954 83.9512L178.395 84.6335ZM170.012 103.169C170.2 103.323 170.478 103.296 170.633 103.107C170.788 102.919 170.76 102.641 170.572 102.486L170.012 103.169ZM160.306 117.291C160.494 117.445 160.772 117.418 160.927 117.229C161.082 117.041 161.055 116.763 160.866 116.608L160.306 117.291ZM149.277 134.061C149.465 134.215 149.743 134.188 149.898 133.999C150.052 133.811 150.025 133.533 149.836 133.378L149.277 134.061ZM135.6 149.948C135.788 150.103 136.066 150.075 136.222 149.886C136.376 149.698 136.349 149.42 136.16 149.265L135.6 149.948ZM121.042 162.746C121.23 162.901 121.507 162.873 121.663 162.685C121.817 162.497 121.79 162.218 121.601 162.063L121.042 162.746ZM112.939 63.5505L112.879 63.9878C120.952 65.0889 133.925 67.4464 146.594 70.9377C159.285 74.4349 171.592 79.0497 178.395 84.6335L178.674 84.2923L178.954 83.9512C171.992 78.2373 159.52 73.5844 146.828 70.0868C134.115 66.5833 121.102 64.2188 112.999 63.1133L112.939 63.5505ZM104.557 82.0857L104.497 82.523C112.569 83.6241 125.542 85.9816 138.211 89.4731C150.902 92.9701 163.209 97.5844 170.012 103.169L170.292 102.827L170.572 102.486C163.61 96.7724 151.138 92.1192 138.446 88.6214C125.733 85.1185 112.72 82.754 104.617 81.6485L104.557 82.0857ZM94.8507 96.2076L94.7907 96.6445C102.863 97.746 115.837 100.103 128.505 103.595C141.196 107.092 153.503 111.707 160.306 117.291L160.586 116.949L160.866 116.608C153.904 110.894 141.432 106.241 128.74 102.743C116.027 99.2403 103.014 96.8757 94.9107 95.7706L94.8507 96.2076ZM83.8215 112.978L83.7618 113.414C91.834 114.516 104.807 116.873 117.476 120.365C130.167 123.862 142.474 128.476 149.277 134.061L149.557 133.719L149.836 133.378C142.875 127.664 130.402 123.011 117.711 119.513C104.998 116.01 91.9848 113.646 83.8811 112.541L83.8215 112.978ZM57.3509 124.452L57.2913 124.889C65.3519 125.988 81.5211 129.447 97.3972 134.044C105.334 136.342 113.188 138.922 119.913 141.629C126.649 144.342 132.214 147.168 135.6 149.948L135.88 149.607L136.16 149.265C132.664 146.396 126.994 143.53 120.242 140.811C113.481 138.088 105.596 135.499 97.6425 133.196C81.7395 128.591 65.5264 125.122 57.4105 124.015L57.3509 124.452ZM42.7921 137.25L42.7324 137.687C50.7931 138.786 66.9623 142.245 82.8385 146.842C90.7751 149.14 98.629 151.72 105.354 154.428C112.09 157.14 117.655 159.966 121.042 162.746L121.321 162.405L121.601 162.063C118.105 159.195 112.435 156.328 105.683 153.609C98.9219 150.886 91.0372 148.297 83.0838 145.994C67.1807 141.389 50.9676 137.92 42.8517 136.813L42.7921 137.25Z" fill="#E6E6E6"/>
<path d="M88.7949 92.8976C82.0255 91.0732 73.6278 90.6371 65.2943 92.0608L52.9414 100.178C63.0885 98.707 83.3826 98.5896 83.3826 109.887C88.0884 106.798 100.941 104.062 114.706 117.831L111.177 105.243C104.169 99.1748 95.9579 94.827 88.7949 92.8976Z" fill="white"/>
<path d="M69.2144 165.789C109.198 176.422 119.21 178.414 127.021 141.576C129.406 127.182 121.63 114.299 111.174 105.245L114.704 117.833C100.939 104.064 88.0858 106.8 83.38 109.889C83.38 98.5913 63.0859 98.7087 52.9388 100.18L65.2918 92.0625C51.6536 94.3918 38.1876 101.702 32.311 116.058C20.9216 149.251 29.2308 155.157 69.2144 165.789Z" fill="#FAA74B"/>
<path d="M132.071 89.1564C125.106 112.054 106.421 112.715 86.4452 106.635C66.4688 100.555 52.1458 89.4741 59.0068 66.9183C64.1164 50.1198 84.3488 41.7727 104.325 47.8528C124.301 53.9328 137.181 72.358 132.071 89.1564Z" fill="#8DB8F2"/>
<path d="M16.4977 104.571C19.7612 105.564 23.1542 103.912 24.0763 100.881C24.9983 97.8488 23.1003 94.5866 19.8367 93.5937C16.5733 92.5998 13.1803 94.2521 12.2583 97.2839C11.3362 100.315 13.2343 103.577 16.4977 104.571Z" fill="#8DB8F2"/>
<path d="M120.499 166.014C125.161 167.433 130.033 164.992 131.381 160.561C132.728 156.131 130.042 151.389 125.379 149.97C120.717 148.551 115.846 150.992 114.498 155.423C113.151 159.853 115.838 164.594 120.499 166.014Z" fill="#8DB8F2"/>
<path d="M22.0221 106.834C22.0221 106.326 21.6101 105.914 21.1039 105.914H8.23463C7.727 105.914 7.31641 106.326 7.31641 106.834C7.31641 107.342 7.72709 107.753 8.23463 107.753H21.1039C21.6101 107.753 22.0221 107.342 22.0221 106.834Z" fill="#E6E9ED"/>
<path d="M72.1424 60.3477C80.0078 61.3073 79.6384 61.0526 86.8697 64.8804L92.7106 66.7783C103.366 67.6802 109.603 71.5544 111.608 72.9185C110.224 75.3342 102.77 78.5419 97.9607 76.9789C93.1501 75.416 92.1292 69.4544 92.7106 66.7783L86.8697 64.8804C83.7348 67.0339 78.5024 70.7474 74.7605 69.3685C71.0187 67.9895 71.8236 62.8022 72.1424 60.3477Z" fill="#3A3B3C"/>
<path d="M92.8095 66.5018C103.538 67.4217 109.827 71.3249 111.86 72.7078L112.059 72.8433L111.953 73.0289C111.575 73.6888 110.802 74.3757 109.811 75.0057C108.815 75.6392 107.574 76.2313 106.226 76.6955C103.549 77.6178 100.361 78.0637 97.8134 77.2361C95.2554 76.405 93.751 74.4238 92.9551 72.3732C92.1981 70.4214 91.9625 68.9111 92.206 67.5219L86.9119 65.7566C85.3712 66.8165 83.362 67.6841 81.243 68.6862C79.0645 69.7166 76.6604 70.3803 74.5973 69.62C72.5364 68.8606 71.7859 67.0774 71.5573 65.2867C71.3265 63.478 71.6124 61.5382 71.7709 60.3186L71.81 60.0195L72.2035 60.0676C76.1091 60.5442 78.0395 60.7258 79.8828 61.275C81.7232 61.8234 83.4755 62.7368 87.0568 64.6325L92.8095 66.5018ZM111.149 72.9866C108.999 71.5523 103.015 68.0056 93.031 67.0887C92.8175 68.3942 92.9551 70.3629 93.6742 72.2152C94.4463 74.2051 95.8572 75.9865 98.1098 76.7184C100.372 77.4537 103.317 77.0776 105.915 76.1829C107.205 75.7386 108.387 75.1733 109.328 74.575C110.172 74.0387 110.8 73.4877 111.149 72.9866ZM79.6075 61.7989C77.9203 61.2962 76.1663 61.1184 72.4778 60.6713C72.3168 61.8985 72.0971 63.6241 72.3022 65.2326C72.5271 66.9939 73.2454 68.4941 74.9263 69.1135C76.605 69.7322 78.6881 69.2286 80.8449 68.2086C82.8257 67.2717 84.7475 65.9567 86.2731 64.9073C82.9056 63.1264 81.289 62.3 79.6075 61.7989Z" fill="#3A3B3C"/>
<path d="M22.875 88.5558C22.875 90.3228 19.9263 94.0722 14.6022 94.0722C9.27588 94.0722 6.33008 90.3572 6.33008 88.5558C6.33008 86.7536 6.33008 70.168 6.33008 70.168H22.875C22.875 70.168 22.875 86.7873 22.875 88.5558Z" fill="#E6E9ED"/>
<path d="M8.34231 65.5117H6.38867L10.5194 76.989L12.2494 76.3667L8.34231 65.5117Z" fill="#FFD2A6"/>
<path d="M31.2118 60.0553C31.2118 59.5474 30.7998 59.1367 30.2936 59.1367C30.2155 59.1367 30.1401 59.1461 30.0701 59.165V59.1636L22.7486 61.002L22.7512 61.0034C22.4496 61.0789 22.21 61.301 22.1076 61.5893L16.9355 76.3016L18.6689 76.9103L23.6774 62.6653L30.517 60.9467C30.9155 60.8458 31.2118 60.4862 31.2118 60.0553Z" fill="#434A54"/>
<path d="M6.70631 63.6758L0.550781 73.7094L17.8415 67.4819L6.70631 63.6758Z" fill="#ED5564"/>
<path d="M15.8819 93.5586H14.1172V105.915H15.8819V93.5586Z" fill="#CCD1D9"/>
<path d="M6.33008 75.6836C6.33008 80.6843 6.33008 87.4411 6.33008 88.555C6.33008 90.3564 9.27596 94.0714 14.6022 94.0714C19.9263 94.0714 22.875 90.322 22.875 88.555C22.875 87.4612 22.875 80.6923 22.875 75.6836H6.33008Z" fill="#A0D468"/>
<path d="M18.3456 83.9589C18.3456 84.4653 17.9337 84.8774 17.4247 84.8774C16.9177 84.8774 16.5059 84.4653 16.5059 83.9589C16.5059 83.4499 16.9177 83.0391 17.4247 83.0391C17.9336 83.0391 18.3456 83.4499 18.3456 83.9589Z" fill="#8CC153"/>
<path d="M20.1821 87.6373C20.1821 88.1451 19.7702 88.5573 19.2639 88.5573C18.7549 88.5573 18.3457 88.1451 18.3457 87.6373C18.3457 87.1294 18.7549 86.7188 19.2639 86.7188C19.7702 86.7188 20.1821 87.1295 20.1821 87.6373Z" fill="#8CC153"/>
<g opacity="0.2">
<path d="M21.0356 70.168C21.0356 70.168 21.0356 86.7873 21.0356 88.5558C21.0356 90.2187 18.4263 93.6362 13.6797 94.0334C13.9786 94.059 14.2855 94.0722 14.602 94.0722C19.9261 94.0722 22.8748 90.3228 22.8748 88.5558C22.8748 86.7873 22.8748 70.168 22.8748 70.168H21.0356Z" fill="white"/>
</g>
<path d="M208.142 86.9883C208.001 82.8712 207.776 78.7667 207.467 74.6843C206.494 62.1124 204.765 49.8041 202.315 38.0108C200.874 31.1365 199.736 27.1992 199.736 27.1992L189.861 29.6653C189.861 29.6653 191.001 34.2693 192.234 43.2922C192.734 46.9542 193.247 51.3572 193.71 56.4957C193.945 59.0888 194.163 61.8512 194.36 64.8201C194.634 68.9531 194.86 73.4566 195.022 78.3094C195.115 81.0506 195.18 83.9083 195.224 86.8771C195.241 87.9567 195.265 88.9988 195.273 90.1109C195.29 93.6291 195.182 97.1463 194.95 100.636C194.748 103.811 194.453 106.971 194.101 110.103C193.6 114.524 192.99 118.896 192.269 123.202C191.719 126.479 191.123 129.726 190.479 132.939C189.539 137.654 188.593 141.893 187.775 145.423C186.403 151.344 185.395 155.282 185.395 156.102C185.395 158.695 186.351 163.553 193.04 166.792C203.5 171.85 204.509 163.505 204.509 163.505C204.509 163.505 205.173 159.599 205.947 151.906C206.329 148.106 206.737 143.411 207.106 137.733C207.327 134.336 207.532 130.6 207.713 126.535C208.088 117.974 208.288 109.388 208.314 100.795C208.32 99.4933 208.336 98.2337 208.336 96.8948C208.336 93.5081 208.254 90.2212 208.142 86.9883Z" fill="#CD9584"/>
<path d="M198.236 138.164C194.45 136.868 192.035 134.696 190.71 133.071C189.782 137.803 188.848 142.057 188.041 145.6C190.512 148.25 193.651 150.353 197.056 151.516C199.024 152.191 200.975 152.53 202.806 152.53C203.923 152.53 204.973 152.356 205.98 152.106C206.358 148.293 206.759 143.582 207.124 137.882C205.925 138.716 202.947 139.779 198.236 138.164ZM201.095 113.345C198.147 112.772 195.877 111.497 194.283 110.148C193.789 114.585 193.186 118.972 192.475 123.293C194.806 125.024 197.55 126.272 200.421 126.83C201.579 127.053 202.728 127.17 203.848 127.17C205.203 127.17 206.487 126.963 207.72 126.645C207.904 122.396 208.057 117.791 208.166 112.809C206.471 113.526 204.094 113.924 201.095 113.345ZM201.929 102.017C204.147 102.017 206.328 101.575 208.314 100.806C208.319 99.4995 208.335 98.2347 208.335 96.8913C208.335 93.487 208.257 90.1886 208.144 86.9436C206.716 87.6766 204.676 88.3881 201.797 88.4622C198.872 88.4357 196.813 87.6394 195.392 86.8374C195.408 87.9209 195.432 88.9671 195.44 90.0827C195.457 93.6141 195.35 97.1437 195.122 100.646C197.18 101.501 199.452 101.99 201.762 102.011L201.929 102.017ZM201.258 77.7076C203.377 77.0767 205.46 76.036 207.475 74.6005C207.134 70.1174 206.697 65.6644 206.166 61.2537C204.828 62.3371 202.931 63.5428 200.281 64.2917C198.38 64.8737 196.452 65.0109 194.536 64.7006C194.806 68.8486 195.03 73.3684 195.189 78.2387C195.599 78.2706 195.972 78.3927 196.392 78.3927C197.979 78.398 199.631 78.1643 201.258 77.7076ZM204.687 50.5358C204.012 46.2252 203.245 41.9725 202.388 37.7891C200.888 39.2559 199.318 40.4282 197.701 41.2891C195.984 42.2591 194.219 42.8628 192.437 43.0896C192.931 46.7649 193.437 51.1838 193.894 56.3409C195.803 55.9945 197.693 55.3264 199.544 54.3439C201.376 53.3454 203.079 52.007 204.687 50.5358Z" fill="#EFB9A0"/>
<path d="M233.687 11.1521C233.565 10.9842 221.26 -5.35142 205.299 1.8183C198.14 5.03146 193.518 10.2821 191.842 17.058C188.721 12.7408 183.978 9.99577 177.715 8.88613C160.519 5.84095 150.183 24.7675 150.08 24.9602C149.93 25.241 149.995 25.5907 150.236 25.8C150.477 26.0092 150.837 26.023 151.099 25.8413C151.176 25.7862 158.993 20.3539 172.023 22.6556C185.34 25.007 194.677 27.3198 194.772 27.3418C194.892 27.3709 195.02 27.3677 195.139 27.3324C195.258 27.2971 195.366 27.231 195.451 27.1408C195.54 27.0445 204.383 17.6143 212.519 13.9605C224.555 8.56124 232.764 12.1461 232.842 12.1819C232.981 12.2443 233.138 12.2592 233.287 12.2244C233.437 12.1895 233.57 12.1069 233.667 11.9892C233.765 11.872 233.82 11.7258 233.824 11.574C233.827 11.4222 233.779 11.2736 233.687 11.1521Z" fill="#3E721D"/>
<path d="M224.617 24.9138C212.248 18.4175 202.576 21.5847 196.55 25.5278C189.319 24.1688 175.954 24.2469 164.637 38.6627C150.644 56.4858 162.901 78.6844 163.028 78.9076C163.132 79.0877 163.286 79.2333 163.472 79.3261C163.659 79.4188 163.869 79.4547 164.076 79.429C164.283 79.4034 164.478 79.3173 164.636 79.1819C164.793 79.0464 164.907 78.8675 164.963 78.6677C165.005 78.517 169.251 63.264 179.987 50.4332C185.811 43.468 192.764 37.0219 197.701 32.7413C202.649 33.5729 209.852 35.3839 216.926 39.3101C230.849 47.0482 237.24 60.1442 237.305 60.2753C237.397 60.4723 237.55 60.6353 237.741 60.7415C237.932 60.8476 238.152 60.8915 238.37 60.867C238.586 60.843 238.79 60.7533 238.953 60.6099C239.116 60.4666 239.231 60.2766 239.282 60.0661C239.339 59.8205 244.808 35.5095 224.617 24.9138Z" fill="#5C913B"/>
<path d="M113.291 131.528C113.523 131.516 113.759 131.511 113.994 131.506C114.23 131.502 114.466 131.499 114.698 131.501C114.813 131.501 114.928 131.503 115.042 131.506C115.155 131.508 115.267 131.51 115.377 131.514C115.817 131.528 116.228 131.554 116.579 131.585C116.93 131.617 117.222 131.654 117.427 131.685C117.529 131.699 117.609 131.715 117.663 131.724C117.718 131.734 117.747 131.74 117.747 131.74C117.747 131.74 117.717 131.746 117.662 131.758C117.606 131.77 117.524 131.788 117.42 131.807C117.212 131.845 116.915 131.892 116.56 131.936C116.205 131.982 115.79 132.022 115.348 132.052C115.237 132.06 115.125 132.066 115.011 132.072C114.896 132.079 114.782 132.086 114.665 132.089C114.433 132.101 114.197 132.105 113.962 132.111C113.726 132.114 113.491 132.117 113.259 132.115C113.234 132.115 113.209 132.114 113.184 132.114C113.995 132.841 116.256 134.707 118.068 134.674C122.181 134.598 120.729 133.309 120.818 131.684C120.906 130.058 122.5 128.713 118.388 128.788C116.575 128.822 114.107 130.773 113.215 131.531C113.241 131.53 113.266 131.529 113.291 131.528Z" fill="white"/>
<path d="M112.861 132.777C112.972 132.981 113.078 133.19 113.186 133.4C113.291 133.611 113.397 133.822 113.496 134.032C113.546 134.137 113.595 134.241 113.642 134.346C113.69 134.45 113.737 134.551 113.781 134.654C113.962 135.06 114.119 135.444 114.246 135.78C114.373 136.114 114.469 136.399 114.533 136.601C114.564 136.701 114.586 136.783 114.603 136.837C114.618 136.892 114.626 136.922 114.626 136.922C114.626 136.922 114.608 136.898 114.573 136.855C114.54 136.811 114.488 136.747 114.428 136.664C114.305 136.497 114.135 136.256 113.944 135.961C113.753 135.664 113.537 135.314 113.319 134.931C113.264 134.835 113.21 134.737 113.155 134.638C113.1 134.539 113.045 134.437 112.991 134.336C112.881 134.132 112.773 133.922 112.666 133.712C112.561 133.501 112.455 133.29 112.358 133.08C112.346 133.057 112.336 133.034 112.325 133.01C112.071 134.154 111.499 137.249 112.316 138.866C114.172 142.539 114.615 140.501 116.011 139.663C117.406 138.827 119.225 139.507 117.369 135.835C116.552 134.217 113.847 133.089 112.825 132.711C112.837 132.733 112.849 132.754 112.861 132.777Z" fill="white"/>
<path d="M111.628 133.095C111.507 133.31 111.379 133.525 111.251 133.74C111.12 133.954 110.991 134.169 110.857 134.376C110.792 134.481 110.726 134.584 110.66 134.685C110.593 134.786 110.529 134.887 110.463 134.985C110.203 135.376 109.95 135.736 109.725 136.04C109.501 136.343 109.305 136.59 109.164 136.762C109.094 136.847 109.036 136.913 108.998 136.959C108.958 137.004 108.937 137.027 108.937 137.027C108.937 137.027 108.949 136.997 108.97 136.942C108.992 136.887 109.023 136.805 109.066 136.703C109.152 136.498 109.279 136.209 109.443 135.868C109.606 135.529 109.806 135.137 110.031 134.724C110.086 134.62 110.144 134.515 110.203 134.41C110.262 134.304 110.322 134.198 110.384 134.091C110.506 133.876 110.635 133.662 110.763 133.447C110.893 133.232 111.024 133.018 111.156 132.81C111.171 132.787 111.186 132.765 111.2 132.742C110.135 133.158 107.302 134.387 106.307 136.038C104.049 139.786 105.944 139.037 107.252 139.825C108.559 140.613 108.783 142.639 111.041 138.891C112.035 137.24 111.799 134.161 111.668 133.025C111.655 133.048 111.643 133.071 111.628 133.095Z" fill="white"/>
<path d="M110.827 132.162C110.595 132.173 110.36 132.179 110.124 132.185C109.888 132.187 109.653 132.191 109.422 132.188C109.306 132.188 109.191 132.186 109.077 132.184C108.965 132.182 108.852 132.18 108.742 132.176C108.302 132.162 107.891 132.136 107.54 132.104C107.188 132.073 106.896 132.036 106.692 132.006C106.59 131.991 106.51 131.975 106.455 131.966C106.4 131.956 106.371 131.95 106.371 131.95C106.371 131.95 106.401 131.944 106.457 131.931C106.512 131.92 106.595 131.901 106.699 131.883C106.907 131.845 107.203 131.797 107.559 131.753C107.915 131.709 108.328 131.667 108.771 131.637C108.882 131.63 108.995 131.623 109.108 131.617C109.222 131.61 109.338 131.605 109.453 131.6C109.685 131.589 109.921 131.584 110.157 131.578C110.392 131.576 110.628 131.572 110.86 131.575C110.885 131.575 110.909 131.576 110.935 131.576C110.124 130.848 107.863 128.983 106.051 129.016C101.937 129.091 103.389 130.381 103.301 132.006C103.212 133.631 101.618 134.976 105.732 134.901C107.544 134.869 110.012 132.917 110.904 132.158C110.878 132.159 110.853 132.162 110.827 132.162Z" fill="white"/>
<path d="M111.258 130.904C111.148 130.701 111.04 130.491 110.932 130.281C110.827 130.07 110.722 129.86 110.623 129.649C110.572 129.544 110.524 129.44 110.477 129.336C110.429 129.233 110.382 129.13 110.338 129.028C110.158 128.623 110 128.237 109.873 127.903C109.746 127.567 109.649 127.283 109.587 127.081C109.554 126.98 109.532 126.899 109.516 126.844C109.501 126.79 109.493 126.761 109.493 126.761C109.493 126.761 109.512 126.783 109.546 126.827C109.58 126.871 109.631 126.934 109.691 127.018C109.813 127.184 109.983 127.425 110.175 127.722C110.367 128.017 110.581 128.369 110.799 128.752C110.855 128.846 110.908 128.945 110.964 129.044C111.019 129.143 111.074 129.244 111.128 129.347C111.238 129.55 111.345 129.76 111.453 129.97C111.558 130.181 111.663 130.392 111.762 130.602C111.773 130.626 111.783 130.649 111.793 130.671C112.048 129.528 112.62 126.434 111.802 124.815C109.948 121.143 109.503 123.181 108.108 124.018C106.712 124.856 104.894 124.174 106.75 127.847C107.567 129.466 110.272 130.594 111.294 130.972C111.282 130.949 111.269 130.927 111.258 130.904Z" fill="white"/>
<path d="M112.491 130.593C112.613 130.379 112.742 130.164 112.87 129.948C113 129.735 113.129 129.52 113.263 129.312C113.328 129.208 113.394 129.104 113.46 129.003C113.526 128.901 113.591 128.801 113.657 128.704C113.917 128.312 114.17 127.953 114.395 127.649C114.619 127.345 114.815 127.097 114.956 126.926C115.026 126.84 115.084 126.775 115.122 126.729C115.161 126.685 115.183 126.661 115.183 126.661C115.183 126.661 115.171 126.69 115.15 126.747C115.128 126.802 115.097 126.884 115.054 126.985C114.968 127.19 114.841 127.479 114.677 127.819C114.514 128.16 114.314 128.551 114.089 128.965C114.034 129.068 113.975 129.172 113.916 129.278C113.858 129.384 113.798 129.491 113.735 129.597C113.614 129.812 113.485 130.027 113.357 130.242C113.226 130.456 113.097 130.67 112.963 130.878C112.949 130.901 112.935 130.923 112.92 130.946C113.985 130.531 116.818 129.301 117.813 127.65C120.071 123.902 118.175 124.651 116.868 123.863C115.561 123.075 115.337 121.049 113.079 124.796C112.085 126.448 112.322 129.527 112.452 130.664C112.465 130.64 112.477 130.617 112.491 130.593Z" fill="white"/>
<path d="M53.6322 147.282C53.6015 147.076 53.5763 146.868 53.5505 146.659C53.5278 146.451 53.5043 146.243 53.4872 146.04C53.4777 145.939 53.4694 145.838 53.4625 145.738C53.4554 145.639 53.4477 145.542 53.4428 145.445C53.4197 145.06 53.4112 144.705 53.4134 144.402C53.4152 144.099 53.4278 143.85 53.4418 143.677C53.4478 143.589 53.4569 143.522 53.4613 143.476C53.4671 143.429 53.4703 143.406 53.4703 143.406C53.4703 143.406 53.4793 143.433 53.4965 143.484C53.5123 143.535 53.5378 143.611 53.5651 143.707C53.6212 143.897 53.6946 144.168 53.7691 144.489C53.8437 144.811 53.9197 145.183 53.9872 145.579C54.0052 145.677 54.0207 145.778 54.0366 145.88C54.0532 145.981 54.0687 146.083 54.0828 146.187C54.1136 146.393 54.1382 146.602 54.1639 146.81C54.1865 147.017 54.2098 147.226 54.2266 147.429C54.2288 147.451 54.2299 147.473 54.2318 147.495C54.8968 146.927 56.5864 145.313 56.4003 143.712C55.978 140.078 54.8007 141.097 53.1551 140.692C51.5096 140.289 50.0193 138.616 50.4417 142.25C50.6278 143.85 52.8028 146.414 53.6426 147.35C53.6391 147.327 53.6353 147.305 53.6322 147.282Z" fill="white"/>
<path d="M54.9293 147.916C55.1252 147.86 55.3277 147.808 55.5298 147.755C55.7337 147.705 55.937 147.654 56.141 147.609C56.2422 147.587 56.3434 147.564 56.4443 147.544C56.5449 147.523 56.6437 147.502 56.7428 147.483C57.1366 147.406 57.5115 147.345 57.8385 147.301C58.1654 147.256 58.4442 147.228 58.6424 147.213C58.741 147.205 58.821 147.203 58.8742 147.198C58.9286 147.196 58.9575 147.196 58.9575 147.196C58.9575 147.196 58.9358 147.207 58.8949 147.228C58.8533 147.249 58.7935 147.281 58.7145 147.318C58.5573 147.392 58.3286 147.493 58.0462 147.602C57.7642 147.712 57.4285 147.83 57.0609 147.945C56.9696 147.975 56.8749 148.002 56.7797 148.03C56.6846 148.06 56.5875 148.088 56.4889 148.115C56.2931 148.171 56.0904 148.223 55.8881 148.275C55.6841 148.325 55.4805 148.376 55.2769 148.421C55.2544 148.426 55.2322 148.429 55.2097 148.435C56.3835 148.888 59.5503 150.011 61.1125 149.617C64.6578 148.722 62.5658 147.922 61.6044 146.526C60.6428 145.131 61.176 143.669 57.6309 144.564C56.0687 144.958 55.1599 147.112 54.8652 147.934C54.887 147.929 54.9076 147.922 54.9293 147.916Z" fill="white"/>
<path d="M55.3507 149.064C55.5769 149.214 55.8048 149.37 56.0327 149.527C56.2592 149.684 56.4862 149.841 56.7071 150C56.818 150.078 56.9275 150.157 57.0351 150.235C57.1429 150.314 57.2495 150.391 57.3533 150.468C57.7699 150.776 58.1536 151.07 58.4786 151.329C58.8035 151.588 59.0697 151.809 59.254 151.968C59.3463 152.047 59.4172 152.111 59.4666 152.153C59.5148 152.198 59.5408 152.22 59.5408 152.22C59.5408 152.22 59.5098 152.205 59.4517 152.175C59.3943 152.144 59.309 152.1 59.2027 152.042C58.9893 151.926 58.6873 151.756 58.3305 151.543C57.9738 151.332 57.5623 151.077 57.127 150.797C57.0178 150.727 56.9077 150.655 56.7964 150.582C56.6846 150.509 56.572 150.435 56.4594 150.359C56.2327 150.209 56.0055 150.052 55.7775 149.896C55.551 149.738 55.3241 149.581 55.1033 149.423C55.079 149.406 55.0554 149.388 55.0312 149.37C55.54 150.391 57.0174 153.13 58.7656 154.336C62.7331 157.074 61.8187 155.257 62.5027 154.265C63.1867 153.273 65.21 153.483 61.2426 150.745C59.4944 149.538 56.4105 149.129 55.2764 149.016C55.3014 149.032 55.3258 149.047 55.3507 149.064Z" fill="white"/>
<path d="M54.4757 149.579C54.5063 149.786 54.5315 149.994 54.5574 150.202C54.5801 150.41 54.6036 150.619 54.6206 150.822C54.6302 150.923 54.6385 151.024 54.6453 151.124C54.6523 151.222 54.6601 151.32 54.6651 151.417C54.688 151.801 54.6966 152.157 54.6944 152.46C54.6927 152.763 54.68 153.012 54.666 153.185C54.6599 153.273 54.6509 153.34 54.6464 153.386C54.6408 153.432 54.6375 153.456 54.6375 153.456C54.6375 153.456 54.6284 153.429 54.6112 153.378C54.5956 153.327 54.57 153.251 54.5426 153.155C54.4864 152.965 54.4133 152.694 54.3388 152.373C54.2641 152.051 54.1881 151.679 54.1206 151.283C54.1027 151.184 54.0873 151.084 54.0712 150.982C54.0547 150.881 54.0392 150.779 54.0251 150.675C53.9944 150.469 53.9697 150.26 53.944 150.052C53.9215 149.845 53.8981 149.636 53.8813 149.433C53.8791 149.411 53.8781 149.389 53.8759 149.367C53.2112 149.935 51.5215 151.549 51.7076 153.15C52.1299 156.783 53.3073 155.765 54.9528 156.169C56.5984 156.573 58.0884 158.245 57.6663 154.612C57.4801 153.011 55.3052 150.448 54.4654 149.512C54.4687 149.534 54.4727 149.557 54.4757 149.579Z" fill="white"/>
<path d="M53.1803 148.951C52.9843 149.008 52.7819 149.06 52.5797 149.113C52.3757 149.162 52.1725 149.213 51.9685 149.258C51.8673 149.281 51.766 149.303 51.6653 149.324C51.5647 149.345 51.4656 149.366 51.3667 149.385C50.973 149.461 50.598 149.523 50.271 149.567C49.9441 149.611 49.6652 149.639 49.4671 149.655C49.3684 149.663 49.2885 149.665 49.2352 149.669C49.1808 149.672 49.152 149.672 49.152 149.672C49.152 149.672 49.1736 149.661 49.2146 149.639C49.2562 149.619 49.3159 149.586 49.3949 149.55C49.5521 149.475 49.7808 149.375 50.0633 149.266C50.3453 149.156 50.6808 149.038 51.0486 148.923C51.1399 148.893 51.2346 148.866 51.3297 148.837C51.4248 148.808 51.522 148.78 51.6205 148.753C51.8164 148.696 52.0191 148.645 52.2213 148.592C52.4253 148.543 52.629 148.492 52.8326 148.447C52.855 148.442 52.8773 148.438 52.8997 148.433C51.7261 147.98 48.5591 146.856 46.9969 147.25C43.4517 148.145 45.5436 148.945 46.5051 150.341C47.4667 151.736 46.9334 153.199 50.4786 152.304C52.0409 151.91 52.9496 149.756 53.2444 148.933C53.2225 148.939 53.2019 148.945 53.1803 148.951Z" fill="white"/>
<path d="M52.756 147.802C52.5297 147.652 52.302 147.496 52.074 147.339C51.8475 147.182 51.6205 147.025 51.3997 146.866C51.2887 146.788 51.1793 146.709 51.0716 146.631C50.9639 146.552 50.8572 146.475 50.7534 146.398C50.3368 146.09 49.9531 145.796 49.6282 145.537C49.3033 145.278 49.0371 145.057 48.8527 144.899C48.7604 144.82 48.6895 144.756 48.6402 144.713C48.5918 144.669 48.5659 144.646 48.5659 144.646C48.5659 144.646 48.5969 144.661 48.655 144.691C48.7124 144.722 48.7978 144.766 48.9041 144.824C49.1175 144.94 49.4195 145.111 49.7762 145.323C50.133 145.534 50.5445 145.789 50.9798 146.069C51.0889 146.139 51.199 146.211 51.3104 146.285C51.4222 146.357 51.5347 146.431 51.6473 146.507C51.8739 146.657 52.1012 146.814 52.3292 146.97C52.5558 147.128 52.7826 147.286 53.0034 147.444C53.0278 147.461 53.0513 147.478 53.0755 147.496C52.5667 146.475 51.0893 143.736 49.3411 142.53C45.3736 139.792 46.288 141.609 45.604 142.601C44.92 143.593 42.8967 143.383 46.8642 146.121C48.6124 147.328 51.6962 147.737 52.8304 147.851C52.8053 147.835 52.781 147.819 52.756 147.802Z" fill="white"/>
<path d="M111.066 164.624C110.778 163.831 110.689 163.062 109.811 162.776C109.208 162.579 107.511 162.008 106.511 161.671C106.488 161.578 106.454 161.483 106.414 161.385L108.645 161.302C108.645 161.302 110.163 161.149 109.457 160.399C108.757 159.651 108.03 159.015 108.03 159.015C108.03 159.015 107.261 158.09 106.49 158.926C106.027 159.43 105.691 159.837 105.497 160.081C105.469 160.052 105.439 160.021 105.411 159.992C105.396 159.978 105.377 159.966 105.362 159.951L105.589 158.486C105.589 158.486 106.183 157.627 105.367 157.122C104.554 156.616 103.716 156.131 103.213 156.243C102.706 156.352 101.696 156.439 102.245 157.232L103.351 159.443C103.226 159.474 103.107 159.515 102.994 159.564L100.66 157.121C100.66 157.121 99.1444 155.823 97.5156 157.121C97.5156 157.121 96.1727 158.44 97.3621 159.123C98.0786 159.318 100.85 160.199 102.248 160.644C102.244 160.729 102.249 160.816 102.26 160.905H97.6691C97.6691 160.905 95.5789 160.773 95.293 163.127C95.3168 163.677 95.1183 164.536 96.4577 165.635C97.2518 166.032 98.1509 166.911 99.7356 165.966C100.509 165.143 102.369 163.306 103.267 162.426C103.31 162.455 103.358 162.481 103.408 162.504C103.468 162.533 103.524 162.555 103.582 162.582L102.752 165.547C102.752 165.547 101.628 168.121 102.641 168.782C103.125 169.177 103.651 170.058 105.256 169.97C105.256 169.97 106.446 170.147 107.302 168.98C107.302 168.98 108.469 168.233 107.678 166.89C107.106 165.924 106.073 163.982 105.535 162.966C105.625 162.949 105.713 162.925 105.796 162.896L108.556 165.547C108.556 165.547 109.569 166.692 110.559 165.944C110.559 165.944 111.351 165.416 111.066 164.624Z" fill="white"/>
<path d="M44.9187 105.329C44.0647 106.072 43.1439 106.555 43.2103 107.793C43.2552 108.644 43.3583 111.046 43.4183 112.462C43.3138 112.536 43.2113 112.624 43.1076 112.72L41.9269 109.966C41.9269 109.966 41.0026 108.137 40.4049 109.384C39.8063 110.622 39.3593 111.84 39.3593 111.84C39.3593 111.84 38.572 113.25 39.9914 113.813C40.8456 114.15 41.5175 114.375 41.9175 114.5C41.8945 114.549 41.8703 114.6 41.8476 114.65C41.8366 114.676 41.8307 114.705 41.8193 114.731L39.8754 115.154C39.8754 115.154 38.5135 114.825 38.2741 116.091C38.0331 117.353 37.831 118.638 38.2126 119.215C38.5946 119.796 39.1906 121.02 39.9181 119.95L42.1539 117.497C42.2527 117.638 42.3629 117.768 42.4775 117.886L40.5437 121.989C40.5437 121.989 39.651 124.515 42.0615 125.931C42.0615 125.931 44.3626 126.977 44.6425 125.157C44.5414 124.164 44.3079 120.265 44.1912 118.299C44.2988 118.263 44.4049 118.215 44.5111 118.159L46.7263 123.911C46.7263 123.911 47.5706 126.594 50.6558 125.817C51.3339 125.522 52.5045 125.357 53.2344 123.147C53.3486 121.961 54.0157 120.41 52.0671 118.879C50.6639 118.306 47.4654 116.863 45.9306 116.163C45.9445 116.095 45.9556 116.022 45.9597 115.948C45.9672 115.859 45.9679 115.779 45.9731 115.693L50.0879 115.303C50.0879 115.303 53.8532 115.468 54.1922 113.88C54.4529 113.083 55.3019 111.998 54.4178 110.029C54.4178 110.029 54.0653 108.453 52.1907 107.944C52.1907 107.944 50.6926 106.842 49.3921 108.482C48.458 109.664 46.5239 111.897 45.5116 113.06C45.4466 112.956 45.375 112.857 45.2978 112.767L47.2867 108.029C47.2867 108.029 48.2315 106.207 46.8166 105.327C46.8166 105.327 45.7731 104.59 44.9187 105.329Z" fill="white"/>
<path d="M71.6425 122.378C71.5152 123.503 71.1626 124.482 72.0482 125.349C72.6563 125.946 74.3552 127.647 75.3558 128.65C75.3288 128.775 75.3129 128.909 75.3018 129.05L72.5703 127.818C72.5703 127.818 70.6531 127.095 71.0555 128.418C71.451 129.736 71.9445 130.936 71.9445 130.936C71.9445 130.936 72.3165 132.507 73.7433 131.962C74.6005 131.633 75.248 131.345 75.6268 131.166C75.6429 131.218 75.6601 131.273 75.6768 131.324C75.6865 131.351 75.7018 131.376 75.7107 131.403L74.5636 133.029C74.5636 133.029 73.3373 133.707 74.0167 134.802C74.6916 135.895 75.4109 136.979 76.0818 137.146C76.7565 137.316 78.0221 137.815 77.8355 136.535L77.8263 133.215C77.9943 133.252 78.1631 133.274 78.3274 133.283L79.6745 137.614C79.6745 137.614 80.7232 140.08 83.4561 139.494C83.4561 139.494 85.8588 138.709 84.8353 137.178C84.0904 136.515 81.2842 133.8 79.87 132.43C79.9248 132.33 79.9701 132.222 80.0105 132.109L85.5297 134.852C85.5297 134.852 87.965 136.258 89.7138 133.599C90.0138 132.923 90.7647 132.01 89.81 129.888C89.0927 128.936 88.5359 127.342 86.0662 127.532C84.6456 128.059 81.3121 129.157 79.7079 129.679C79.6726 129.62 79.6317 129.559 79.5846 129.5C79.53 129.43 79.4758 129.37 79.422 129.304L82.1911 126.234C82.1911 126.234 85.078 123.81 84.2548 122.41C83.9087 121.648 83.8009 120.273 81.819 119.42C81.819 119.42 80.4944 118.497 78.7684 119.388C78.7684 119.388 76.92 119.589 77.0695 121.677C77.1798 123.18 77.2629 126.133 77.3029 127.675C77.1844 127.642 77.0652 127.618 76.9475 127.604L75.212 122.767C75.212 122.767 74.6771 120.785 73.0403 121.094C73.0403 121.094 71.7723 121.255 71.6425 122.378Z" fill="white"/>
</g>
</svg>
