<svg width="320" height="171" viewBox="0 0 320 171" fill="none" xmlns="http://www.w3.org/2000/svg">
<g clip-path="url(#clip0_7075_27002)">
<path d="M60.0009 172C85.9568 172 107 169.762 107 167C107 164.239 85.9568 162 60.0009 162C34.0432 162 13 164.239 13 167C13 169.762 34.0432 172 60.0009 172Z" fill="#D2D2D2"/>
<path d="M12 148.531C18.6277 148.531 24 143.83 24 138.031C24 132.232 18.6277 127.531 12 127.531C5.3728 127.531 0 132.232 0 138.031C0 143.83 5.3728 148.531 12 148.531Z" fill="#C4B8FF"/>
<path d="M9.38132 130.64C12.7107 105.028 40.5691 92.4603 59.6783 92.5316C78.788 92.6027 108.386 105.948 110.778 131.018C112.738 169.885 102.206 170.549 59.4365 170.531C16.6675 170.512 6.79924 166.815 9.38132 130.64Z" fill="#88123B"/>
<path d="M124.5 92.5312C130.299 92.5312 135 87.83 135 82.0312C135 76.2325 130.299 71.5312 124.5 71.5312C118.701 71.5312 114 76.2325 114 82.0312C114 87.83 118.701 92.5312 124.5 92.5312Z" fill="#C4B8FF"/>
<path d="M164.351 38.0987C164.919 37.4615 165.977 37.3431 166.714 37.8344L171.344 40.9202C172.081 41.4115 172.218 42.3265 171.649 42.9638C171.081 43.6011 170.023 43.7194 169.286 43.2281L164.656 40.1423C163.919 39.651 163.782 38.736 164.351 38.0987Z" fill="#FCEE21"/>
<path d="M198.491 0.111729C199.395 -0.209764 200.38 0.186197 200.691 0.996058L202.088 4.63507C202.399 5.44493 201.919 6.36211 201.015 6.68367C200.111 7.00523 199.127 6.60923 198.815 5.79934L197.418 2.16033C197.107 1.35046 197.587 0.433293 198.491 0.111729Z" fill="#FCEE21"/>
<path d="M257.27 4.45347C258.103 4.92912 258.445 5.93394 258.034 6.69779L256.186 10.1301C255.774 10.8939 254.766 11.1275 253.933 10.6519C253.1 10.1763 252.758 9.1715 253.169 8.40761L255.017 4.97523C255.428 4.21143 256.437 3.97787 257.27 4.45347Z" fill="#FCEE21"/>
<path d="M219.658 104.532C204.515 104.532 192.24 102.993 192.24 101.094C192.24 99.1954 204.515 97.6562 219.658 97.6562C234.801 97.6562 247.077 99.1954 247.077 101.094C247.077 102.993 234.801 104.532 219.658 104.532Z" fill="#D2D2D2"/>
<path d="M284.094 104.532C299.236 104.532 311.512 102.993 311.512 101.094C311.512 99.1954 299.236 97.6562 284.094 97.6562C268.951 97.6562 256.675 99.1954 256.675 101.094C256.675 102.993 268.951 104.532 284.094 104.532Z" fill="#D2D2D2"/>
<path d="M194.34 71.2363C219.24 81.1905 236.56 74.9361 244.942 70.0625C247.831 73.1214 249.887 76.884 250.497 81.3566C251.976 101.494 246.061 103.531 220.456 103.453C194.851 103.374 188.548 102.982 189.793 81.3566C190.207 77.4639 191.885 74.0851 194.34 71.2363Z" fill="#4879BA"/>
<path d="M194.34 71.2363C200.683 63.8724 212.208 60.043 220.457 60.043C228.31 60.043 238.619 63.3652 244.943 70.0614C236.56 74.9367 219.24 81.1905 194.34 71.2363Z" fill="#4879BA"/>
<path d="M220.452 59.75C216.395 59.75 211.565 60.6756 206.979 62.4793C202.394 64.2824 198 66.9841 194.86 70.5763L194.146 71.3933L195.16 71.7926C219.257 81.2855 236.088 75.3313 244.284 70.6348L245.135 70.1473L244.458 69.4413C238.226 62.9391 228.134 59.75 220.452 59.75ZM220.452 61.2858C227.52 61.2858 236.705 64.1303 242.628 69.7949C234.593 74.1406 218.961 79.1642 196.781 70.7701C199.652 67.8084 203.489 65.504 207.55 63.9067C211.974 62.1667 216.611 61.2858 220.452 61.2858Z" fill="white"/>
<path d="M177.129 73.0407C174.296 73.0407 172 70.7318 172 67.8836C172 65.0354 174.296 62.7266 177.129 62.7266C179.961 62.7266 182.257 65.0354 182.257 67.8836C182.257 70.7318 179.961 73.0407 177.129 73.0407Z" fill="#F88B27"/>
<path d="M239.478 71.8567V71.86C239.478 71.8627 239.477 71.8663 239.477 71.8707C239.476 71.8793 239.474 71.8912 239.473 71.9064C239.47 71.9368 239.467 71.9803 239.463 72.0357C239.454 72.1464 239.444 72.3054 239.435 72.5052C239.418 72.9045 239.407 73.4691 239.432 74.14C239.483 75.475 239.679 77.265 240.273 79.0203C240.867 80.7774 241.879 82.5485 243.589 83.7626C245.31 84.9843 247.643 85.5734 250.748 85.1462L250.54 83.4794C247.737 83.8651 245.818 83.315 244.487 82.3703C243.146 81.418 242.304 79.9954 241.783 78.4575C241.262 76.9178 241.081 75.3111 241.034 74.0731C241.01 73.4577 241.021 72.9416 241.036 72.582C241.044 72.4024 241.053 72.2621 241.06 72.1687C241.064 72.1219 241.067 72.0868 241.069 72.0644C241.07 72.0533 241.071 72.0454 241.071 72.0406V72.0357C241.071 72.0357 241.032 72.0317 240.275 71.9454C239.513 71.8586 239.48 71.8552 239.478 71.8555V71.8567Z" fill="white"/>
<path d="M198.899 72.7427L198.092 72.8186C198.092 72.8182 198.092 72.8187 198.092 72.8186C198.092 72.8196 198.092 72.8222 198.092 72.8248C198.093 72.8301 198.093 72.8387 198.094 72.8506C198.096 72.8745 198.098 72.9116 198.102 72.9606C198.108 73.0588 198.116 73.2058 198.123 73.3935C198.137 73.769 198.146 74.307 198.125 74.9485C198.084 76.2383 197.923 77.9159 197.459 79.5249C196.993 81.1406 196.244 82.6116 195.077 83.584C193.937 84.5334 192.305 85.0863 189.893 84.6967L189.643 86.3576C192.434 86.8083 194.545 86.1837 196.093 84.8937C197.614 83.6266 198.497 81.7963 199.013 80.0058C199.531 78.2087 199.702 76.3746 199.747 75.0047C199.769 74.3165 199.759 73.7375 199.744 73.3286C199.737 73.1241 199.727 72.9614 199.72 72.8486C199.716 72.7923 199.713 72.7484 199.711 72.7177C199.71 72.7023 199.709 72.6902 199.708 72.6816C199.708 72.6773 199.708 72.6739 199.707 72.6713C199.707 72.6701 199.707 72.6689 199.707 72.6681C199.707 72.6676 199.707 72.6663 198.899 72.7427Z" fill="white"/>
<path d="M197.893 55.2425L197.725 46.4347C197.698 45.0769 198.704 43.9409 200.019 43.7774C200.688 42.2087 201.911 39.8052 203.894 37.4291C206.944 33.7756 212.424 29.5374 221.218 30.0875C229.97 30.6355 235.078 34.8103 237.821 38.217C240.795 41.91 241.685 45.4444 241.721 45.5933L240.207 45.9666C240.199 45.9329 239.344 42.5724 236.566 39.1472C232.863 34.5817 227.666 32.059 221.121 31.6492C214.603 31.2414 209.221 33.5109 205.125 38.3926C203.514 40.3119 202.427 42.2808 201.754 43.7322L201.912 43.729C203.359 43.7016 204.555 44.857 204.583 46.3088L204.751 55.1167C204.779 56.5684 203.627 57.7663 202.179 57.7939L200.564 57.824C199.116 57.8483 197.919 56.6929 197.893 55.2425Z" fill="#895623"/>
<path d="M95 85.1824C95 106.996 79.0235 112.531 60.1585 112.531C41.2933 112.531 26 106.671 26 85.1824C26 69.179 41.2933 56.5312 60.1585 56.5312C79.0235 56.5312 95 69.179 95 85.1824Z" fill="#C4B8FF"/>
<path d="M199.046 51.811C199.22 65.91 209.139 69.3781 220.799 69.2475C232.459 69.1169 241.866 65.223 241.694 51.3348C241.567 40.9906 232.012 32.9217 220.352 33.0523C208.692 33.1814 198.918 41.4669 199.046 51.811Z" fill="#F88B27"/>
<path d="M251.129 91.8452C248.296 91.8452 246 89.5364 246 86.6882C246 83.84 248.296 81.5312 251.129 81.5312C253.961 81.5312 256.257 83.84 256.257 86.6882C256.257 89.5364 253.961 91.8452 251.129 91.8452Z" fill="#F88B27"/>
<path fill-rule="evenodd" clip-rule="evenodd" d="M210.928 50.6325C211.388 50.7837 211.733 51.1494 212.112 51.5538C212.345 51.8028 212.735 51.8149 212.982 51.5809C213.229 51.3469 213.241 50.9553 213.008 50.7063C212.991 50.6883 212.973 50.6697 212.955 50.6504C212.617 50.2871 212.078 49.7092 211.308 49.4563C210.438 49.1705 209.417 49.3302 208.209 50.1744C207.931 50.3693 207.862 50.7549 208.056 51.0356C208.251 51.3163 208.634 51.3858 208.913 51.1909C209.905 50.4981 210.526 50.5007 210.928 50.6325ZM220.636 50.3038C221.116 50.385 221.519 50.7004 221.959 51.0491C222.227 51.2606 222.614 51.2145 222.824 50.9461C223.033 50.6777 222.987 50.2886 222.72 50.0771C222.7 50.0616 222.68 50.0455 222.659 50.0289C222.265 49.7161 221.64 49.2191 220.838 49.0834C219.929 48.9296 218.942 49.2494 217.884 50.2856C217.64 50.5238 217.635 50.9156 217.873 51.1606C218.11 51.4056 218.5 51.4111 218.743 51.1729C219.609 50.3249 220.221 50.2336 220.636 50.3038Z" fill="white"/>
<path d="M240.055 58.4244L241.661 58.3952C243.1 58.3686 244.243 57.1719 244.216 55.7207L244.044 46.9164C244.015 45.4653 242.826 44.3111 241.387 44.3363L239.781 44.3655C238.342 44.3921 237.199 45.5887 237.227 47.04L237.398 55.8442C237.426 57.2955 238.616 58.451 240.055 58.4244Z" fill="#895623"/>
<path d="M255.233 82.5694C257.071 69.1068 272.812 62.4492 283.623 62.4492C294.436 62.4492 311.205 69.4017 312.604 82.5694C313.78 102.985 307.823 103.355 283.623 103.429C259.426 103.503 253.836 101.58 255.233 82.5694Z" fill="#F4DA00"/>
<path d="M250.128 66.8452C252.96 66.8452 255.256 64.5365 255.256 61.6883C255.256 58.8401 252.96 56.5312 250.128 56.5312C247.296 56.5312 245 58.8401 245 61.6883C245 64.5365 247.296 66.8452 250.128 66.8452Z" fill="#EC4699"/>
<path d="M314.128 93.9828C316.96 93.9828 319.256 91.6431 319.256 88.757C319.256 85.8708 316.96 83.5312 314.128 83.5312C311.296 83.5312 309 85.8708 309 88.757C309 91.6431 311.296 93.9828 314.128 93.9828Z" fill="#EC4699"/>
<path d="M267.512 66.0165C267.512 63.9915 269.988 62.5275 271.911 63.1311C276.083 64.4414 283.277 65.4994 293.718 62.9904C295.313 62.607 296.894 63.7916 296.894 65.4412V68.3205C296.894 69.3258 296.293 70.2256 295.339 70.5269C291.345 71.7889 280.242 74.455 268.923 69.6267C268.052 69.255 267.512 68.3796 267.512 67.4277V66.0165Z" fill="#FEF4D4"/>
<path d="M261.045 49.9132C259.81 63.9591 269.333 68.4002 280.949 69.4345C292.563 70.4688 302.312 67.5337 303.528 53.6977C304.433 43.3925 295.732 34.4099 284.117 33.3756C272.503 32.3397 261.948 39.608 261.045 49.9132Z" fill="#EC4699"/>
<path fill-rule="evenodd" clip-rule="evenodd" d="M306.305 37.2148C307.203 37.2179 307.804 38.148 307.437 38.9751L302.967 49.0564C302.565 49.963 301.322 50.06 300.784 49.2267L295.776 41.4511C295.77 41.4481 295.765 41.4465 295.759 41.4434L292.794 40.1538L284.868 41.9905C283.905 42.2141 283.08 41.2746 283.419 40.3429L287.54 29.0281C287.879 28.0964 289.112 27.9135 289.706 28.7077L295.804 36.8881L296.487 37.1851L306.305 37.2148Z" fill="#A00F2C"/>
<path d="M312.47 91.1399C310.267 92.6418 309.548 96.6899 307.998 96.8157C305.842 96.9908 306.61 92.3003 301.929 92.1557C297.248 92.011 298.524 96.496 295.403 96.7853C292.283 97.0746 293.843 90.5641 289.69 90.9331C285.537 91.3021 286.324 96.2066 282.957 96.373C279.589 96.5394 280.934 90.7088 277.955 90.9404C274.977 91.1718 273.557 97.2193 271.714 96.93C269.869 96.6406 270.296 90.9981 267.235 90.9345C264.176 90.8709 264.905 96.6406 262.067 96.6406C259.231 96.6406 261.642 90.7088 257.962 90.9404C257.065 90.9968 256.214 91.4698 255.444 92.1513C257.005 102.274 264.465 103.49 283.632 103.43C303.706 103.368 311.193 103.098 312.47 91.1399Z" fill="#FEF4D4"/>
<path d="M217.098 91.3969H213.698L212.175 90.5124V88.6245H214.013V89.8126H216.783V87.3439H214.485V85.7596H216.783V83.6077H214.013V84.7959H212.175V82.908L213.698 82.0234H217.098L218.621 82.908V85.8784L217.479 86.5385V86.5649L218.621 87.225V90.5124L217.098 91.3969ZM223.388 91.3309H221.458L224.99 83.7001V83.6737H222.036V84.8619H220.198V82.0894H227.09V83.2776L223.388 91.3309Z" fill="white"/>
<path d="M272.511 47.5313C271.685 47.5375 271.014 48.085 271.012 48.7546L271 52.329C270.998 52.9986 271.664 53.5372 272.489 53.5312C273.315 53.525 273.986 52.9776 273.988 52.3079L274 48.7335C274.004 48.0634 273.336 47.5253 272.511 47.5313Z" fill="white"/>
<path d="M282.511 47.5313C281.685 47.5375 281.014 48.085 281.012 48.7546L281 52.329C280.998 52.9986 281.664 53.5372 282.489 53.5312C283.315 53.525 283.986 52.9776 283.988 52.3079L284 48.7335C284.004 48.0634 283.336 47.5253 282.511 47.5313Z" fill="white"/>
<path d="M27.2315 101.531H61.7685C67.971 101.531 73 106.561 73 112.765V156.297C73 162.501 67.971 167.531 61.7685 167.531H27.2315C21.029 167.531 16 162.501 16 156.297V112.765C16 106.559 21.029 101.531 27.2315 101.531Z" fill="#9E2A4B"/>
<path d="M27 115.547C27 114.434 27.8164 113.531 28.8235 113.531C29.8306 113.531 30.6471 114.434 30.6471 115.547V147.803H54.3529V115.547C54.3529 114.434 55.1694 113.531 56.1765 113.531C57.1836 113.531 58 114.434 58 115.547V149.819C58 150.933 57.1836 151.835 56.1765 151.835H28.8235C27.8164 151.835 27 150.933 27 149.819V115.547Z" fill="#CA5878"/>
<path d="M39.7646 145.45C39.7646 145.45 39.7646 143.77 41.2842 143.77H44.3234C44.3234 143.77 45.843 143.77 45.843 145.45V153.85C45.843 153.85 45.843 155.53 44.3234 155.53H41.2842C41.2842 155.53 39.7646 155.53 39.7646 153.85V145.45Z" fill="#FFAFC6"/>
</g>
<defs>
<clipPath id="clip0_7075_27002">
<rect width="320" height="171" fill="white"/>
</clipPath>
</defs>
</svg>
