<svg width="126" height="158" viewBox="0 0 126 158" fill="none" xmlns="http://www.w3.org/2000/svg">
<g clip-path="url(#clip0_6131_54131)">
<path d="M17.0689 99.4914C25.8168 75.2356 57.8433 69.1338 78.0376 73.4299C98.2324 77.726 126.81 97.2945 124.224 122.287C118.364 160.646 107.09 158.965 61.8636 149.488C16.6372 140.01 6.95564 134.219 17.0689 99.4914Z" fill="#88123B"/>
<path d="M70.113 97.3413L73.8249 87.6563C74.2127 86.642 75.35 86.136 76.3637 86.5263L96.0333 94.0708C97.0479 94.4592 97.5552 95.5967 97.1649 96.6096L93.5293 106.099C93.0192 107.427 91.3092 107.79 90.3026 106.784L84.2598 100.728C83.8964 100.363 83.4074 100.157 82.8907 100.15L71.9231 100.011C70.5564 99.9925 69.6217 98.6185 70.113 97.3413Z" fill="white"/>
<path d="M125.128 69.6241C120.523 94.4616 101.834 97.5102 81.1426 93.6697C60.4504 89.8293 44.9178 80.0446 49.4513 55.5795C52.8307 37.3615 72.2723 26.0724 92.9641 29.9129C113.653 33.7528 128.506 51.4029 125.128 69.6241Z" fill="#C4B8FF"/>
<path d="M107.233 55.8603C105.754 55.3961 104.175 56.2158 103.711 57.697L101.435 64.9279C100.97 66.4058 101.79 67.9839 103.272 68.4476C104.751 68.9112 106.33 68.0921 106.794 66.6108L109.07 59.38C109.535 57.9016 108.713 56.3244 107.233 55.8603Z" fill="white"/>
<path d="M88.5715 52.7493C87.1573 52.3346 85.6735 53.1429 85.2579 54.556L83.0407 62.0995C82.6251 63.5126 83.4337 64.9957 84.8479 65.411C86.2622 65.8257 87.746 65.0174 88.1616 63.6043L90.3788 56.0607C90.7967 54.6472 89.9857 53.1646 88.5715 52.7493Z" fill="white"/>
<path d="M78.0448 0H0V158H78.0448V0Z" fill="#F3F4F6"/>
<path d="M76.8694 132.606C82.7119 132.606 87.4477 127.869 87.4477 122.026C87.4477 116.182 82.7119 111.445 76.8694 111.445C71.0273 111.445 66.291 116.182 66.291 122.026C66.291 127.869 71.0273 132.606 76.8694 132.606Z" fill="#C4B8FF"/>
</g>
<defs>
<clipPath id="clip0_6131_54131">
<rect width="126" height="158" fill="white"/>
</clipPath>
</defs>
</svg>
