<svg width="17" height="18" viewBox="0 0 17 18" fill="none" xmlns="http://www.w3.org/2000/svg">
<path d="M1.50142 1.59091V4.5H0.886364V2.17472H0.869318L0.203125 2.59233V2.04688L0.923295 1.59091H1.50142Z" fill="#9CA3AF"/>
<path d="M6 3H16" stroke="#9CA3AF" stroke-width="1.5" stroke-linecap="round"/>
<path d="M0.235795 10.5V10.0568L1.27131 9.09801C1.35938 9.01278 1.43324 8.93608 1.4929 8.8679C1.5535 8.79972 1.59943 8.73295 1.63068 8.66761C1.66193 8.60133 1.67756 8.52983 1.67756 8.45312C1.67756 8.3679 1.65814 8.29451 1.61932 8.23295C1.58049 8.17045 1.52746 8.12263 1.46023 8.08949C1.39299 8.0554 1.31676 8.03835 1.23153 8.03835C1.14252 8.03835 1.06487 8.05634 0.99858 8.09233C0.932292 8.12831 0.881155 8.17992 0.84517 8.24716C0.809186 8.31439 0.791193 8.39441 0.791193 8.48722H0.207386C0.207386 8.29687 0.250473 8.13163 0.336648 7.99148C0.422822 7.85133 0.543561 7.7429 0.698864 7.66619C0.854167 7.58949 1.03314 7.55114 1.2358 7.55114C1.44413 7.55114 1.62547 7.58807 1.77983 7.66193C1.93513 7.73485 2.05587 7.83617 2.14205 7.96591C2.22822 8.09564 2.27131 8.24432 2.27131 8.41193C2.27131 8.52178 2.24953 8.63021 2.20597 8.73722C2.16335 8.84422 2.08712 8.96307 1.97727 9.09375C1.86742 9.22348 1.71259 9.37926 1.51278 9.56108L1.08807 9.97727V9.99716H2.30966V10.5H0.235795Z" fill="#9CA3AF"/>
<path d="M6 9H16" stroke="#9CA3AF" stroke-width="1.5" stroke-linecap="round"/>
<path d="M1.31108 16.5398C1.09896 16.5398 0.910038 16.5033 0.744318 16.4304C0.579545 16.3565 0.449337 16.2552 0.353693 16.1264C0.258996 15.9967 0.210227 15.8471 0.207386 15.6776H0.826705C0.830492 15.7486 0.853693 15.8111 0.896307 15.8651C0.939867 15.9181 0.997633 15.9593 1.0696 15.9886C1.14157 16.018 1.22254 16.0327 1.3125 16.0327C1.40625 16.0327 1.48911 16.0161 1.56108 15.983C1.63305 15.9498 1.68939 15.9039 1.73011 15.8452C1.77083 15.7865 1.79119 15.7187 1.79119 15.642C1.79119 15.5644 1.76941 15.4957 1.72585 15.4361C1.68324 15.3755 1.62169 15.3281 1.54119 15.294C1.46165 15.2599 1.36695 15.2429 1.2571 15.2429H0.985795V14.7912H1.2571C1.34991 14.7912 1.43182 14.7751 1.50284 14.7429C1.57481 14.7107 1.63068 14.6662 1.67045 14.6094C1.71023 14.5516 1.73011 14.4844 1.73011 14.4077C1.73011 14.3348 1.71259 14.2708 1.67756 14.2159C1.64347 14.16 1.59517 14.1165 1.53267 14.0852C1.47112 14.054 1.39915 14.0384 1.31676 14.0384C1.23343 14.0384 1.1572 14.0535 1.08807 14.0838C1.01894 14.1132 0.963542 14.1553 0.921875 14.2102C0.880208 14.2652 0.857955 14.3295 0.855114 14.4034H0.265625C0.268466 14.2358 0.316288 14.0881 0.409091 13.9602C0.501894 13.8324 0.626894 13.7325 0.784091 13.6605C0.942235 13.5876 1.12074 13.5511 1.3196 13.5511C1.52036 13.5511 1.69602 13.5876 1.84659 13.6605C1.99716 13.7334 2.11411 13.8319 2.19744 13.956C2.28172 14.0791 2.32339 14.2173 2.32244 14.3707C2.32339 14.5336 2.27273 14.6695 2.17045 14.7784C2.06913 14.8873 1.93703 14.9564 1.77415 14.9858V15.0085C1.98816 15.036 2.15104 15.1103 2.26278 15.2315C2.37547 15.3518 2.43134 15.5024 2.4304 15.6832C2.43134 15.849 2.38352 15.9962 2.28693 16.125C2.19129 16.2538 2.05919 16.3551 1.89062 16.429C1.72206 16.5028 1.52888 16.5398 1.31108 16.5398Z" fill="#9CA3AF"/>
<path d="M6 15H16" stroke="#9CA3AF" stroke-width="1.5" stroke-linecap="round"/>
</svg>
