<svg width="10" height="10" viewBox="0 0 10 10" fill="none" xmlns="http://www.w3.org/2000/svg">
<path d="M4.82669 0.989984C4.93166 0.920005 5.06841 0.920005 5.17338 0.989984L8.92338 3.48998C9.06698 3.58572 9.10578 3.77974 9.01005 3.92334C8.91431 4.06695 8.72029 4.10575 8.57669 4.01002L5.00003 1.62558L1.42338 4.01002C1.27977 4.10575 1.08575 4.06695 0.990017 3.92334C0.894282 3.77974 0.933087 3.58572 1.07669 3.48998L4.82669 0.989984Z" fill="#A544FF"/>
<path fill-rule="evenodd" clip-rule="evenodd" d="M8.4375 4.30521V8.4375H8.75C8.92259 8.4375 9.0625 8.57741 9.0625 8.75C9.0625 8.92259 8.92259 9.0625 8.75 9.0625H1.25C1.07741 9.0625 0.9375 8.92259 0.9375 8.75C0.9375 8.57741 1.07741 8.4375 1.25 8.4375H1.5625V4.30521C1.5625 4.15132 1.67453 4.02034 1.82656 3.99649C2.86074 3.83421 3.92064 3.75 5 3.75C6.07936 3.75 7.13926 3.83421 8.17344 3.99649C8.32547 4.02034 8.4375 4.15132 8.4375 4.30521ZM5.3125 5.3125C5.3125 5.13991 5.17259 5 5 5C4.82741 5 4.6875 5.13991 4.6875 5.3125V8.125C4.6875 8.29759 4.82741 8.4375 5 8.4375C5.17259 8.4375 5.3125 8.29759 5.3125 8.125V5.3125ZM6.5625 5C6.73509 5 6.875 5.13991 6.875 5.3125V8.125C6.875 8.29759 6.73509 8.4375 6.5625 8.4375C6.38991 8.4375 6.25 8.29759 6.25 8.125V5.3125C6.25 5.13991 6.38991 5 6.5625 5ZM3.75 5.3125C3.75 5.13991 3.61009 5 3.4375 5C3.26491 5 3.125 5.13991 3.125 5.3125V8.125C3.125 8.29759 3.26491 8.4375 3.4375 8.4375C3.61009 8.4375 3.75 8.29759 3.75 8.125V5.3125Z" fill="#A544FF"/>
<path d="M5 3.28125C5.25888 3.28125 5.46875 3.07138 5.46875 2.8125C5.46875 2.55362 5.25888 2.34375 5 2.34375C4.74112 2.34375 4.53125 2.55362 4.53125 2.8125C4.53125 3.07138 4.74112 3.28125 5 3.28125Z" fill="#A544FF"/>
</svg>
