<svg width="392" height="152" viewBox="0 0 392 152" fill="none" xmlns="http://www.w3.org/2000/svg">
<g clip-path="url(#clip0_5633_30511)">
<path opacity="0.35" d="M81.5699 152.001C110.109 152.001 133.244 149.112 133.244 145.549C133.244 141.986 110.109 139.098 81.5699 139.098C53.0312 139.098 29.896 141.986 29.896 145.549C29.896 149.112 53.0312 152.001 81.5699 152.001Z" fill="#464A60"/>
<path opacity="0.35" d="M318.677 152.001C347.215 152.001 370.351 149.112 370.351 145.549C370.351 141.986 347.215 139.098 318.677 139.098C290.139 139.098 267.003 141.986 267.003 145.549C267.003 149.112 290.139 152.001 318.677 152.001Z" fill="#464A60"/>
<path d="M129.285 89.5229C82.3574 108.202 49.7165 96.4659 33.9198 87.3203C28.4751 93.0604 24.6 100.121 23.4501 108.514C20.6632 146.303 31.8105 150.125 80.0665 149.978C128.322 149.831 140.203 149.096 137.856 108.514C137.076 101.209 133.911 94.869 129.285 89.5229Z" fill="#4879BA"/>
<path d="M129.285 89.5213C117.331 75.7027 95.6112 68.5156 80.0637 68.5156C65.2641 68.5156 45.8357 74.7499 33.917 87.3156C49.7166 96.4643 82.3577 108.201 129.285 89.5213Z" fill="#4879BA" stroke="white" stroke-width="4" stroke-miterlimit="10"/>
<path d="M161.722 92.9017C167.06 92.9017 171.387 88.5691 171.387 83.2243C171.387 77.8795 167.06 73.5469 161.722 73.5469C156.385 73.5469 152.058 77.8795 152.058 83.2243C152.058 88.5691 156.385 92.9017 161.722 92.9017Z" fill="#F88B27"/>
<path d="M9.6647 103.226C15.0024 103.226 19.3294 98.8933 19.3294 93.5485C19.3294 88.2037 15.0024 83.8711 9.6647 83.8711C4.32703 83.8711 0 88.2037 0 93.5485C0 98.8933 4.32703 103.226 9.6647 103.226Z" fill="#F88B27"/>
<path d="M42.6754 91.6133C42.6754 91.6133 45.4323 117.038 22.9375 114.084" stroke="white" stroke-width="4" stroke-miterlimit="10"/>
<path d="M120.966 93.1602C120.966 93.1602 118.567 119.452 138.141 116.397" stroke="white" stroke-width="4" stroke-miterlimit="10"/>
<path d="M168.655 91.0172L158.017 87.8541C157.036 87.5617 156.482 86.5406 156.775 85.5749L163.822 62.4637C164.118 61.4952 165.152 60.9481 166.13 61.2376L176.768 64.4005C177.749 64.6931 178.303 65.7143 178.009 66.6797L170.963 89.7912C170.667 90.7597 169.633 91.3096 168.655 91.0172Z" fill="#B7CFE9"/>
<path d="M169.595 65.7773L165.43 64.5171C165.069 64.4082 164.865 64.0245 164.973 63.6619L165.111 63.1994C165.22 62.8369 165.602 62.6312 165.963 62.7401L170.128 64.0002C170.489 64.1091 170.693 64.4929 170.585 64.8554L170.446 65.3179C170.338 65.6836 169.956 65.889 169.595 65.7773Z" fill="#4D5562"/>
<path d="M169.599 64.6985C169.641 64.5134 169.532 64.3302 169.356 64.2894C169.179 64.2484 169.001 64.3656 168.958 64.5506C168.916 64.7359 169.025 64.9191 169.201 64.9599C169.378 65.0007 169.556 64.8838 169.599 64.6985Z" fill="#CDDDE0"/>
<path d="M123.434 54.8043L122.091 38.3271C121.886 35.787 119.785 33.8543 117.289 33.7955C115.741 30.9916 112.994 26.733 108.829 22.668C102.422 16.4178 91.3483 9.53125 74.9603 12.2061C58.6517 14.8692 49.8599 23.6212 45.357 30.4961C40.4749 37.9488 39.4703 44.715 39.4321 44.9996L42.3403 45.413C42.3491 45.3485 43.3212 38.9137 47.886 31.9978C53.9694 22.7794 63.24 17.0954 75.4361 15.1039C87.5824 13.1212 98.1015 16.3504 106.702 24.6976C110.083 27.9795 112.492 31.4523 114.028 34.036L113.731 34.0595C111.011 34.2796 108.988 36.661 109.208 39.3769L110.55 55.8543C110.77 58.5702 113.156 60.5911 115.876 60.3712L118.91 60.1248C121.63 59.899 123.657 57.5173 123.434 54.8043Z" fill="#895623"/>
<path d="M120.628 48.6162C122.954 74.9741 105.007 83.3081 83.1178 85.249C61.2279 87.1899 42.8554 81.682 40.5645 55.7181C38.8571 36.3798 55.2553 19.5236 77.145 17.5828C99.0349 15.6389 118.921 29.2781 120.628 48.6162Z" fill="#F88B27"/>
<path fill-rule="evenodd" clip-rule="evenodd" d="M98.0888 48.1752C97.2761 48.5896 96.74 49.368 96.1532 50.228C95.7919 50.7576 95.0702 50.8936 94.5414 50.5318C94.0125 50.17 93.8766 49.4474 94.238 48.9179C94.264 48.8797 94.2909 48.84 94.3187 48.7991C94.8429 48.027 95.6766 46.7988 97.0363 46.1055C98.5722 45.3223 100.52 45.3209 103.015 46.5339C103.592 46.8139 103.832 47.5087 103.552 48.0857C103.273 48.6627 102.579 48.9034 102.003 48.6234C99.9542 47.6278 98.7974 47.8139 98.0888 48.1752ZM79.9176 50.3945C79.0475 50.6848 78.3908 51.3867 77.6723 52.1615C77.2365 52.6316 76.5027 52.6588 76.0333 52.2224C75.5639 51.786 75.5366 51.0513 75.9725 50.5812C76.0044 50.5468 76.0374 50.511 76.0715 50.4741C76.7123 49.7797 77.7307 48.6761 79.1841 48.1911C80.8324 47.6409 82.7634 47.9461 85.0371 49.5587C85.5598 49.9294 85.6834 50.6542 85.3131 51.1776C84.9429 51.701 84.2191 51.8247 83.6964 51.454C81.8357 50.1343 80.6701 50.1433 79.9176 50.3945Z" fill="white"/>
<path d="M44.9695 68.6423L41.9531 68.8887C39.249 69.1086 36.8808 67.0885 36.6589 64.3736L35.3244 47.9024C35.1056 45.1876 37.1174 42.8098 39.8214 42.587L42.8379 42.3406C45.5416 42.1207 47.9099 44.1409 48.1318 46.8557L49.4663 63.3269C49.6882 66.0417 47.6733 68.4224 44.9695 68.6423Z" fill="#895623"/>
<path d="M264.287 110.788C267.751 85.5244 297.415 73.0312 317.79 73.0312C338.169 73.0312 369.771 86.078 372.408 110.788C374.624 149.098 363.398 149.794 317.79 149.931C272.189 150.07 261.653 146.461 264.287 110.788Z" fill="#F4DA00"/>
<path d="M234.143 86.7103C239.481 86.7103 243.808 82.3777 243.808 77.0329C243.808 71.6881 239.481 67.3555 234.143 67.3555C228.805 67.3555 224.479 71.6881 224.479 77.0329C224.479 82.3777 228.805 86.7103 234.143 86.7103Z" fill="#EC4699"/>
<path d="M382.336 100.644C387.673 100.644 392 96.2537 392 90.8377C392 85.4217 387.673 81.0312 382.336 81.0312C376.998 81.0312 372.671 85.4217 372.671 90.8377C372.671 96.2537 376.998 100.644 382.336 100.644Z" fill="#EC4699"/>
<path d="M227.211 84.8252L237.849 81.635C238.83 81.3401 239.384 80.3101 239.09 79.3362L232.044 56.0255C231.748 55.0487 230.714 54.497 229.736 54.7891L219.098 57.9793C218.117 58.2743 217.563 59.3042 217.856 60.2781L224.903 83.5886C225.199 84.5656 226.233 85.1202 227.211 84.8252Z" fill="#E4CEF0"/>
<path d="M287.425 79.7246C287.425 75.9246 292.093 73.1775 295.716 74.3102C303.58 76.769 317.136 78.7543 336.813 74.0462C339.821 73.3267 342.8 75.5496 342.8 78.6451V84.0482C342.8 85.9347 341.666 87.6232 339.87 88.1886C332.342 90.5569 311.417 95.56 290.085 86.4993C288.443 85.8018 287.425 84.1592 287.425 82.3729V79.7246Z" fill="#FEF4D4"/>
<path d="M226.271 59.3278L230.436 58.1719C230.797 58.0723 231.001 57.7203 230.893 57.3877L230.754 56.9637C230.646 56.631 230.264 56.4426 229.903 56.5423L225.738 57.6981C225.377 57.7977 225.173 58.1497 225.281 58.4824L225.42 58.9064C225.528 59.239 225.91 59.4274 226.271 59.3278Z" fill="#4D5562"/>
<path d="M226.666 58.6398C226.843 58.599 226.952 58.4158 226.909 58.2305C226.867 58.0452 226.689 57.9283 226.512 57.969C226.335 58.0101 226.226 58.1933 226.269 58.3783C226.312 58.5636 226.49 58.6805 226.666 58.6398Z" fill="#CDDDE0"/>
<path d="M275.238 49.507C272.91 75.8647 290.858 84.1986 312.75 86.1395C334.638 88.0805 353.011 82.5726 355.303 56.6087C357.009 37.2706 340.61 20.4143 318.721 18.4734C296.833 16.5296 276.941 30.1687 275.238 49.507Z" fill="#EC4699"/>
<path fill-rule="evenodd" clip-rule="evenodd" d="M360.537 25.6769C362.23 25.6828 363.362 27.4281 362.671 28.9801L354.246 47.8981C353.488 49.5995 351.145 49.7814 350.133 48.2178L340.695 33.6266C340.682 33.6209 340.674 33.6178 340.661 33.6121L335.074 31.192L320.136 34.6387C318.322 35.0583 316.767 33.2952 317.407 31.5468L325.172 10.3142C325.811 8.5659 328.136 8.22267 329.254 9.71289L340.746 25.0638L342.035 25.6212L360.537 25.6769Z" fill="#A00F2C"/>
<path d="M372.155 126.87C368.003 129.688 366.647 137.284 363.727 137.52C359.663 137.849 361.111 129.047 352.29 128.776C343.468 128.504 345.872 136.92 339.991 137.463C334.11 138.006 337.05 125.789 329.223 126.481C321.396 127.174 322.881 136.377 316.535 136.69C310.188 137.002 312.721 126.061 307.108 126.495C301.494 126.929 298.819 138.278 295.345 137.735C291.868 137.192 292.673 126.604 286.905 126.484C281.139 126.365 282.513 137.192 277.165 137.192C271.82 137.192 276.364 126.061 269.428 126.495C267.738 126.601 266.135 127.489 264.684 128.767C267.624 147.764 281.683 150.045 317.806 149.933C355.637 149.816 369.748 149.309 372.155 126.87Z" fill="#FEF4D4"/>
<path d="M76.8435 127.351H70.4355L67.5654 125.692V122.149H71.0293V124.378H76.2497V119.746H71.92V116.773H76.2497V112.735H71.0293V114.964H67.5654V111.422L70.4355 109.762H76.8435L79.7136 111.422V116.996L77.561 118.234V118.284L79.7136 119.523V125.692L76.8435 127.351ZM88.6981 127.228H85.0611L91.7166 112.908V112.858H86.1497V115.088H82.6859V109.886H95.6753V112.115L88.6981 127.228Z" fill="white"/>
<path d="M177.011 52.2311L168.631 45.7617" stroke="#FCEE21" stroke-width="8" stroke-miterlimit="10" stroke-linecap="round"/>
<path d="M193.914 39.0871L193 31.5625" stroke="#FCEE21" stroke-width="8" stroke-miterlimit="10" stroke-linecap="round"/>
<path d="M214.465 43.9933L219.258 34.9141" stroke="#FCEE21" stroke-width="8" stroke-miterlimit="10" stroke-linecap="round"/>
<path d="M222.008 103.945L229.272 111.65" stroke="#FCEE21" stroke-width="8" stroke-miterlimit="10" stroke-linecap="round"/>
<path d="M203.257 114.273L202.982 121.848" stroke="#FCEE21" stroke-width="8" stroke-miterlimit="10" stroke-linecap="round"/>
<path d="M183.728 106.203L177.573 114.418" stroke="#FCEE21" stroke-width="8" stroke-miterlimit="10" stroke-linecap="round"/>
<path fill-rule="evenodd" clip-rule="evenodd" d="M295.736 51.2302C294.829 51.3655 294.06 51.9431 293.219 52.5816C292.708 52.969 291.981 52.8687 291.594 52.3576C291.207 51.8465 291.307 51.1181 291.818 50.7306C291.855 50.7023 291.894 50.6729 291.933 50.6425C292.685 50.0696 293.878 49.159 295.394 48.9329C297.112 48.6766 298.962 49.3115 300.922 51.2937C301.373 51.7494 301.369 52.4847 300.914 52.936C300.459 53.3873 299.725 53.3837 299.274 52.928C297.67 51.3061 296.52 51.1131 295.736 51.2302ZM314.016 52.1914C313.144 52.4588 312.482 53.1326 311.755 53.8782C311.307 54.3371 310.573 54.3459 310.115 53.8979C309.656 53.4499 309.648 52.7146 310.095 52.2557C310.128 52.2224 310.161 52.1879 310.196 52.1522C310.846 51.4825 311.879 50.4178 313.337 49.9706C314.985 49.4652 316.904 49.8012 319.153 51.4281C319.672 51.8036 319.789 52.5295 319.414 53.0494C319.039 53.5693 318.314 53.6863 317.795 53.3108C315.948 51.9753 314.777 51.9582 314.016 52.1914Z" fill="white"/>
<path d="M143.553 11.6129C143.553 5.19928 148.745 0 155.15 0H251.024C257.429 0 262.622 5.19928 262.622 11.6129C262.622 18.0265 257.429 23.2258 251.024 23.2258H155.15C148.745 23.2258 143.553 18.0265 143.553 11.6129Z" fill="#9685FF"/>
<path d="M158.795 9.81497V12.0446C158.795 12.289 158.859 12.4765 158.986 12.6072C159.113 12.7345 159.292 12.7982 159.522 12.7982C159.755 12.7982 159.936 12.7345 160.063 12.6072C160.19 12.4765 160.254 12.289 160.254 12.0446V9.81497H160.98V12.0395C160.98 12.3457 160.913 12.6055 160.779 12.8188C160.649 13.0287 160.472 13.187 160.248 13.2937C160.029 13.4003 159.783 13.4537 159.511 13.4537C159.243 13.4537 158.999 13.4003 158.779 13.2937C158.563 13.187 158.391 13.0287 158.264 12.8188C158.137 12.6055 158.073 12.3457 158.073 12.0395V9.81497H158.795ZM163.157 10.5169C163.497 10.5169 163.772 10.6253 163.982 10.8421C164.191 11.0554 164.296 11.3548 164.296 11.7401V13.4175H163.574V11.8382C163.574 11.6111 163.518 11.4373 163.404 11.3169C163.291 11.193 163.136 11.1311 162.94 11.1311C162.741 11.1311 162.583 11.193 162.466 11.3169C162.353 11.4373 162.296 11.6111 162.296 11.8382V13.4175H161.574V10.5582H162.296V10.9143C162.392 10.7904 162.514 10.6941 162.662 10.6253C162.813 10.553 162.978 10.5169 163.157 10.5169ZM165.245 10.2175C165.118 10.2175 165.011 10.178 164.926 10.0988C164.843 10.0163 164.802 9.91476 164.802 9.79432C164.802 9.67388 164.843 9.57411 164.926 9.49496C165.011 9.41238 165.118 9.37109 165.245 9.37109C165.372 9.37109 165.477 9.41238 165.56 9.49496C165.645 9.57411 165.688 9.67388 165.688 9.79432C165.688 9.91476 165.645 10.0163 165.56 10.0988C165.477 10.178 165.372 10.2175 165.245 10.2175ZM165.601 10.5582V13.4175H164.879V10.5582H165.601ZM166.932 10.9763C167.025 10.8386 167.152 10.7268 167.314 10.6408C167.479 10.5548 167.666 10.5117 167.876 10.5117C168.12 10.5117 168.339 10.5719 168.535 10.6924C168.735 10.8128 168.891 10.9848 169.004 11.2085C169.121 11.4287 169.18 11.6851 169.18 11.9775C169.18 12.27 169.121 12.5298 169.004 12.7569C168.891 12.9806 168.735 13.1543 168.535 13.2782C168.339 13.4021 168.12 13.464 167.876 13.464C167.663 13.464 167.475 13.4227 167.314 13.3401C167.156 13.2541 167.029 13.144 166.932 13.0098V13.4175H166.211V9.59819H166.932V10.9763ZM168.443 11.9775C168.443 11.8055 168.406 11.6575 168.334 11.5337C168.266 11.4064 168.173 11.31 168.056 11.2446C167.943 11.1793 167.819 11.1466 167.685 11.1466C167.554 11.1466 167.431 11.181 167.314 11.2498C167.2 11.3152 167.108 11.4115 167.035 11.5388C166.967 11.6661 166.932 11.8158 166.932 11.9879C166.932 12.1599 166.967 12.3096 167.035 12.4369C167.108 12.5642 167.2 12.6623 167.314 12.7311C167.431 12.7965 167.554 12.8292 167.685 12.8292C167.819 12.8292 167.943 12.7948 168.056 12.7259C168.173 12.6571 168.266 12.559 168.334 12.4317C168.406 12.3044 168.443 12.153 168.443 11.9775ZM172.297 10.5582V13.4175H171.57V13.0563C171.477 13.1801 171.355 13.2782 171.204 13.3504C171.056 13.4193 170.895 13.4537 170.72 13.4537C170.496 13.4537 170.299 13.4072 170.127 13.3143C169.955 13.218 169.819 13.0786 169.72 12.8963C169.623 12.7104 169.575 12.4902 169.575 12.2356V10.5582H170.297V12.1324C170.297 12.3595 170.354 12.535 170.467 12.6588C170.58 12.7793 170.735 12.8395 170.931 12.8395C171.13 12.8395 171.287 12.7793 171.4 12.6588C171.513 12.535 171.57 12.3595 171.57 12.1324V10.5582H172.297ZM173.566 12.824H174.839V13.4175H172.746V12.8343L173.993 11.1517H172.751V10.5582H174.823V11.1414L173.566 12.824ZM175.954 12.824H177.227V13.4175H175.135V12.8343L176.382 11.1517H175.14V10.5582H177.212V11.1414L175.954 12.824ZM178.633 11.6111C178.633 11.2567 178.712 10.9401 178.87 10.6614C179.031 10.3793 179.25 10.1608 179.524 10.0059C179.803 9.84766 180.114 9.76851 180.457 9.76851C180.859 9.76851 181.212 9.87174 181.514 10.0782C181.817 10.2846 182.028 10.5702 182.148 10.935H181.318C181.236 10.7629 181.119 10.6339 180.968 10.5479C180.82 10.4619 180.648 10.4188 180.452 10.4188C180.243 10.4188 180.055 10.4687 179.89 10.5685C179.729 10.6648 179.602 10.8025 179.509 10.9814C179.42 11.1603 179.375 11.3702 179.375 11.6111C179.375 11.8485 179.42 12.0584 179.509 12.2408C179.602 12.4197 179.729 12.559 179.89 12.6588C180.055 12.7552 180.243 12.8034 180.452 12.8034C180.648 12.8034 180.82 12.7603 180.968 12.6743C181.119 12.5848 181.236 12.4541 181.318 12.2821H182.148C182.028 12.6502 181.817 12.9375 181.514 13.144C181.215 13.347 180.863 13.4485 180.457 13.4485C180.114 13.4485 179.803 13.3711 179.524 13.2163C179.25 13.058 179.031 12.8395 178.87 12.5608C178.712 12.2821 178.633 11.9655 178.633 11.6111ZM183.93 13.464C183.655 13.464 183.407 13.4038 183.187 13.2834C182.967 13.1595 182.794 12.9857 182.667 12.7621C182.543 12.5384 182.481 12.2803 182.481 11.9879C182.481 11.6954 182.545 11.4373 182.672 11.2137C182.802 10.99 182.979 10.818 183.203 10.6975C183.426 10.5737 183.675 10.5117 183.95 10.5117C184.225 10.5117 184.474 10.5737 184.698 10.6975C184.921 10.818 185.096 10.99 185.223 11.2137C185.354 11.4373 185.419 11.6954 185.419 11.9879C185.419 12.2803 185.352 12.5384 185.218 12.7621C185.087 12.9857 184.909 13.1595 184.682 13.2834C184.459 13.4038 184.208 13.464 183.93 13.464ZM183.93 12.8343C184.06 12.8343 184.182 12.8034 184.295 12.7414C184.412 12.676 184.505 12.5797 184.574 12.4524C184.643 12.3251 184.677 12.1702 184.677 11.9879C184.677 11.716 184.605 11.5079 184.46 11.3634C184.319 11.2154 184.146 11.1414 183.94 11.1414C183.734 11.1414 183.56 11.2154 183.419 11.3634C183.282 11.5079 183.213 11.716 183.213 11.9879C183.213 12.2597 183.28 12.4696 183.414 12.6175C183.551 12.7621 183.723 12.8343 183.93 12.8343ZM186.567 9.59819V13.4175H185.845V9.59819H186.567ZM187.898 9.59819V13.4175H187.177V9.59819H187.898ZM191.163 11.9259C191.163 12.0292 191.156 12.1221 191.142 12.2046H189.055C189.072 12.4111 189.144 12.5728 189.271 12.6898C189.398 12.8068 189.555 12.8653 189.74 12.8653C190.008 12.8653 190.199 12.75 190.313 12.5195H191.091C191.008 12.7948 190.85 13.0219 190.617 13.2008C190.383 13.3763 190.096 13.464 189.756 13.464C189.481 13.464 189.234 13.4038 189.014 13.2834C188.797 13.1595 188.627 12.9857 188.503 12.7621C188.383 12.5384 188.323 12.2803 188.323 11.9879C188.323 11.6919 188.383 11.4322 188.503 11.2085C188.623 10.9848 188.792 10.8128 189.009 10.6924C189.225 10.5719 189.474 10.5117 189.756 10.5117C190.027 10.5117 190.27 10.5702 190.483 10.6872C190.699 10.8042 190.866 10.9711 190.983 11.1879C191.103 11.4012 191.163 11.6472 191.163 11.9259ZM190.416 11.7195C190.412 11.5337 190.345 11.3857 190.215 11.2756C190.084 11.1621 189.924 11.1053 189.735 11.1053C189.556 11.1053 189.405 11.1603 189.282 11.2704C189.161 11.3771 189.087 11.5268 189.06 11.7195H190.416ZM192.705 10.5117C192.918 10.5117 193.106 10.5548 193.267 10.6408C193.429 10.7234 193.556 10.8317 193.648 10.9659V10.5582H194.375V13.4382C194.375 13.7031 194.322 13.9388 194.215 14.1453C194.109 14.3552 193.949 14.5203 193.736 14.6408C193.523 14.7646 193.265 14.8266 192.963 14.8266C192.557 14.8266 192.224 14.7319 191.963 14.5427C191.705 14.3535 191.559 14.0954 191.525 13.7685H192.241C192.279 13.8993 192.36 14.0025 192.483 14.0782C192.611 14.1573 192.764 14.1969 192.942 14.1969C193.152 14.1969 193.322 14.1332 193.452 14.0059C193.583 13.8821 193.648 13.6928 193.648 13.4382V12.9943C193.556 13.1285 193.427 13.2403 193.262 13.3298C193.1 13.4193 192.915 13.464 192.705 13.464C192.465 13.464 192.245 13.4021 192.045 13.2782C191.846 13.1543 191.688 12.9806 191.571 12.7569C191.458 12.5298 191.401 12.27 191.401 11.9775C191.401 11.6885 191.458 11.4322 191.571 11.2085C191.688 10.9848 191.844 10.8128 192.04 10.6924C192.24 10.5719 192.461 10.5117 192.705 10.5117ZM193.648 11.9879C193.648 11.8124 193.614 11.6627 193.545 11.5388C193.477 11.4115 193.384 11.3152 193.267 11.2498C193.15 11.181 193.025 11.1466 192.891 11.1466C192.757 11.1466 192.633 11.1793 192.519 11.2446C192.406 11.31 192.313 11.4064 192.241 11.5337C192.173 11.6575 192.138 11.8055 192.138 11.9775C192.138 12.1496 192.173 12.301 192.241 12.4317C192.313 12.559 192.406 12.6571 192.519 12.7259C192.637 12.7948 192.76 12.8292 192.891 12.8292C193.025 12.8292 193.15 12.7965 193.267 12.7311C193.384 12.6623 193.477 12.5659 193.545 12.4421C193.614 12.3148 193.648 12.1634 193.648 11.9879ZM197.631 11.9259C197.631 12.0292 197.625 12.1221 197.611 12.2046H195.523C195.541 12.4111 195.613 12.5728 195.74 12.6898C195.867 12.8068 196.023 12.8653 196.209 12.8653C196.477 12.8653 196.668 12.75 196.781 12.5195H197.559C197.477 12.7948 197.319 13.0219 197.085 13.2008C196.851 13.3763 196.564 13.464 196.224 13.464C195.949 13.464 195.702 13.4038 195.482 13.2834C195.266 13.1595 195.095 12.9857 194.972 12.7621C194.851 12.5384 194.791 12.2803 194.791 11.9879C194.791 11.6919 194.851 11.4322 194.972 11.2085C195.092 10.9848 195.26 10.8128 195.477 10.6924C195.693 10.5719 195.943 10.5117 196.224 10.5117C196.496 10.5117 196.738 10.5702 196.951 10.6872C197.168 10.8042 197.334 10.9711 197.451 11.1879C197.571 11.4012 197.631 11.6472 197.631 11.9259ZM196.884 11.7195C196.881 11.5337 196.814 11.3857 196.683 11.2756C196.552 11.1621 196.393 11.1053 196.204 11.1053C196.025 11.1053 195.874 11.1603 195.75 11.2704C195.63 11.3771 195.556 11.5268 195.528 11.7195H196.884ZM200.422 13.4537C200.172 13.4537 199.945 13.4107 199.742 13.3246C199.543 13.2386 199.385 13.1148 199.268 12.953C199.151 12.7913 199.091 12.6003 199.087 12.3801H199.861C199.871 12.5281 199.922 12.6451 200.015 12.7311C200.112 12.8171 200.242 12.8601 200.407 12.8601C200.575 12.8601 200.708 12.8206 200.804 12.7414C200.9 12.6588 200.948 12.5522 200.948 12.4214C200.948 12.3148 200.916 12.227 200.85 12.1582C200.785 12.0894 200.703 12.036 200.603 11.9982C200.507 11.9569 200.373 11.9122 200.201 11.864C199.967 11.7952 199.777 11.7281 199.629 11.6627C199.484 11.5939 199.359 11.4924 199.252 11.3582C199.149 11.2206 199.098 11.0382 199.098 10.8111C199.098 10.5978 199.151 10.4119 199.257 10.2537C199.364 10.0954 199.514 9.97496 199.706 9.89238C199.898 9.80637 200.118 9.76335 200.366 9.76335C200.737 9.76335 201.038 9.85453 201.268 10.0369C201.501 10.2158 201.63 10.467 201.654 10.7904H200.861C200.854 10.6666 200.8 10.5651 200.701 10.4859C200.605 10.4034 200.476 10.3621 200.314 10.3621C200.173 10.3621 200.06 10.3982 199.974 10.4704C199.891 10.5427 199.85 10.6477 199.85 10.7853C199.85 10.8816 199.881 10.9625 199.943 11.0279C200.008 11.0898 200.087 11.1414 200.18 11.1827C200.277 11.2206 200.411 11.2653 200.582 11.3169C200.816 11.3857 201.007 11.4545 201.154 11.5234C201.302 11.5922 201.429 11.6954 201.536 11.833C201.642 11.9707 201.696 12.1513 201.696 12.375C201.696 12.5677 201.646 12.7466 201.546 12.9117C201.447 13.0769 201.3 13.2094 201.108 13.3092C200.916 13.4055 200.687 13.4537 200.422 13.4537ZM203.058 11.1517V12.535C203.058 12.6313 203.081 12.7019 203.125 12.7466C203.174 12.7879 203.252 12.8085 203.363 12.8085H203.698V13.4175H203.244C202.636 13.4175 202.332 13.1216 202.332 12.5298V11.1517H201.991V10.5582H202.332V9.85109H203.058V10.5582H203.698V11.1517H203.058ZM206.809 10.5582V13.4175H206.083V13.0563C205.99 13.1801 205.868 13.2782 205.717 13.3504C205.569 13.4193 205.407 13.4537 205.232 13.4537C205.009 13.4537 204.811 13.4072 204.639 13.3143C204.467 13.218 204.332 13.0786 204.232 12.8963C204.136 12.7104 204.088 12.4902 204.088 12.2356V10.5582H204.809V12.1324C204.809 12.3595 204.866 12.535 204.979 12.6588C205.093 12.7793 205.248 12.8395 205.443 12.8395C205.643 12.8395 205.799 12.7793 205.912 12.6588C206.026 12.535 206.083 12.3595 206.083 12.1324V10.5582H206.809ZM207.233 11.9775C207.233 11.6885 207.289 11.4322 207.403 11.2085C207.52 10.9848 207.678 10.8128 207.877 10.6924C208.076 10.5719 208.298 10.5117 208.542 10.5117C208.727 10.5117 208.904 10.553 209.073 10.6356C209.241 10.7148 209.375 10.8214 209.475 10.9556V9.59819H210.207V13.4175H209.475V12.9943C209.386 13.1354 209.26 13.249 209.098 13.335C208.937 13.421 208.75 13.464 208.537 13.464C208.296 13.464 208.076 13.4021 207.877 13.2782C207.678 13.1543 207.52 12.9806 207.403 12.7569C207.289 12.5298 207.233 12.27 207.233 11.9775ZM209.48 11.9879C209.48 11.8124 209.446 11.6627 209.377 11.5388C209.308 11.4115 209.215 11.3152 209.098 11.2498C208.982 11.181 208.856 11.1466 208.722 11.1466C208.588 11.1466 208.464 11.1793 208.351 11.2446C208.238 11.31 208.145 11.4064 208.073 11.5337C208.004 11.6575 207.97 11.8055 207.97 11.9775C207.97 12.1496 208.004 12.301 208.073 12.4317C208.145 12.559 208.238 12.6571 208.351 12.7259C208.468 12.7948 208.592 12.8292 208.722 12.8292C208.856 12.8292 208.982 12.7965 209.098 12.7311C209.215 12.6623 209.308 12.5659 209.377 12.4421C209.446 12.3148 209.48 12.1634 209.48 11.9879ZM213.463 11.9259C213.463 12.0292 213.456 12.1221 213.442 12.2046H211.355C211.372 12.4111 211.444 12.5728 211.571 12.6898C211.698 12.8068 211.855 12.8653 212.04 12.8653C212.308 12.8653 212.499 12.75 212.613 12.5195H213.391C213.308 12.7948 213.15 13.0219 212.917 13.2008C212.683 13.3763 212.396 13.464 212.056 13.464C211.781 13.464 211.533 13.4038 211.314 13.2834C211.097 13.1595 210.927 12.9857 210.803 12.7621C210.683 12.5384 210.623 12.2803 210.623 11.9879C210.623 11.6919 210.683 11.4322 210.803 11.2085C210.924 10.9848 211.092 10.8128 211.308 10.6924C211.525 10.5719 211.774 10.5117 212.056 10.5117C212.327 10.5117 212.569 10.5702 212.783 10.6872C212.999 10.8042 213.166 10.9711 213.283 11.1879C213.403 11.4012 213.463 11.6472 213.463 11.9259ZM212.716 11.7195C212.712 11.5337 212.645 11.3857 212.515 11.2756C212.384 11.1621 212.224 11.1053 212.035 11.1053C211.857 11.1053 211.705 11.1603 211.582 11.2704C211.461 11.3771 211.388 11.5268 211.36 11.7195H212.716ZM215.469 10.5169C215.809 10.5169 216.084 10.6253 216.294 10.8421C216.503 11.0554 216.608 11.3548 216.608 11.7401V13.4175H215.887V11.8382C215.887 11.6111 215.83 11.4373 215.717 11.3169C215.603 11.193 215.449 11.1311 215.253 11.1311C215.053 11.1311 214.895 11.193 214.778 11.3169C214.665 11.4373 214.608 11.6111 214.608 11.8382V13.4175H213.887V10.5582H214.608V10.9143C214.704 10.7904 214.827 10.6941 214.974 10.6253C215.126 10.553 215.291 10.5169 215.469 10.5169ZM218.032 11.1517V12.535C218.032 12.6313 218.054 12.7019 218.099 12.7466C218.147 12.7879 218.226 12.8085 218.336 12.8085H218.671V13.4175H218.217C217.609 13.4175 217.305 13.1216 217.305 12.5298V11.1517H216.965V10.5582H217.305V9.85109H218.032V10.5582H218.671V11.1517H218.032ZM220.179 13.464C219.946 13.464 219.736 13.4227 219.55 13.3401C219.365 13.2541 219.217 13.1388 219.107 12.9943C219.001 12.8498 218.942 12.6898 218.932 12.5143H219.659C219.673 12.6244 219.726 12.7156 219.819 12.7879C219.915 12.8601 220.033 12.8963 220.174 12.8963C220.312 12.8963 220.418 12.8687 220.494 12.8137C220.573 12.7586 220.612 12.6881 220.612 12.6021C220.612 12.5092 220.564 12.4403 220.468 12.3956C220.375 12.3474 220.226 12.2958 220.02 12.2408C219.807 12.1892 219.631 12.1358 219.494 12.0808C219.36 12.0257 219.243 11.9414 219.143 11.8279C219.047 11.7143 218.999 11.5612 218.999 11.3685C218.999 11.2102 219.044 11.0657 219.133 10.935C219.226 10.8042 219.356 10.701 219.525 10.6253C219.697 10.5496 219.898 10.5117 220.128 10.5117C220.468 10.5117 220.74 10.5978 220.942 10.7698C221.145 10.9384 221.257 11.1672 221.277 11.4563H220.587C220.576 11.3427 220.528 11.2532 220.442 11.1879C220.36 11.119 220.248 11.0846 220.107 11.0846C219.977 11.0846 219.875 11.1087 219.803 11.1569C219.735 11.2051 219.7 11.2722 219.7 11.3582C219.7 11.4545 219.748 11.5285 219.844 11.5801C219.941 11.6283 220.09 11.6782 220.293 11.7298C220.499 11.7814 220.669 11.8348 220.803 11.8898C220.937 11.9448 221.052 12.0309 221.148 12.1479C221.248 12.2614 221.3 12.4128 221.303 12.6021C221.303 12.7672 221.257 12.9152 221.164 13.0459C221.075 13.1767 220.944 13.2799 220.772 13.3556C220.604 13.4279 220.406 13.464 220.179 13.464ZM225.423 10.8988C225.34 10.7474 225.227 10.6322 225.083 10.553C224.938 10.4739 224.77 10.4343 224.577 10.4343C224.364 10.4343 224.175 10.4825 224.01 10.5788C223.845 10.6752 223.717 10.8128 223.624 10.9917C223.531 11.1707 223.485 11.3771 223.485 11.6111C223.485 11.8519 223.531 12.0619 223.624 12.2408C223.72 12.4197 223.852 12.5573 224.021 12.6537C224.189 12.75 224.385 12.7982 224.608 12.7982C224.883 12.7982 225.108 12.7259 225.283 12.5814C225.459 12.4335 225.574 12.2287 225.629 11.9672H224.392V11.415H226.34V12.0446C226.292 12.2958 226.189 12.5281 226.031 12.7414C225.873 12.9548 225.668 13.1268 225.418 13.2575C225.17 13.3848 224.892 13.4485 224.583 13.4485C224.235 13.4485 223.921 13.3711 223.639 13.2163C223.361 13.058 223.141 12.8395 222.98 12.5608C222.821 12.2821 222.742 11.9655 222.742 11.6111C222.742 11.2567 222.821 10.9401 222.98 10.6614C223.141 10.3793 223.361 10.1608 223.639 10.0059C223.921 9.84766 224.234 9.76851 224.577 9.76851C224.983 9.76851 225.335 9.86831 225.634 10.0679C225.933 10.264 226.139 10.541 226.253 10.8988H225.423ZM226.585 11.9775C226.585 11.6885 226.642 11.4322 226.755 11.2085C226.872 10.9848 227.029 10.8128 227.225 10.6924C227.424 10.5719 227.645 10.5117 227.889 10.5117C228.103 10.5117 228.288 10.5548 228.446 10.6408C228.608 10.7268 228.737 10.8352 228.833 10.9659V10.5582H229.56V13.4175H228.833V12.9995C228.74 13.1337 228.611 13.2455 228.446 13.335C228.285 13.421 228.097 13.464 227.884 13.464C227.644 13.464 227.424 13.4021 227.225 13.2782C227.029 13.1543 226.872 12.9806 226.755 12.7569C226.642 12.5298 226.585 12.27 226.585 11.9775ZM228.833 11.9879C228.833 11.8124 228.798 11.6627 228.73 11.5388C228.661 11.4115 228.568 11.3152 228.451 11.2498C228.335 11.181 228.209 11.1466 228.075 11.1466C227.941 11.1466 227.817 11.1793 227.704 11.2446C227.59 11.31 227.498 11.4064 227.426 11.5337C227.357 11.6575 227.322 11.8055 227.322 11.9775C227.322 12.1496 227.357 12.301 227.426 12.4317C227.498 12.559 227.59 12.6571 227.704 12.7259C227.821 12.7948 227.944 12.8292 228.075 12.8292C228.209 12.8292 228.335 12.7965 228.451 12.7311C228.568 12.6623 228.661 12.5659 228.73 12.4421C228.798 12.3148 228.833 12.1634 228.833 11.9879ZM231.001 11.1517V12.535C231.001 12.6313 231.024 12.7019 231.068 12.7466C231.116 12.7879 231.196 12.8085 231.306 12.8085H231.641V13.4175H231.187C230.579 13.4175 230.275 13.1216 230.275 12.5298V11.1517H229.935V10.5582H230.275V9.85109H231.001V10.5582H231.641V11.1517H231.001ZM233.665 10.5169C233.881 10.5169 234.074 10.5651 234.242 10.6614C234.41 10.7543 234.541 10.8937 234.634 11.0795C234.73 11.2619 234.778 11.4821 234.778 11.7401V13.4175H234.057V11.8382C234.057 11.6111 234 11.4373 233.886 11.3169C233.773 11.193 233.618 11.1311 233.423 11.1311C233.223 11.1311 233.065 11.193 232.948 11.3169C232.835 11.4373 232.778 11.6111 232.778 11.8382V13.4175H232.057V9.59819H232.778V10.9143C232.871 10.7904 232.995 10.6941 233.149 10.6253C233.304 10.553 233.476 10.5169 233.665 10.5169ZM238.016 11.9259C238.016 12.0292 238.009 12.1221 237.995 12.2046H235.908C235.925 12.4111 235.997 12.5728 236.124 12.6898C236.251 12.8068 236.408 12.8653 236.593 12.8653C236.861 12.8653 237.052 12.75 237.165 12.5195H237.944C237.861 12.7948 237.703 13.0219 237.469 13.2008C237.236 13.3763 236.949 13.464 236.609 13.464C236.334 13.464 236.086 13.4038 235.866 13.2834C235.65 13.1595 235.48 12.9857 235.356 12.7621C235.236 12.5384 235.176 12.2803 235.176 11.9879C235.176 11.6919 235.236 11.4322 235.356 11.2085C235.476 10.9848 235.645 10.8128 235.861 10.6924C236.078 10.5719 236.327 10.5117 236.609 10.5117C236.88 10.5117 237.122 10.5702 237.335 10.6872C237.552 10.8042 237.719 10.9711 237.835 11.1879C237.956 11.4012 238.016 11.6472 238.016 11.9259ZM237.268 11.7195C237.265 11.5337 237.198 11.3857 237.067 11.2756C236.937 11.1621 236.777 11.1053 236.588 11.1053C236.409 11.1053 236.258 11.1603 236.134 11.2704C236.014 11.3771 235.94 11.5268 235.913 11.7195H237.268ZM239.161 11.0021C239.254 10.8507 239.374 10.7319 239.522 10.6459C239.673 10.5599 239.845 10.5169 240.037 10.5169V11.2756H239.847C239.62 11.2756 239.448 11.329 239.331 11.4356C239.218 11.5423 239.161 11.7281 239.161 11.993V13.4175H238.439V10.5582H239.161V11.0021ZM240.786 10.2175C240.659 10.2175 240.553 10.178 240.467 10.0988C240.384 10.0163 240.343 9.91476 240.343 9.79432C240.343 9.67388 240.384 9.57411 240.467 9.49496C240.553 9.41238 240.659 9.37109 240.786 9.37109C240.913 9.37109 241.018 9.41238 241.101 9.49496C241.187 9.57411 241.23 9.67388 241.23 9.79432C241.23 9.91476 241.187 10.0163 241.101 10.0988C241.018 10.178 240.913 10.2175 240.786 10.2175ZM241.142 10.5582V13.4175H240.42V10.5582H241.142ZM243.334 10.5169C243.674 10.5169 243.949 10.6253 244.159 10.8421C244.369 11.0554 244.473 11.3548 244.473 11.7401V13.4175H243.752V11.8382C243.752 11.6111 243.695 11.4373 243.582 11.3169C243.468 11.193 243.314 11.1311 243.118 11.1311C242.918 11.1311 242.76 11.193 242.643 11.3169C242.53 11.4373 242.473 11.6111 242.473 11.8382V13.4175H241.752V10.5582H242.473V10.9143C242.57 10.7904 242.692 10.6941 242.839 10.6253C242.991 10.553 243.156 10.5169 243.334 10.5169ZM246.175 10.5117C246.388 10.5117 246.575 10.5548 246.737 10.6408C246.898 10.7234 247.026 10.8317 247.118 10.9659V10.5582H247.845V13.4382C247.845 13.7031 247.792 13.9388 247.685 14.1453C247.579 14.3552 247.419 14.5203 247.206 14.6408C246.993 14.7646 246.735 14.8266 246.433 14.8266C246.027 14.8266 245.694 14.7319 245.433 14.5427C245.175 14.3535 245.029 14.0954 244.995 13.7685H245.711C245.749 13.8993 245.83 14.0025 245.953 14.0782C246.08 14.1573 246.234 14.1969 246.412 14.1969C246.622 14.1969 246.792 14.1332 246.922 14.0059C247.053 13.8821 247.118 13.6928 247.118 13.4382V12.9943C247.026 13.1285 246.897 13.2403 246.732 13.3298C246.57 13.4193 246.385 13.464 246.175 13.464C245.935 13.464 245.715 13.4021 245.515 13.2782C245.316 13.1543 245.158 12.9806 245.041 12.7569C244.928 12.5298 244.871 12.27 244.871 11.9775C244.871 11.6885 244.928 11.4322 245.041 11.2085C245.158 10.9848 245.314 10.8128 245.51 10.6924C245.709 10.5719 245.931 10.5117 246.175 10.5117ZM247.118 11.9879C247.118 11.8124 247.084 11.6627 247.015 11.5388C246.946 11.4115 246.854 11.3152 246.737 11.2498C246.62 11.181 246.495 11.1466 246.361 11.1466C246.227 11.1466 246.103 11.1793 245.989 11.2446C245.876 11.31 245.783 11.4064 245.711 11.5337C245.642 11.6575 245.608 11.8055 245.608 11.9775C245.608 12.1496 245.642 12.301 245.711 12.4317C245.783 12.559 245.876 12.6571 245.989 12.7259C246.106 12.7948 246.23 12.8292 246.361 12.8292C246.495 12.8292 246.62 12.7965 246.737 12.7311C246.854 12.6623 246.946 12.5659 247.015 12.4421C247.084 12.3148 247.118 12.1634 247.118 11.9879Z" fill="white"/>
</g>
<defs>
<clipPath id="clip0_5633_30511">
<rect width="392" height="152" fill="white"/>
</clipPath>
</defs>
</svg>
