<svg width="32" height="32" viewBox="0 0 32 32" fill="none" xmlns="http://www.w3.org/2000/svg">
<rect width="32" height="32" rx="16" fill="#F3F2FF"/>
<path fill-rule="evenodd" clip-rule="evenodd" d="M16 7.875C11.5127 7.875 7.875 11.5127 7.875 16C7.875 20.4873 11.5127 24.125 16 24.125C20.4873 24.125 24.125 20.4873 24.125 16C24.125 11.5127 20.4873 7.875 16 7.875ZM13.1224 9.75437C10.7626 10.8434 9.125 13.2305 9.125 16C9.125 19.797 12.203 22.875 16 22.875C19.5951 22.875 22.5456 20.1156 22.8492 16.5992L22.4652 16.2152C22.3227 16.0726 22.2041 15.9081 22.1139 15.7279L21.2139 13.9278C21.1087 13.7173 20.8282 13.6718 20.6619 13.8382C20.4848 14.0152 20.2257 14.0823 19.985 14.0136L18.9242 13.7105C18.5214 13.5954 18.1033 13.8369 18.0017 14.2433C17.9257 14.5472 18.049 14.866 18.3096 15.0397L18.7985 15.3657C19.2908 15.6938 19.3597 16.3903 18.9414 16.8086L18.7746 16.9754C18.5988 17.1512 18.5 17.3897 18.5 17.6383V17.9807C18.5 18.3205 18.4077 18.6539 18.2328 18.9453L17.1373 20.7712C16.8195 21.3009 16.2471 21.625 15.6293 21.625C15.1437 21.625 14.75 21.2313 14.75 20.7457V19.7694C14.75 19.0027 14.2832 18.3133 13.5714 18.0285L13.0263 17.8105C12.2081 17.4832 11.7283 16.6305 11.8731 15.7614L11.879 15.7262C11.9177 15.4941 11.9997 15.2714 12.1207 15.0697L12.1952 14.9455C12.6029 14.2661 13.3937 13.9162 14.1707 14.0716L15.1522 14.2679C15.6312 14.3637 16.1034 14.0758 16.2375 13.6062L16.4113 12.9981C16.5352 12.5643 16.3326 12.1038 15.9291 11.902L15.375 11.625L15.2992 11.7008C14.9476 12.0525 14.4707 12.25 13.9734 12.25H13.8226C13.6161 12.25 13.4175 12.3325 13.2714 12.4786C13.0352 12.7148 12.6735 12.7742 12.3747 12.6248C11.9703 12.4226 11.8236 11.919 12.0562 11.5313L13.1224 9.75437Z" fill="#6744FF"/>
</svg>
