<svg width="102" height="126" viewBox="0 0 102 126" fill="none" xmlns="http://www.w3.org/2000/svg">
<g filter="url(#filter0_d_993_24838)">
<circle cx="39" cy="55" r="23" fill="white"/>
</g>
<path d="M38.8394 44.6199C38.0818 44.0244 37.1295 43.8478 36.2251 44.1343L30.1075 46.0727C28.8472 46.4723 28 47.6741 28 49.0644V62.8751C28 63.8723 28.4344 64.7856 29.1918 65.3801C29.9494 65.9756 30.9028 66.1522 31.8061 65.8658L36.3729 64.4183C36.2301 63.9208 36.1578 63.4017 36.1578 62.8751V56.603C36.1578 55.2859 36.6125 54.028 37.4404 53.0631C38.0481 52.3523 38.8363 51.8279 39.7172 51.5479L40.0312 51.4531V47.1259C40.0312 46.1287 39.5969 45.2154 38.8393 44.6199H38.8394Z" fill="#F59E0B"/>
<path d="M49.9999 54.6832V60.9447C49.9999 62.3317 49.1537 63.5325 47.8924 63.9303L41.7749 65.8656C41.4915 65.9559 41.203 66 40.9175 66C40.2924 66 39.6807 65.7893 39.1606 65.3807C38.923 65.1937 38.7171 64.9775 38.5479 64.7357C38.3419 64.4454 38.1879 64.1218 38.0911 63.7745C38.09 63.7745 38.0891 63.7745 38.088 63.7755L38.09 63.7734C38.0116 63.4884 37.9688 63.1885 37.9688 62.8799V56.6185C37.9688 55.9755 38.1502 55.3724 38.4704 54.8714C38.7906 54.3703 39.2494 53.9705 39.804 53.7328C39.8928 53.6952 39.9835 53.6607 40.0763 53.6318L40.8247 53.3952L46.1939 51.6965C47.0982 51.4105 48.0506 51.5869 48.8081 52.1814C49.5657 52.776 50 53.6876 50 54.6832H49.9999Z" fill="#F59E0B"/>
<defs>
<filter id="filter0_d_993_24838" x="-24" y="0" width="126" height="126" filterUnits="userSpaceOnUse" color-interpolation-filters="sRGB">
<feFlood flood-opacity="0" result="BackgroundImageFix"/>
<feColorMatrix in="SourceAlpha" type="matrix" values="0 0 0 0 0 0 0 0 0 0 0 0 0 0 0 0 0 0 127 0" result="hardAlpha"/>
<feOffset dy="8"/>
<feGaussianBlur stdDeviation="20"/>
<feComposite in2="hardAlpha" operator="out"/>
<feColorMatrix type="matrix" values="0 0 0 0 0 0 0 0 0 0 0 0 0 0 0 0 0 0 0.1 0"/>
<feBlend mode="normal" in2="BackgroundImageFix" result="effect1_dropShadow_993_24838"/>
<feBlend mode="normal" in="SourceGraphic" in2="effect1_dropShadow_993_24838" result="shape"/>
</filter>
</defs>
</svg>
