<svg width="32" height="32" viewBox="0 0 32 32" fill="none" xmlns="http://www.w3.org/2000/svg">
<rect width="32" height="32" rx="16" fill="#F3F2FF"/>
<path fill-rule="evenodd" clip-rule="evenodd" d="M15.2315 7.875C14.4677 7.875 13.8158 8.42721 13.6903 9.18063L13.5414 10.0739C13.5246 10.1747 13.4461 10.2915 13.2942 10.3646C13.0075 10.5024 12.733 10.6615 12.4728 10.8397C12.334 10.9347 12.1938 10.9443 12.098 10.9085L11.2487 10.5903C10.5334 10.3223 9.72927 10.6107 9.34737 11.2722L8.57905 12.603C8.19715 13.2645 8.34944 14.1051 8.93914 14.5906L9.63957 15.1672C9.71843 15.2321 9.78018 15.3582 9.7676 15.5256C9.75582 15.6823 9.74984 15.8405 9.74984 16C9.74984 16.1595 9.75583 16.3178 9.76761 16.4746C9.7802 16.642 9.71845 16.7681 9.63959 16.833L8.93914 17.4097C8.34944 17.8951 8.19715 18.7357 8.57905 19.3972L9.34737 20.728C9.72927 21.3895 10.5334 21.6779 11.2487 21.4099L12.0982 21.0917C12.1939 21.0558 12.3342 21.0655 12.4729 21.1605C12.7331 21.3386 13.0075 21.4976 13.2942 21.6354C13.4461 21.7085 13.5246 21.8253 13.5414 21.9261L13.6903 22.8194C13.8158 23.5728 14.4677 24.125 15.2315 24.125H16.7682C17.532 24.125 18.1838 23.5728 18.3094 22.8194L18.4583 21.9261C18.4751 21.8253 18.5536 21.7085 18.7055 21.6354C18.9922 21.4976 19.2667 21.3385 19.5269 21.1603C19.6656 21.0653 19.8059 21.0557 19.9017 21.0915L20.751 21.4097C21.4662 21.6777 22.2704 21.3893 22.6523 20.7278L23.4206 19.397C23.8025 18.7355 23.6502 17.8949 23.0605 17.4094L22.3601 16.8328C22.2812 16.7679 22.2195 16.6418 22.2321 16.4744C22.2438 16.3177 22.2498 16.1595 22.2498 16C22.2498 15.8405 22.2438 15.6822 22.2321 15.5254C22.2195 15.358 22.2812 15.2319 22.3601 15.167L23.0605 14.5903C23.6502 14.1049 23.8025 13.2643 23.4206 12.6028L22.6523 11.272C22.2704 10.6105 21.4662 10.3221 20.751 10.5901L19.9015 10.9083C19.8057 10.9442 19.6655 10.9345 19.5267 10.8395C19.2666 10.6614 18.9921 10.5024 18.7055 10.3646C18.5536 10.2915 18.4751 10.1747 18.4583 10.0739L18.3094 9.18063C18.1838 8.42721 17.532 7.875 16.7682 7.875H15.2315ZM15.9999 19.125C17.7258 19.125 19.1249 17.7259 19.1249 16C19.1249 14.2741 17.7258 12.875 15.9999 12.875C14.274 12.875 12.8749 14.2741 12.8749 16C12.8749 17.7259 14.274 19.125 15.9999 19.125Z" fill="#6744FF"/>
</svg>
