<svg xmlns="http://www.w3.org/2000/svg" width="29" height="24" viewBox="0 0 29 24" fill="none">
  <path d="M28.7895 7.55432C22.3352 6.3576 19.8991 2.01947 19.4878 0C17.8932 5.38526 12.3691 7.28007 9.8064 7.55432C16.4884 8.5117 19.0448 13.2886 19.4878 15.5574C20.323 10.4115 26.0369 8.07789 28.7895 7.55432Z" fill="#6647FF"/>
  <path d="M10.2813 14.3223C7.05421 14.9092 5.83613 17.0365 5.63048 18.0269C4.83319 15.386 2.07115 14.4568 0.789795 14.3223C4.13082 13.8528 5.40901 11.5103 5.63048 10.3977C6.04811 12.9212 8.90506 14.0656 10.2813 14.3223Z" fill="#6647FF"/>
  <path d="M19.4565 20.9926C16.9513 21.469 16.0057 23.196 15.846 24C15.2271 21.8561 13.0829 21.1017 12.0881 20.9926C14.6818 20.6114 15.6741 18.7097 15.846 17.8065C16.1702 19.8551 18.3881 20.7841 19.4565 20.9926Z" fill="#6647FF"/>
</svg>