<svg width="11" height="13" viewBox="0 0 11 13" fill="none" xmlns="http://www.w3.org/2000/svg">
<path d="M7.77273 3.77273C7.70455 3.19697 7.42803 2.75 6.94318 2.43182C6.45833 2.11364 5.86364 1.95455 5.15909 1.95455C4.64394 1.95455 4.19318 2.03788 3.80682 2.20455C3.42424 2.37121 3.125 2.60038 2.90909 2.89205C2.69697 3.18371 2.59091 3.51515 2.59091 3.88636C2.59091 4.19697 2.66477 4.46401 2.8125 4.6875C2.96402 4.9072 3.1572 5.09091 3.39205 5.23864C3.62689 5.38258 3.87311 5.50189 4.13068 5.59659C4.38826 5.6875 4.625 5.76136 4.84091 5.81818L6.02273 6.13636C6.32576 6.21591 6.66288 6.32576 7.03409 6.46591C7.40909 6.60606 7.76705 6.79735 8.10795 7.03977C8.45265 7.27841 8.73674 7.58523 8.96023 7.96023C9.18371 8.33523 9.29545 8.79545 9.29545 9.34091C9.29545 9.9697 9.13068 10.5379 8.80114 11.0455C8.47538 11.553 7.99811 11.9564 7.36932 12.2557C6.74432 12.5549 5.98485 12.7045 5.09091 12.7045C4.25758 12.7045 3.53598 12.5701 2.92614 12.3011C2.32008 12.0322 1.8428 11.6572 1.49432 11.1761C1.14962 10.6951 0.954545 10.1364 0.909091 9.5H2.36364C2.40152 9.93939 2.54924 10.303 2.80682 10.5909C3.06818 10.875 3.39773 11.0871 3.79545 11.2273C4.19697 11.3636 4.62879 11.4318 5.09091 11.4318C5.62879 11.4318 6.11174 11.3447 6.53977 11.1705C6.9678 10.9924 7.30682 10.7462 7.55682 10.4318C7.80682 10.1136 7.93182 9.74242 7.93182 9.31818C7.93182 8.93182 7.82386 8.61742 7.60795 8.375C7.39205 8.13258 7.10795 7.93561 6.75568 7.78409C6.40341 7.63258 6.02273 7.5 5.61364 7.38636L4.18182 6.97727C3.27273 6.71591 2.55303 6.3428 2.02273 5.85795C1.49242 5.37311 1.22727 4.73864 1.22727 3.95455C1.22727 3.30303 1.40341 2.73485 1.75568 2.25C2.11174 1.76136 2.58902 1.38258 3.1875 1.11364C3.78977 0.840909 4.46212 0.704545 5.20455 0.704545C5.95455 0.704545 6.62121 0.839015 7.20455 1.10795C7.78788 1.37311 8.25 1.73674 8.59091 2.19886C8.93561 2.66098 9.11742 3.18561 9.13636 3.77273H7.77273Z" fill="#9CA3AF"/>
<path d="M0 7.26136H10.2045V8.35227H0V7.26136Z" fill="#9CA3AF"/>
</svg>
