<svg xmlns="http://www.w3.org/2000/svg" width="22" height="22" viewBox="0 0 22 22" fill="none">
<g id="logo">
<path id="Vector" d="M10.8394 0.619887C10.0818 0.0244149 9.12951 -0.152247 8.22512 0.134269L2.10754 2.07271C0.84725 2.4723 0 3.6741 0 5.06444V18.8751C0 19.8723 0.434352 20.7856 1.19183 21.3801C1.94944 21.9756 2.90278 22.1522 3.80613 21.8658L8.37293 20.4183C8.23012 19.9208 8.15777 19.4017 8.15777 18.8751V12.603C8.15777 11.2859 8.61253 10.028 9.44041 9.06312C10.0481 8.35229 10.8363 7.82788 11.7172 7.54789L12.0312 7.45315V3.12593C12.0312 2.12866 11.5969 1.21543 10.8393 0.619887H10.8394Z" fill="#F59E0B"/>
<path id="Vector_2" d="M21.9999 10.6832V16.9447C21.9999 18.3317 21.1537 19.5325 19.8924 19.9303L13.7749 21.8656C13.4915 21.9559 13.203 22 12.9175 22C12.2924 22 11.6807 21.7893 11.1606 21.3807C10.923 21.1937 10.7171 20.9775 10.5479 20.7357C10.3419 20.4454 10.1879 20.1218 10.0911 19.7745C10.09 19.7745 10.0891 19.7745 10.088 19.7755L10.09 19.7734C10.0116 19.4884 9.96875 19.1885 9.96875 18.8799V12.6185C9.96875 11.9755 10.1502 11.3724 10.4704 10.8714C10.7906 10.3703 11.2494 9.97045 11.804 9.73281C11.8928 9.69518 11.9835 9.6607 12.0763 9.63178L12.8247 9.39524L18.1939 7.69654C19.0982 7.41051 20.0506 7.58687 20.8081 8.18141C21.5657 8.77595 22 9.68764 22 10.6832H21.9999Z" fill="#F59E0B"/>
</g>
</svg>