<svg xmlns="http://www.w3.org/2000/svg" viewBox="0 0 238.6 55.44"><g id="Layer_2" data-name="Layer 2"><g id="Unibuzz_Logo" data-name="Unibuzz Logo"><path id="U" d="M15.91,55.44A17.36,17.36,0,0,1,7.56,53.5,13.76,13.76,0,0,1,2,48a16.45,16.45,0,0,1-2-8.2V23q0-4.91,5.18-4.9T10.37,23v16.7a8.46,8.46,0,0,0,1.44,5.26,4.86,4.86,0,0,0,4.1,1.87A4.87,4.87,0,0,0,20,44.93a8.46,8.46,0,0,0,1.44-5.26V23c0-3.27,1.72-4.9,5.18-4.9s5.18,1.63,5.18,4.9V39.82a16.45,16.45,0,0,1-2,8.2A13.78,13.78,0,0,1,24.3,53.5,17.33,17.33,0,0,1,15.91,55.44Z" fill="#6744ff"/><path id="N" d="M44.35,55.44q-5.18,0-5.18-4.9V33.26q0-6.9,4.43-10.94t11.7-4q7.26,0,11.7,4t4.42,10.94V50.54c0,3.27-1.72,4.9-5.18,4.9s-5.18-1.63-5.18-4.9V33.84a7.7,7.7,0,0,0-1.52-5.15,5.29,5.29,0,0,0-4.24-1.76,5.31,5.31,0,0,0-4.25,1.76,7.7,7.7,0,0,0-1.51,5.15v16.7Q49.54,55.45,44.35,55.44Z" fill="#6744ff"/><path id="i_dot_" data-name="i (dot)" d="M84.31,12.1a6.21,6.21,0,0,1-4.46-1.73,5.66,5.66,0,0,1-1.8-4.25,5.81,5.81,0,0,1,1.8-4.39,6.67,6.67,0,0,1,9,0,5.86,5.86,0,0,1,1.77,4.39,5.71,5.71,0,0,1-1.77,4.25A6.15,6.15,0,0,1,84.31,12.1Z" fill="#6744ff"/><path id="i" d="M89.5,50.62c0,3.21-1.69,4.82-5,4.82a5.93,5.93,0,0,1-3.89-1.19,4.43,4.43,0,0,1-1.44-3.63V23.18a5.11,5.11,0,0,1,1.19-3.6q1.19-1.29,4-1.29c1.87,0,3.21.43,4,1.29a5.16,5.16,0,0,1,1.19,3.6Z" fill="#6744ff"/><path id="U-2" data-name="U" d="M153.65,55.44a17.4,17.4,0,0,1-8.36-1.94A13.76,13.76,0,0,1,139.71,48a16.45,16.45,0,0,1-2-8.2V23q0-4.91,5.19-4.9T148.1,23v16.7a8.46,8.46,0,0,0,1.44,5.26,5.44,5.44,0,0,0,8.21,0,8.46,8.46,0,0,0,1.44-5.26V23q0-4.91,5.18-4.9t5.19,4.9V39.82a16.45,16.45,0,0,1-2,8.2A13.81,13.81,0,0,1,162,53.5,17.29,17.29,0,0,1,153.65,55.44Z" fill="#6744ff"/><path id="Z" d="M180.57,54.86a3.7,3.7,0,0,1-3-1.44,5.3,5.3,0,0,1-1.19-3.52,4.58,4.58,0,0,1,.65-2.45L188.13,30.1a10.65,10.65,0,0,1,1.3-1.73,3,3,0,0,1,1.08-.72H180.43c-3.22,0-4.82-1.47-4.82-4.39s1.6-4.4,4.82-4.4h17.78a4.17,4.17,0,0,1,3.24,1.44,5.07,5.07,0,0,1,1.3,3.53,4.7,4.7,0,0,1-.65,2.45l-11.73,17.5a4.59,4.59,0,0,1-3,2.3h12.24q4.83,0,4.83,4.54,0,4.25-4.83,4.24Z" fill="#6744ff"/><path id="Z-2" data-name="Z" d="M214.7,54.86a3.72,3.72,0,0,1-3-1.44,5.36,5.36,0,0,1-1.19-3.52,4.67,4.67,0,0,1,.65-2.45L222.26,30.1a10.65,10.65,0,0,1,1.3-1.73,2.85,2.85,0,0,1,1.08-.72H214.56c-3.22,0-4.83-1.47-4.83-4.39s1.61-4.4,4.83-4.4h17.78a4.17,4.17,0,0,1,3.24,1.44,5.07,5.07,0,0,1,1.3,3.53,4.7,4.7,0,0,1-.65,2.45l-11.74,17.5a4.58,4.58,0,0,1-3,2.3h12.24c3.22,0,4.82,1.51,4.82,4.54,0,2.83-1.6,4.24-4.82,4.24Z" fill="#6744ff"/><g id="B"><path d="M129.48,27.6a18.46,18.46,0,0,0-4.92-5.54,13.94,13.94,0,0,0-8.17-2.77h-.26a17,17,0,0,0-6.15.94,7.51,7.51,0,0,0-3.78,3.16,22.27,22.27,0,0,0,.78-3h0a1.4,1.4,0,0,0-.17.09,1.4,1.4,0,0,1,.17-.09,25.44,25.44,0,0,0,.33-3c.07-1.2.11-2.74.11-4.61V6.62Q107.42,1,102.6,1q-5.26,0-5.26,5.62V37.07a27.54,27.54,0,0,0,1.6,10,9,9,0,0,0,.62,1.29c3,5.13,8.52,6.81,14.81,6.83a22.25,22.25,0,0,0,9.73-1.82c4.76-2.27,8-7,8-15.95A19.3,19.3,0,0,0,129.48,27.6ZM112,37.94a1.18,1.18,0,0,1-1.14-1.22l0-3.34A1.18,1.18,0,0,1,112,32.15a1.19,1.19,0,0,1,1.14,1.22v3.34A1.18,1.18,0,0,1,112,37.94Zm8.65,0h0a1.12,1.12,0,0,1-1.08-1.16l0-3.46a1.18,1.18,0,0,1,.61-1,1,1,0,0,1,.46-.12,1.12,1.12,0,0,1,1.08,1.16l0,3.46A1.13,1.13,0,0,1,120.67,37.9Z" fill="#c4b8ff"/><path d="M112,32.15a1.18,1.18,0,0,0-1.13,1.23l0,3.34a1.13,1.13,0,1,0,2.26,0V33.37A1.19,1.19,0,0,0,112,32.15Z" fill="#fff"/><path d="M121.67,33.28a1.12,1.12,0,0,0-1.08-1.16,1,1,0,0,0-.46.12,1.18,1.18,0,0,0-.61,1l0,3.46a1.12,1.12,0,0,0,1.08,1.16h0a1.13,1.13,0,0,0,1-1.16Z" fill="#fff"/></g></g></g></svg>