<svg width="125" height="40" viewBox="0 0 125 40" fill="none" xmlns="http://www.w3.org/2000/svg">
<path d="M21.18 25.14C20.4987 25.14 19.8967 25.0513 19.374 24.874C18.8607 24.6967 18.4267 24.4353 18.072 24.09C17.7173 23.7353 17.4513 23.2967 17.274 22.774C17.0967 22.2513 17.008 21.6447 17.008 20.954V15.928C17.008 15.62 17.0827 15.3913 17.232 15.242C17.3907 15.0927 17.6147 15.018 17.904 15.018C18.1933 15.018 18.4127 15.0927 18.562 15.242C18.7207 15.3913 18.8 15.62 18.8 15.928V20.94C18.8 21.8267 19.0007 22.494 19.402 22.942C19.8127 23.3807 20.4053 23.6 21.18 23.6C21.9547 23.6 22.5427 23.3807 22.944 22.942C23.3453 22.494 23.546 21.8267 23.546 20.94V15.928C23.546 15.62 23.6207 15.3913 23.77 15.242C23.9287 15.0927 24.1527 15.018 24.442 15.018C24.722 15.018 24.9367 15.0927 25.086 15.242C25.2447 15.3913 25.324 15.62 25.324 15.928V20.954C25.324 21.8687 25.1653 22.6387 24.848 23.264C24.54 23.8893 24.078 24.3607 23.462 24.678C22.846 24.986 22.0853 25.14 21.18 25.14ZM28.3099 25.112C28.0206 25.112 27.7966 25.0327 27.6379 24.874C27.4886 24.706 27.4139 24.4773 27.4139 24.188V16.04C27.4139 15.7413 27.4933 15.5173 27.6519 15.368C27.8106 15.2093 28.0346 15.13 28.3239 15.13H31.6979C32.7806 15.13 33.6159 15.4007 34.2039 15.942C34.7919 16.4833 35.0859 17.2393 35.0859 18.21C35.0859 19.1807 34.7919 19.9413 34.2039 20.492C33.6159 21.0333 32.7806 21.304 31.6979 21.304H29.2059V24.188C29.2059 24.4773 29.1313 24.706 28.9819 24.874C28.8326 25.0327 28.6086 25.112 28.3099 25.112ZM29.2059 19.89H31.4179C32.0526 19.89 32.5333 19.75 32.8599 19.47C33.1866 19.1807 33.3499 18.7607 33.3499 18.21C33.3499 17.6593 33.1866 17.244 32.8599 16.964C32.5333 16.684 32.0526 16.544 31.4179 16.544H29.2059V19.89ZM41.2244 25.14C40.1324 25.14 39.2084 24.9347 38.4524 24.524C37.7057 24.1133 37.1364 23.53 36.7444 22.774C36.3524 22.018 36.1564 21.122 36.1564 20.086C36.1564 19.302 36.2684 18.5973 36.4924 17.972C36.7257 17.3467 37.0571 16.8147 37.4864 16.376C37.9251 15.928 38.4571 15.5873 39.0824 15.354C39.7077 15.1113 40.4171 14.99 41.2104 14.99C41.7331 14.99 42.2557 15.0553 42.7784 15.186C43.3104 15.3073 43.8097 15.5173 44.2764 15.816C44.4351 15.9187 44.5377 16.0447 44.5844 16.194C44.6404 16.3433 44.6497 16.4973 44.6124 16.656C44.5751 16.8053 44.5051 16.936 44.4024 17.048C44.2997 17.16 44.1691 17.23 44.0104 17.258C43.8611 17.286 43.6931 17.2487 43.5064 17.146C43.1517 16.9407 42.7924 16.7913 42.4284 16.698C42.0644 16.6047 41.6584 16.558 41.2104 16.558C40.5197 16.558 39.9364 16.698 39.4604 16.978C38.9844 17.2487 38.6251 17.6453 38.3824 18.168C38.1491 18.6907 38.0324 19.33 38.0324 20.086C38.0324 21.234 38.3077 22.1067 38.8584 22.704C39.4091 23.3013 40.2257 23.6 41.3084 23.6C41.6817 23.6 42.0597 23.5627 42.4424 23.488C42.8251 23.4133 43.1984 23.3107 43.5624 23.18L43.2124 23.978V20.996H41.6724C41.4391 20.996 41.2571 20.9353 41.1264 20.814C41.0051 20.6927 40.9444 20.5293 40.9444 20.324C40.9444 20.1093 41.0051 19.946 41.1264 19.834C41.2571 19.722 41.4391 19.666 41.6724 19.666H43.9824C44.2157 19.666 44.3931 19.7313 44.5144 19.862C44.6451 19.9833 44.7104 20.1607 44.7104 20.394V23.796C44.7104 24.0013 44.6684 24.174 44.5844 24.314C44.5097 24.454 44.3837 24.5567 44.2064 24.622C43.7957 24.7713 43.3244 24.8973 42.7924 25C42.2604 25.0933 41.7377 25.14 41.2244 25.14ZM47.683 25.112C47.3937 25.112 47.1697 25.0327 47.011 24.874C46.8617 24.706 46.787 24.4773 46.787 24.188V16.04C46.787 15.7413 46.8663 15.5173 47.025 15.368C47.1837 15.2093 47.4077 15.13 47.697 15.13H51.071C52.1537 15.13 52.989 15.3913 53.577 15.914C54.165 16.4273 54.459 17.1507 54.459 18.084C54.459 18.6907 54.3237 19.2133 54.053 19.652C53.7917 20.0907 53.409 20.4267 52.905 20.66C52.401 20.8933 51.7897 21.01 51.071 21.01L51.197 20.8H51.659C52.0417 20.8 52.373 20.8933 52.653 21.08C52.9423 21.2667 53.1943 21.5607 53.409 21.962L54.459 23.908C54.571 24.104 54.6223 24.2953 54.613 24.482C54.6037 24.6687 54.5337 24.8227 54.403 24.944C54.2723 25.056 54.081 25.112 53.829 25.112C53.577 25.112 53.3717 25.0607 53.213 24.958C53.0543 24.846 52.9143 24.678 52.793 24.454L51.379 21.85C51.211 21.5327 51.0103 21.3227 50.777 21.22C50.553 21.108 50.2637 21.052 49.909 21.052H48.579V24.188C48.579 24.4773 48.5043 24.706 48.355 24.874C48.2057 25.0327 47.9817 25.112 47.683 25.112ZM48.579 19.722H50.763C51.407 19.722 51.8923 19.5913 52.219 19.33C52.555 19.0593 52.723 18.658 52.723 18.126C52.723 17.6033 52.555 17.2113 52.219 16.95C51.8923 16.6793 51.407 16.544 50.763 16.544H48.579V19.722ZM56.3049 25.112C56.0809 25.112 55.8989 25.0607 55.7589 24.958C55.6282 24.8553 55.5489 24.72 55.5209 24.552C55.4929 24.3747 55.5256 24.1787 55.6189 23.964L59.3149 15.774C59.4362 15.5033 59.5809 15.312 59.7489 15.2C59.9262 15.0787 60.1269 15.018 60.3509 15.018C60.5656 15.018 60.7569 15.0787 60.9249 15.2C61.1022 15.312 61.2516 15.5033 61.3729 15.774L65.0829 23.964C65.1856 24.1787 65.2229 24.3747 65.1949 24.552C65.1669 24.7293 65.0876 24.8693 64.9569 24.972C64.8262 25.0653 64.6536 25.112 64.4389 25.112C64.1776 25.112 63.9722 25.0513 63.8229 24.93C63.6829 24.7993 63.5569 24.6033 63.4449 24.342L62.5349 22.228L63.2909 22.718H57.3829L58.1389 22.228L57.2429 24.342C57.1216 24.6127 56.9956 24.8087 56.8649 24.93C56.7342 25.0513 56.5476 25.112 56.3049 25.112ZM60.3229 17.076L58.3629 21.738L57.9989 21.29H62.6749L62.3249 21.738L60.3509 17.076H60.3229ZM67.5769 25C67.2689 25 67.0309 24.9207 66.8629 24.762C66.7042 24.594 66.6249 24.356 66.6249 24.048V16.082C66.6249 15.774 66.7042 15.5407 66.8629 15.382C67.0309 15.214 67.2689 15.13 67.5769 15.13H70.2929C71.9449 15.13 73.2189 15.5547 74.1149 16.404C75.0202 17.2533 75.4729 18.4713 75.4729 20.058C75.4729 20.8513 75.3562 21.556 75.1229 22.172C74.8989 22.7787 74.5629 23.292 74.1149 23.712C73.6762 24.132 73.1349 24.454 72.4909 24.678C71.8562 24.8927 71.1235 25 70.2929 25H67.5769ZM68.4169 23.516H70.1809C70.7595 23.516 71.2589 23.446 71.6789 23.306C72.1082 23.1567 72.4629 22.942 72.7429 22.662C73.0322 22.3727 73.2469 22.0133 73.3869 21.584C73.5269 21.1453 73.5969 20.6367 73.5969 20.058C73.5969 18.9007 73.3122 18.0373 72.7429 17.468C72.1735 16.8987 71.3195 16.614 70.1809 16.614H68.4169V23.516ZM78.2409 25C77.9329 25 77.6949 24.9207 77.5269 24.762C77.3683 24.594 77.2889 24.356 77.2889 24.048V16.082C77.2889 15.774 77.3683 15.5407 77.5269 15.382C77.6949 15.214 77.9329 15.13 78.2409 15.13H83.2389C83.4723 15.13 83.6496 15.1907 83.7709 15.312C83.9016 15.4333 83.9669 15.606 83.9669 15.83C83.9669 16.0633 83.9016 16.2453 83.7709 16.376C83.6496 16.4973 83.4723 16.558 83.2389 16.558H79.0109V19.274H82.9309C83.1736 19.274 83.3556 19.3347 83.4769 19.456C83.5983 19.5773 83.6589 19.7547 83.6589 19.988C83.6589 20.2213 83.5983 20.3987 83.4769 20.52C83.3556 20.6413 83.1736 20.702 82.9309 20.702H79.0109V23.572H83.2389C83.4723 23.572 83.6496 23.6327 83.7709 23.754C83.9016 23.8753 83.9669 24.0527 83.9669 24.286C83.9669 24.5193 83.9016 24.6967 83.7709 24.818C83.6496 24.9393 83.4723 25 83.2389 25H78.2409Z" fill="#6744FF"/>
<path fill-rule="evenodd" clip-rule="evenodd" d="M96.5 13.75C96.7791 13.75 97.0243 13.935 97.101 14.2033L97.7786 16.5751C98.0752 17.6133 98.8867 18.4248 99.9249 18.7214L102.297 19.399C102.565 19.4757 102.75 19.7209 102.75 20C102.75 20.2791 102.565 20.5243 102.297 20.601L99.9249 21.2786C98.8867 21.5752 98.0752 22.3867 97.7786 23.4249L97.101 25.7967C97.0243 26.065 96.7791 26.25 96.5 26.25C96.2209 26.25 95.9757 26.065 95.899 25.7967L95.2214 23.4249C94.9248 22.3867 94.1133 21.5752 93.0751 21.2786L90.7033 20.601C90.435 20.5243 90.25 20.2791 90.25 20C90.25 19.7209 90.435 19.4757 90.7033 19.399L93.0751 18.7214C94.1133 18.4248 94.9248 17.6133 95.2214 16.5751L95.899 14.2033C95.9757 13.935 96.2209 13.75 96.5 13.75Z" fill="#B9B1FF"/>
<path fill-rule="evenodd" clip-rule="evenodd" d="M104 11.25C104.287 11.25 104.537 11.4452 104.606 11.7234L104.822 12.5863C105.018 13.37 105.63 13.982 106.414 14.1779L107.277 14.3937C107.555 14.4632 107.75 14.7132 107.75 15C107.75 15.2868 107.555 15.5368 107.277 15.6063L106.414 15.8221C105.63 16.018 105.018 16.63 104.822 17.4137L104.606 18.2766C104.537 18.5548 104.287 18.75 104 18.75C103.713 18.75 103.463 18.5548 103.394 18.2766L103.178 17.4137C102.982 16.63 102.37 16.018 101.586 15.8221L100.723 15.6063C100.445 15.5368 100.25 15.2868 100.25 15C100.25 14.7132 100.445 14.4632 100.723 14.3937L101.586 14.1779C102.37 13.982 102.982 13.37 103.178 12.5863L103.394 11.7234C103.463 11.4452 103.713 11.25 104 11.25Z" fill="#B9B1FF"/>
<path fill-rule="evenodd" clip-rule="evenodd" d="M102.75 22.5C103.019 22.5 103.258 22.6721 103.343 22.9274L103.671 23.913C103.796 24.2862 104.089 24.5791 104.462 24.7035L105.448 25.0321C105.703 25.1171 105.875 25.356 105.875 25.625C105.875 25.894 105.703 26.1329 105.448 26.2179L104.462 26.5465C104.089 26.6709 103.796 26.9638 103.671 27.337L103.343 28.3226C103.258 28.5779 103.019 28.75 102.75 28.75C102.481 28.75 102.242 28.5779 102.157 28.3226L101.829 27.337C101.704 26.9638 101.411 26.6709 101.038 26.5465L100.052 26.2179C99.7971 26.1329 99.625 25.894 99.625 25.625C99.625 25.356 99.7971 25.1171 100.052 25.0321L101.038 24.7035C101.411 24.5791 101.704 24.2862 101.829 23.913L102.157 22.9274C102.242 22.6721 102.481 22.5 102.75 22.5Z" fill="#B9B1FF"/>
</svg>
