<svg width="392" height="226" viewBox="0 0 392 226" fill="none" xmlns="http://www.w3.org/2000/svg">
<path d="M354 110.44C354 123.796 283.261 134.623 196 134.623C108.739 134.623 38 123.796 38 110.44C38 97.0833 108.739 86.2559 196 86.2559C283.261 86.2559 354 97.0833 354 110.44Z" fill="#E5E7EB"/>
<path d="M57.2363 83.9235C60.6612 58.3767 89.9774 45.7437 110.115 45.7437C130.253 45.7437 161.487 58.9381 164.09 83.9235C166.282 122.665 155.185 123.367 110.115 123.507C65.0449 123.647 54.6336 119.998 57.2363 83.9235Z" fill="#128841"/>
<ellipse cx="1.09593" cy="1.12294" rx="1.09593" ry="1.12294" transform="matrix(-1 0 0 1 111.662 73.5371)" fill="white"/>
<ellipse cx="1.09593" cy="1.12294" rx="1.09593" ry="1.12294" transform="matrix(-1 0 0 1 111.662 81.397)" fill="white"/>
<path d="M108.277 69.3283L107.731 69.568C103.773 71.3059 99.334 68.407 99.334 64.0846C99.334 60.777 102.015 58.0957 105.323 58.0957H116.36C119.667 58.0957 122.349 60.777 122.349 64.0846C122.349 68.407 117.909 71.3059 113.952 69.568L113.406 69.3283C111.771 68.6106 109.911 68.6106 108.277 69.3283Z" fill="white"/>
<path d="M110.564 90.6616L110.564 99.9258" stroke="white" stroke-width="6" stroke-linecap="round"/>
<path d="M148.063 34.1462C147.979 59.4072 130.575 65.7562 110.05 65.6847C89.5252 65.6132 72.9089 58.7687 72.9915 33.8847C73.053 15.3524 89.7404 0.764025 110.265 0.835535C130.791 0.907045 148.124 15.614 148.063 34.1462Z" fill="#D6D4FF"/>
<rect width="5.47974" height="13.1943" rx="2.73987" transform="matrix(0.999976 -0.00511766 0.00487462 0.999999 101.477 18.9922)" fill="white"/>
<rect width="5.20575" height="13.1943" rx="2.60287" transform="matrix(0.999976 -0.00511766 0.00487462 0.999999 115.178 18.9214)" fill="white"/>
<path d="M279.91 49.4009C276.108 49.4009 271.978 49.8301 267.758 50.6904C270.718 57.5436 274.926 76.1769 272.683 103.18C273.024 107.55 274.946 116.291 279.91 116.291C284.874 116.291 286.453 107.55 286.622 103.18C283.605 66.8674 288.617 53.0434 292.008 50.6904C287.763 49.8336 283.645 49.4009 279.91 49.4009Z" fill="#895623"/>
<path fill-rule="evenodd" clip-rule="evenodd" d="M227.031 85.7889C229.809 66.0382 249.625 54.3863 267.758 50.6904C270.718 57.5436 274.926 76.1769 272.683 103.18C272.158 109.499 271.28 116.275 269.95 123.467C233.289 122.914 224.632 117.478 227.031 85.7889ZM288.873 123.467C326.467 123.11 335.924 120.13 333.885 85.7889C331.765 66.3932 310.65 54.4528 292.008 50.6904C288.617 53.0434 283.605 66.8674 286.622 103.18C287.13 109.289 287.865 116.033 288.873 123.467Z" fill="#122B70"/>
<path d="M269.95 123.467C273.064 123.514 276.381 123.525 279.91 123.515C283.061 123.505 286.046 123.493 288.873 123.467C287.865 116.033 287.13 109.289 286.622 103.18C286.453 107.55 284.874 116.291 279.91 116.291C274.946 116.291 273.024 107.55 272.683 103.18C272.158 109.499 271.28 116.275 269.95 123.467Z" fill="#C4B8FF"/>
<g filter="url(#filter0_d_4306_82859)">
<path d="M296.756 79.4395H305.523" stroke="white" stroke-width="3" stroke-linecap="round"/>
</g>
<ellipse cx="1.09593" cy="1.12294" rx="1.09593" ry="1.12294" transform="matrix(-1 0 0 1 268.535 78.3169)" fill="#D9D9D9"/>
<ellipse cx="1.09593" cy="1.12294" rx="1.09593" ry="1.12294" transform="matrix(-1 0 0 1 268.535 102.459)" fill="#D9D9D9"/>
<path d="M243.209 34.8554C243.143 60.1164 260.508 66.5738 281.033 66.6303C301.558 66.6868 318.215 59.946 318.28 35.062C318.329 16.5297 301.728 1.8375 281.203 1.781C260.678 1.7245 243.258 16.323 243.209 34.8554Z" fill="#D6D4FF"/>
<path d="M275.576 25.7425C276.296 28.632 274.593 31.5722 271.773 32.3096C268.953 33.0471 266.084 31.3026 265.364 28.4131C264.644 25.5237 266.347 22.5835 269.167 21.846C271.987 21.1085 274.856 22.8531 275.576 25.7425Z" fill="white"/>
<path d="M296.665 25.8C297.385 28.6895 295.682 31.6297 292.862 32.3672C290.042 33.1046 287.173 31.3601 286.453 28.4707C285.733 25.5812 287.436 22.641 290.256 21.9035C293.076 21.1661 295.945 22.9106 296.665 25.8Z" fill="white"/>
<path fill-rule="evenodd" clip-rule="evenodd" d="M279.701 24.1837C277.692 24.3818 276.034 25.3945 275.136 26.2545L274.388 25.4343C275.431 24.4348 277.307 23.2917 279.596 23.0659C281.913 22.8374 284.603 23.555 287.212 26.2018L286.441 26.9997C284.055 24.5786 281.682 23.9883 279.701 24.1837Z" fill="white"/>
<path d="M248.986 85.6155C247.67 72.9814 239.033 63.3622 228.212 56.9392C226.027 55.642 223.752 54.4751 221.43 53.4401C216.549 51.2638 211.461 49.6706 206.559 48.6744C201.627 55.761 194.202 80.9771 203.956 125.149C210.094 125.088 215.483 124.954 220.194 124.615C222.859 124.424 225.308 124.167 227.553 123.821C245.65 121.03 250.504 112.444 248.986 85.6155Z" fill="#AA9FE0"/>
<path d="M182.585 48.8479C176.956 50.0767 171.175 52.1084 165.799 54.9476C163.479 56.1728 161.235 57.5484 159.111 59.0747C150.367 65.3585 143.664 74.1971 142.133 85.6155C140.443 109.043 144.241 118.795 159.456 122.715C161.643 123.279 164.067 123.722 166.744 124.068C172.329 124.789 179.017 125.087 186.969 125.174C194.421 84.0545 187.152 57.1568 182.585 48.8479Z" fill="#AA9FE0"/>
<path d="M195.012 47.4357C191.127 47.4357 186.901 47.9058 182.585 48.8479C187.152 57.1568 194.421 84.0545 186.969 125.174C189.518 125.202 192.197 125.208 195.012 125.199C198.156 125.189 201.135 125.177 203.956 125.149C194.202 80.9771 201.627 55.761 206.559 48.6744C202.508 47.8512 198.585 47.4357 195.012 47.4357Z" fill="#AA9FE0"/>
<path d="M248.986 85.6155C247.67 72.9814 239.033 63.3622 228.212 56.9392C226.027 55.642 223.752 54.4751 221.43 53.4401C216.549 51.2638 211.461 49.6706 206.559 48.6744C201.627 55.761 194.202 80.9771 203.956 125.149C210.094 125.088 215.483 124.954 220.194 124.615C222.859 124.424 225.308 124.167 227.553 123.821C245.65 121.03 250.504 112.444 248.986 85.6155Z" fill="#9B0000"/>
<path d="M182.585 48.8479C176.956 50.0767 171.175 52.1084 165.799 54.9476C163.479 56.1728 161.235 57.5484 159.111 59.0747C150.367 65.3585 143.664 74.1971 142.133 85.6155C140.443 109.043 144.241 118.795 159.456 122.715C161.643 123.279 164.067 123.722 166.744 124.068C172.329 124.789 179.017 125.087 186.969 125.174C194.421 84.0545 187.152 57.1568 182.585 48.8479Z" fill="#9B0000"/>
<path d="M182.859 77.1935C182.859 77.8137 183.35 78.3164 183.955 78.3164C184.56 78.3164 185.051 77.8137 185.051 77.1935C185.051 76.5733 184.56 76.0706 183.955 76.0706C183.35 76.0706 182.859 76.5733 182.859 77.1935Z" fill="#D9D9D9"/>
<path d="M182.859 94.3183C182.859 94.9384 183.35 95.4412 183.955 95.4412C184.56 95.4412 185.051 94.9384 185.051 94.3183C185.051 93.6981 184.56 93.1953 183.955 93.1953C183.35 93.1953 182.859 93.6981 182.859 94.3183Z" fill="#D9D9D9"/>
<path d="M182.859 111.443C182.859 112.063 183.35 112.566 183.955 112.566C184.56 112.566 185.051 112.063 185.051 111.443C185.051 110.823 184.56 110.32 183.955 110.32C183.35 110.32 182.859 110.823 182.859 111.443Z" fill="#D9D9D9"/>
<path d="M203.408 77.1935C203.408 77.8137 203.899 78.3164 204.504 78.3164C205.109 78.3164 205.6 77.8137 205.6 77.1935C205.6 76.5733 205.109 76.0706 204.504 76.0706C203.899 76.0706 203.408 76.5733 203.408 77.1935Z" fill="#D9D9D9"/>
<path d="M203.408 94.3183C203.408 94.9384 203.899 95.4412 204.504 95.4412C205.109 95.4412 205.6 94.9384 205.6 94.3183C205.6 93.6981 205.109 93.1953 204.504 93.1953C203.899 93.1953 203.408 93.6981 203.408 94.3183Z" fill="#D9D9D9"/>
<path d="M203.408 111.443C203.408 112.063 203.899 112.566 204.504 112.566C205.109 112.566 205.6 112.063 205.6 111.443C205.6 110.823 205.109 110.32 204.504 110.32C203.899 110.32 203.408 110.823 203.408 111.443Z" fill="#D9D9D9"/>
<path fill-rule="evenodd" clip-rule="evenodd" d="M161.311 76.8806C160.862 69.6773 160.047 63.7512 159.111 59.0747C161.235 57.5484 163.479 56.1728 165.799 54.9476C167.077 60.5087 168.15 67.6745 168.694 76.3976C169.474 88.9237 169.172 104.816 166.744 124.068C164.067 123.722 161.643 123.279 159.456 122.715C161.783 104.082 162.054 88.8046 161.311 76.8806ZM218.175 76.3976C218.769 66.8645 219.996 59.1915 221.43 53.4401C223.752 54.4751 226.027 55.642 228.212 56.9392C227.09 61.8994 226.078 68.5322 225.558 76.8806C224.8 89.0395 225.096 104.686 227.553 123.821C225.308 124.167 222.859 124.424 220.194 124.615C217.702 105.117 217.387 89.0422 218.175 76.3976Z" fill="#FB6F84"/>
<path d="M160.309 50.5234C160.309 54.2685 163.87 62.4397 178.118 66.5253" stroke="#FCC3C3" stroke-width="10" stroke-linecap="round"/>
<path d="M229.898 50.5234C229.898 54.2685 226.337 62.4397 212.09 66.5253" stroke="#FCC3C3" stroke-width="10" stroke-linecap="round"/>
<path d="M232.957 34.9817C232.873 60.2427 215.47 66.5916 194.945 66.5201C174.42 66.4486 157.803 59.6041 157.886 34.7201C157.947 16.1879 174.635 1.59947 195.16 1.67098C215.685 1.74249 233.019 16.4494 232.957 34.9817Z" fill="#D6D4FF"/>
<rect width="5.47974" height="13.1943" rx="2.73987" transform="matrix(0.999976 -0.00511766 0.00487462 0.999999 186.371 19.8252)" fill="white"/>
<rect width="5.20575" height="13.1943" rx="2.60287" transform="matrix(0.999976 -0.00511766 0.00487462 0.999999 200.072 19.7559)" fill="white"/>
<path d="M65.8485 177.614C65.8485 175.396 66.3285 173.422 67.2885 171.694C68.2485 169.945 69.5818 168.59 71.2885 167.63C73.0165 166.649 74.9685 166.158 77.1445 166.158C79.8112 166.158 82.0938 166.862 83.9925 168.27C85.8912 169.678 87.1605 171.598 87.8005 174.03H81.7845C81.3365 173.092 80.6965 172.377 79.8645 171.886C79.0538 171.396 78.1258 171.15 77.0805 171.15C75.3952 171.15 74.0298 171.737 72.9845 172.91C71.9392 174.084 71.4165 175.652 71.4165 177.614C71.4165 179.577 71.9392 181.145 72.9845 182.318C74.0298 183.492 75.3952 184.078 77.0805 184.078C78.1258 184.078 79.0538 183.833 79.8645 183.342C80.6965 182.852 81.3365 182.137 81.7845 181.198H87.8005C87.1605 183.63 85.8912 185.55 83.9925 186.958C82.0938 188.345 79.8112 189.038 77.1445 189.038C74.9685 189.038 73.0165 188.558 71.2885 187.598C69.5818 186.617 68.2485 185.262 67.2885 183.534C66.3285 181.806 65.8485 179.833 65.8485 177.614ZM98.6395 189.134C96.8902 189.134 95.3115 188.761 93.9035 188.014C92.5168 187.268 91.4182 186.201 90.6075 184.814C89.8182 183.428 89.4235 181.806 89.4235 179.95C89.4235 178.116 89.8288 176.505 90.6395 175.118C91.4502 173.71 92.5595 172.633 93.9675 171.886C95.3755 171.14 96.9542 170.766 98.7035 170.766C100.453 170.766 102.031 171.14 103.439 171.886C104.847 172.633 105.957 173.71 106.767 175.118C107.578 176.505 107.983 178.116 107.983 179.95C107.983 181.785 107.567 183.406 106.735 184.814C105.925 186.201 104.805 187.268 103.375 188.014C101.967 188.761 100.389 189.134 98.6395 189.134ZM98.6395 184.398C99.6848 184.398 100.57 184.014 101.295 183.246C102.042 182.478 102.415 181.38 102.415 179.95C102.415 178.521 102.053 177.422 101.327 176.654C100.623 175.886 99.7488 175.502 98.7035 175.502C97.6368 175.502 96.7515 175.886 96.0475 176.654C95.3435 177.401 94.9915 178.5 94.9915 179.95C94.9915 181.38 95.3328 182.478 96.0155 183.246C96.7195 184.014 97.5942 184.398 98.6395 184.398ZM121.126 170.83C123.217 170.83 124.881 171.513 126.118 172.878C127.377 174.222 128.006 176.078 128.006 178.446V188.878H122.566V179.182C122.566 177.988 122.257 177.06 121.638 176.398C121.02 175.737 120.188 175.406 119.142 175.406C118.097 175.406 117.265 175.737 116.646 176.398C116.028 177.06 115.718 177.988 115.718 179.182V188.878H110.246V171.022H115.718V173.39C116.273 172.601 117.02 171.982 117.958 171.534C118.897 171.065 119.953 170.83 121.126 170.83ZM137.953 170.766C139.212 170.766 140.31 171.022 141.249 171.534C142.209 172.046 142.945 172.718 143.457 173.55V171.022H148.929V188.846C148.929 190.489 148.598 191.972 147.937 193.294C147.297 194.638 146.305 195.705 144.961 196.494C143.638 197.284 141.985 197.678 140.001 197.678C137.356 197.678 135.212 197.049 133.569 195.79C131.926 194.553 130.988 192.868 130.753 190.734H136.161C136.332 191.417 136.737 191.95 137.377 192.334C138.017 192.74 138.806 192.942 139.745 192.942C140.876 192.942 141.772 192.612 142.433 191.95C143.116 191.31 143.457 190.276 143.457 188.846V186.318C142.924 187.15 142.188 187.833 141.249 188.366C140.31 188.878 139.212 189.134 137.953 189.134C136.481 189.134 135.148 188.761 133.953 188.014C132.758 187.246 131.809 186.169 131.105 184.782C130.422 183.374 130.081 181.753 130.081 179.918C130.081 178.084 130.422 176.473 131.105 175.086C131.809 173.7 132.758 172.633 133.953 171.886C135.148 171.14 136.481 170.766 137.953 170.766ZM143.457 179.95C143.457 178.585 143.073 177.508 142.305 176.718C141.558 175.929 140.641 175.534 139.553 175.534C138.465 175.534 137.537 175.929 136.769 176.718C136.022 177.486 135.649 178.553 135.649 179.918C135.649 181.284 136.022 182.372 136.769 183.182C137.537 183.972 138.465 184.366 139.553 184.366C140.641 184.366 141.558 183.972 142.305 183.182C143.073 182.393 143.457 181.316 143.457 179.95ZM157.72 173.998C158.36 173.017 159.16 172.249 160.12 171.694C161.08 171.118 162.146 170.83 163.32 170.83V176.622H161.816C160.45 176.622 159.426 176.921 158.744 177.518C158.061 178.094 157.72 179.118 157.72 180.59V188.878H152.248V171.022H157.72V173.998ZM164.207 179.918C164.207 178.084 164.549 176.473 165.231 175.086C165.935 173.7 166.885 172.633 168.079 171.886C169.274 171.14 170.607 170.766 172.079 170.766C173.338 170.766 174.437 171.022 175.375 171.534C176.335 172.046 177.071 172.718 177.583 173.55V171.022H183.055V188.878H177.583V186.35C177.05 187.182 176.303 187.854 175.343 188.366C174.405 188.878 173.306 189.134 172.047 189.134C170.597 189.134 169.274 188.761 168.079 188.014C166.885 187.246 165.935 186.169 165.231 184.782C164.549 183.374 164.207 181.753 164.207 179.918ZM177.583 179.95C177.583 178.585 177.199 177.508 176.431 176.718C175.685 175.929 174.767 175.534 173.679 175.534C172.591 175.534 171.663 175.929 170.895 176.718C170.149 177.486 169.775 178.553 169.775 179.918C169.775 181.284 170.149 182.372 170.895 183.182C171.663 183.972 172.591 184.366 173.679 184.366C174.767 184.366 175.685 183.972 176.431 183.182C177.199 182.393 177.583 181.316 177.583 179.95ZM196.326 184.238V188.878H193.542C191.558 188.878 190.011 188.398 188.902 187.438C187.793 186.457 187.238 184.868 187.238 182.67V175.566H185.062V171.022H187.238V166.67H192.71V171.022H196.294V175.566H192.71V182.734C192.71 183.268 192.838 183.652 193.094 183.886C193.35 184.121 193.777 184.238 194.374 184.238H196.326ZM216.366 171.022V188.878H210.894V186.446C210.339 187.236 209.582 187.876 208.622 188.366C207.683 188.836 206.638 189.07 205.486 189.07C204.121 189.07 202.915 188.772 201.87 188.174C200.825 187.556 200.014 186.67 199.438 185.518C198.862 184.366 198.574 183.012 198.574 181.454V171.022H204.014V180.718C204.014 181.913 204.323 182.841 204.942 183.502C205.561 184.164 206.393 184.494 207.438 184.494C208.505 184.494 209.347 184.164 209.966 183.502C210.585 182.841 210.894 181.913 210.894 180.718V171.022H216.366ZM225.129 165.198V188.878H219.657V165.198H225.129ZM227.366 179.918C227.366 178.084 227.707 176.473 228.39 175.086C229.094 173.7 230.043 172.633 231.238 171.886C232.433 171.14 233.766 170.766 235.238 170.766C236.497 170.766 237.595 171.022 238.534 171.534C239.494 172.046 240.23 172.718 240.742 173.55V171.022H246.214V188.878H240.742V186.35C240.209 187.182 239.462 187.854 238.502 188.366C237.563 188.878 236.465 189.134 235.206 189.134C233.755 189.134 232.433 188.761 231.238 188.014C230.043 187.246 229.094 186.169 228.39 184.782C227.707 183.374 227.366 181.753 227.366 179.918ZM240.742 179.95C240.742 178.585 240.358 177.508 239.59 176.718C238.843 175.929 237.926 175.534 236.838 175.534C235.75 175.534 234.822 175.929 234.054 176.718C233.307 177.486 232.934 178.553 232.934 179.918C232.934 181.284 233.307 182.372 234.054 183.182C234.822 183.972 235.75 184.366 236.838 184.366C237.926 184.366 238.843 183.972 239.59 183.182C240.358 182.393 240.742 181.316 240.742 179.95ZM259.485 184.238V188.878H256.701C254.717 188.878 253.17 188.398 252.061 187.438C250.951 186.457 250.397 184.868 250.397 182.67V175.566H248.221V171.022H250.397V166.67H255.869V171.022H259.453V175.566H255.869V182.734C255.869 183.268 255.997 183.652 256.253 183.886C256.509 184.121 256.935 184.238 257.533 184.238H259.485ZM264.645 169.166C263.685 169.166 262.895 168.889 262.277 168.334C261.679 167.758 261.381 167.054 261.381 166.222C261.381 165.369 261.679 164.665 262.277 164.11C262.895 163.534 263.685 163.246 264.645 163.246C265.583 163.246 266.351 163.534 266.949 164.11C267.567 164.665 267.877 165.369 267.877 166.222C267.877 167.054 267.567 167.758 266.949 168.334C266.351 168.889 265.583 169.166 264.645 169.166ZM267.365 171.022V188.878H261.893V171.022H267.365ZM278.818 189.134C277.069 189.134 275.49 188.761 274.082 188.014C272.696 187.268 271.597 186.201 270.786 184.814C269.997 183.428 269.602 181.806 269.602 179.95C269.602 178.116 270.008 176.505 270.818 175.118C271.629 173.71 272.738 172.633 274.146 171.886C275.554 171.14 277.133 170.766 278.882 170.766C280.632 170.766 282.21 171.14 283.618 171.886C285.026 172.633 286.136 173.71 286.946 175.118C287.757 176.505 288.162 178.116 288.162 179.95C288.162 181.785 287.746 183.406 286.914 184.814C286.104 186.201 284.984 187.268 283.554 188.014C282.146 188.761 280.568 189.134 278.818 189.134ZM278.818 184.398C279.864 184.398 280.749 184.014 281.474 183.246C282.221 182.478 282.594 181.38 282.594 179.95C282.594 178.521 282.232 177.422 281.506 176.654C280.802 175.886 279.928 175.502 278.882 175.502C277.816 175.502 276.93 175.886 276.226 176.654C275.522 177.401 275.17 178.5 275.17 179.95C275.17 181.38 275.512 182.478 276.194 183.246C276.898 184.014 277.773 184.398 278.818 184.398ZM301.305 170.83C303.396 170.83 305.06 171.513 306.297 172.878C307.556 174.222 308.185 176.078 308.185 178.446V188.878H302.745V179.182C302.745 177.988 302.436 177.06 301.817 176.398C301.199 175.737 300.367 175.406 299.321 175.406C298.276 175.406 297.444 175.737 296.825 176.398C296.207 177.06 295.897 177.988 295.897 179.182V188.878H290.425V171.022H295.897V173.39C296.452 172.601 297.199 171.982 298.137 171.534C299.076 171.065 300.132 170.83 301.305 170.83ZM318.612 189.134C317.054 189.134 315.668 188.868 314.452 188.334C313.236 187.801 312.276 187.076 311.572 186.158C310.868 185.22 310.473 184.174 310.388 183.022H315.796C315.86 183.641 316.148 184.142 316.66 184.526C317.172 184.91 317.801 185.102 318.548 185.102C319.23 185.102 319.753 184.974 320.116 184.718C320.5 184.441 320.692 184.089 320.692 183.662C320.692 183.15 320.425 182.777 319.892 182.542C319.358 182.286 318.494 182.009 317.3 181.71C316.02 181.412 314.953 181.102 314.1 180.782C313.246 180.441 312.51 179.918 311.892 179.214C311.273 178.489 310.964 177.518 310.964 176.302C310.964 175.278 311.241 174.35 311.796 173.518C312.372 172.665 313.204 171.993 314.292 171.502C315.401 171.012 316.713 170.766 318.228 170.766C320.468 170.766 322.228 171.321 323.508 172.43C324.809 173.54 325.556 175.012 325.748 176.846H320.692C320.606 176.228 320.329 175.737 319.86 175.374C319.412 175.012 318.814 174.83 318.068 174.83C317.428 174.83 316.937 174.958 316.596 175.214C316.254 175.449 316.084 175.78 316.084 176.206C316.084 176.718 316.35 177.102 316.884 177.358C317.438 177.614 318.292 177.87 319.444 178.126C320.766 178.468 321.844 178.809 322.676 179.15C323.508 179.47 324.233 180.004 324.852 180.75C325.492 181.476 325.822 182.457 325.844 183.694C325.844 184.74 325.545 185.678 324.948 186.51C324.372 187.321 323.529 187.961 322.42 188.43C321.332 188.9 320.062 189.134 318.612 189.134Z" fill="#3A3B3C"/>
<path d="M55.8999 210.697H57.3119L60.1357 215.449H60.2551L63.0789 210.697H64.4909L60.8119 216.682V220.878H59.5789V216.682L55.8999 210.697ZM67.9486 221.038C67.2592 221.038 66.6543 220.873 66.134 220.545C65.6169 220.217 65.2126 219.758 64.9209 219.168C64.6325 218.578 64.4884 217.889 64.4884 217.1C64.4884 216.305 64.6325 215.61 64.9209 215.017C65.2126 214.424 65.6169 213.963 66.134 213.635C66.6543 213.307 67.2592 213.143 67.9486 213.143C68.638 213.143 69.2412 213.307 69.7583 213.635C70.2786 213.963 70.683 214.424 70.9713 215.017C71.263 215.61 71.4088 216.305 71.4088 217.1C71.4088 217.889 71.263 218.578 70.9713 219.168C70.683 219.758 70.2786 220.217 69.7583 220.545C69.2412 220.873 68.638 221.038 67.9486 221.038ZM67.9486 219.984C68.4723 219.984 68.9031 219.849 69.2412 219.581C69.5793 219.312 69.8295 218.959 69.9919 218.522C70.1543 218.084 70.2355 217.61 70.2355 217.1C70.2355 216.59 70.1543 216.114 69.9919 215.673C69.8295 215.232 69.5793 214.876 69.2412 214.604C68.9031 214.332 68.4723 214.197 67.9486 214.197C67.4249 214.197 66.9941 214.332 66.656 214.604C66.3179 214.876 66.0677 215.232 65.9053 215.673C65.7429 216.114 65.6617 216.59 65.6617 217.1C65.6617 217.61 65.7429 218.084 65.9053 218.522C66.0677 218.959 66.3179 219.312 66.656 219.581C66.9941 219.849 67.4249 219.984 67.9486 219.984ZM78.0123 217.756V213.242H79.1856V220.878H78.0123V219.586H77.9328C77.7538 219.974 77.4754 220.303 77.0976 220.575C76.7197 220.844 76.2425 220.978 75.6657 220.978C75.1885 220.978 74.7642 220.873 74.393 220.665C74.0218 220.453 73.7301 220.134 73.518 219.71C73.3059 219.283 73.1998 218.744 73.1998 218.094V213.242H74.3731V218.015C74.3731 218.572 74.5289 219.016 74.8405 219.347C75.1553 219.679 75.5564 219.844 76.0436 219.844C76.3353 219.844 76.6319 219.77 76.9335 219.621C77.2384 219.471 77.4936 219.243 77.6991 218.935C77.9079 218.626 78.0123 218.234 78.0123 217.756ZM86.4454 216.285V220.878H85.2721V210.697H86.4454V214.435H86.5448C86.7238 214.041 86.9923 213.728 87.3502 213.496C87.7115 213.26 88.1921 213.143 88.792 213.143C89.3124 213.143 89.7681 213.247 90.1592 213.456C90.5503 213.661 90.8535 213.978 91.069 214.405C91.2877 214.83 91.3971 215.37 91.3971 216.026V220.878H90.2238V216.106C90.2238 215.499 90.0664 215.03 89.7515 214.699C89.44 214.364 89.0074 214.197 88.4539 214.197C88.0695 214.197 87.7248 214.278 87.4198 214.44C87.1182 214.603 86.8796 214.84 86.7039 215.151C86.5316 215.463 86.4454 215.841 86.4454 216.285ZM95.7907 221.057C95.3068 221.057 94.8677 220.966 94.4733 220.784C94.0789 220.598 93.7657 220.332 93.5336 219.984C93.3016 219.632 93.1856 219.208 93.1856 218.711C93.1856 218.273 93.2718 217.919 93.4442 217.647C93.6165 217.372 93.8469 217.156 94.1352 217.001C94.4236 216.845 94.7417 216.729 95.0898 216.653C95.4411 216.573 95.7941 216.51 96.1487 216.464C96.6127 216.404 96.9889 216.359 97.2773 216.329C97.5689 216.296 97.781 216.242 97.9136 216.165C98.0495 216.089 98.1175 215.957 98.1175 215.768V215.728C98.1175 215.237 97.9832 214.856 97.7148 214.584C97.4496 214.313 97.0469 214.177 96.5067 214.177C95.9465 214.177 95.5074 214.299 95.1892 214.545C94.871 214.79 94.6473 215.052 94.518 215.33L93.4044 214.932C93.6032 214.468 93.8684 214.107 94.1998 213.849C94.5346 213.587 94.8992 213.404 95.2936 213.302C95.6913 213.196 96.0824 213.143 96.4669 213.143C96.7122 213.143 96.9939 213.172 97.3121 213.232C97.6336 213.288 97.9434 213.406 98.2417 213.585C98.5434 213.764 98.7936 214.034 98.9925 214.395C99.1913 214.757 99.2907 215.241 99.2907 215.847V220.878H98.1175V219.844H98.0578C97.9782 220.01 97.8457 220.187 97.6601 220.376C97.4745 220.565 97.2275 220.726 96.9193 220.859C96.6111 220.991 96.2349 221.057 95.7907 221.057ZM95.9697 220.003C96.4337 220.003 96.8248 219.912 97.143 219.73C97.4645 219.548 97.7065 219.312 97.8689 219.024C98.0346 218.736 98.1175 218.432 98.1175 218.114V217.04C98.0677 217.1 97.9584 217.155 97.7893 217.204C97.6236 217.251 97.4314 217.292 97.2126 217.329C96.9972 217.362 96.7867 217.392 96.5812 217.418C96.3791 217.441 96.215 217.461 96.089 217.478C95.7841 217.518 95.4991 217.582 95.2339 217.672C94.9721 217.758 94.76 217.889 94.5976 218.064C94.4385 218.237 94.3589 218.472 94.3589 218.77C94.3589 219.178 94.5097 219.486 94.8113 219.695C95.1163 219.901 95.5024 220.003 95.9697 220.003ZM107.403 213.242L104.579 220.878H103.386L100.562 213.242H101.835L103.943 219.327H104.022L106.13 213.242H107.403ZM111.88 221.038C111.144 221.038 110.51 220.875 109.976 220.55C109.446 220.222 109.036 219.765 108.748 219.178C108.463 218.588 108.32 217.902 108.32 217.12C108.32 216.338 108.463 215.648 108.748 215.052C109.036 214.452 109.437 213.984 109.951 213.65C110.468 213.312 111.071 213.143 111.761 213.143C112.158 213.143 112.551 213.209 112.939 213.341C113.327 213.474 113.68 213.689 113.998 213.988C114.316 214.283 114.57 214.674 114.759 215.161C114.948 215.648 115.042 216.248 115.042 216.961V217.458H109.156V216.444H113.849C113.849 216.013 113.763 215.628 113.59 215.29C113.421 214.952 113.179 214.685 112.864 214.49C112.553 214.294 112.185 214.197 111.761 214.197C111.293 214.197 110.889 214.313 110.548 214.545C110.21 214.773 109.949 215.072 109.767 215.439C109.585 215.807 109.494 216.202 109.494 216.623V217.299C109.494 217.876 109.593 218.364 109.792 218.765C109.994 219.163 110.274 219.466 110.632 219.675C110.99 219.881 111.406 219.984 111.88 219.984C112.188 219.984 112.467 219.94 112.715 219.854C112.967 219.765 113.184 219.632 113.367 219.457C113.549 219.278 113.69 219.056 113.789 218.79L114.923 219.109C114.803 219.493 114.603 219.831 114.321 220.123C114.039 220.411 113.691 220.636 113.277 220.799C112.863 220.958 112.397 221.038 111.88 221.038ZM124.165 213.242V214.236H120.048V213.242H124.165ZM121.281 220.878V212.188C121.281 211.751 121.384 211.386 121.59 211.094C121.795 210.803 122.062 210.584 122.39 210.438C122.718 210.292 123.064 210.219 123.429 210.219C123.717 210.219 123.953 210.243 124.135 210.289C124.317 210.335 124.453 210.378 124.543 210.418L124.205 211.432C124.145 211.413 124.062 211.388 123.956 211.358C123.853 211.328 123.717 211.313 123.548 211.313C123.161 211.313 122.881 211.411 122.708 211.606C122.539 211.802 122.455 212.089 122.455 212.466V220.878H121.281ZM125.809 220.878V213.242H126.983V220.878H125.809ZM126.406 211.969C126.177 211.969 125.98 211.891 125.814 211.736C125.652 211.58 125.571 211.393 125.571 211.174C125.571 210.955 125.652 210.768 125.814 210.612C125.98 210.456 126.177 210.378 126.406 210.378C126.634 210.378 126.83 210.456 126.992 210.612C127.158 210.768 127.241 210.955 127.241 211.174C127.241 211.393 127.158 211.58 126.992 211.736C126.83 211.891 126.634 211.969 126.406 211.969ZM130.305 216.285V220.878H129.131V213.242H130.265V214.435H130.364C130.543 214.047 130.815 213.736 131.18 213.501C131.544 213.262 132.015 213.143 132.592 213.143C133.109 213.143 133.561 213.249 133.949 213.461C134.337 213.67 134.638 213.988 134.854 214.415C135.069 214.84 135.177 215.377 135.177 216.026V220.878H134.004V216.106C134.004 215.506 133.848 215.038 133.536 214.704C133.225 214.366 132.797 214.197 132.254 214.197C131.879 214.197 131.544 214.278 131.249 214.44C130.958 214.603 130.727 214.84 130.558 215.151C130.389 215.463 130.305 215.841 130.305 216.285ZM137.321 220.878V213.242H138.494V220.878H137.321ZM137.918 211.969C137.689 211.969 137.492 211.891 137.326 211.736C137.164 211.58 137.082 211.393 137.082 211.174C137.082 210.955 137.164 210.768 137.326 210.612C137.492 210.456 137.689 210.378 137.918 210.378C138.146 210.378 138.342 210.456 138.504 210.612C138.67 210.768 138.753 210.955 138.753 211.174C138.753 211.393 138.67 211.58 138.504 211.736C138.342 211.891 138.146 211.969 137.918 211.969ZM146.052 214.952L144.998 215.251C144.932 215.075 144.834 214.904 144.705 214.739C144.579 214.569 144.407 214.43 144.188 214.321C143.969 214.212 143.689 214.157 143.348 214.157C142.88 214.157 142.491 214.265 142.179 214.48C141.871 214.692 141.717 214.962 141.717 215.29C141.717 215.582 141.823 215.812 142.035 215.981C142.247 216.15 142.579 216.291 143.03 216.404L144.163 216.682C144.846 216.848 145.355 217.102 145.689 217.443C146.024 217.781 146.191 218.217 146.191 218.751C146.191 219.188 146.066 219.579 145.814 219.924C145.565 220.269 145.217 220.54 144.77 220.739C144.322 220.938 143.802 221.038 143.209 221.038C142.43 221.038 141.785 220.868 141.275 220.53C140.764 220.192 140.441 219.698 140.305 219.049L141.419 218.77C141.525 219.181 141.725 219.49 142.02 219.695C142.319 219.901 142.708 220.003 143.189 220.003C143.736 220.003 144.17 219.887 144.491 219.655C144.816 219.42 144.978 219.138 144.978 218.81C144.978 218.545 144.886 218.323 144.7 218.144C144.514 217.962 144.229 217.826 143.845 217.736L142.572 217.438C141.873 217.272 141.359 217.015 141.031 216.667C140.706 216.316 140.544 215.877 140.544 215.35C140.544 214.919 140.665 214.538 140.907 214.207C141.152 213.875 141.485 213.615 141.906 213.426C142.33 213.237 142.811 213.143 143.348 213.143C144.103 213.143 144.697 213.308 145.128 213.64C145.562 213.971 145.87 214.409 146.052 214.952ZM149.131 216.285V220.878H147.958V210.697H149.131V214.435H149.23C149.409 214.041 149.678 213.728 150.036 213.496C150.397 213.26 150.878 213.143 151.478 213.143C151.998 213.143 152.454 213.247 152.845 213.456C153.236 213.661 153.539 213.978 153.755 214.405C153.973 214.83 154.083 215.37 154.083 216.026V220.878H152.909V216.106C152.909 215.499 152.752 215.03 152.437 214.699C152.126 214.364 151.693 214.197 151.139 214.197C150.755 214.197 150.41 214.278 150.105 214.44C149.804 214.603 149.565 214.84 149.389 215.151C149.217 215.463 149.131 215.841 149.131 216.285ZM159.431 221.038C158.695 221.038 158.06 220.875 157.527 220.55C156.996 220.222 156.587 219.765 156.299 219.178C156.014 218.588 155.871 217.902 155.871 217.12C155.871 216.338 156.014 215.648 156.299 215.052C156.587 214.452 156.988 213.984 157.502 213.65C158.019 213.312 158.622 213.143 159.312 213.143C159.709 213.143 160.102 213.209 160.49 213.341C160.878 213.474 161.231 213.689 161.549 213.988C161.867 214.283 162.12 214.674 162.309 215.161C162.498 215.648 162.593 216.248 162.593 216.961V217.458H156.706V216.444H161.4C161.4 216.013 161.313 215.628 161.141 215.29C160.972 214.952 160.73 214.685 160.415 214.49C160.104 214.294 159.736 214.197 159.312 214.197C158.844 214.197 158.44 214.313 158.098 214.545C157.76 214.773 157.5 215.072 157.318 215.439C157.136 215.807 157.044 216.202 157.044 216.623V217.299C157.044 217.876 157.144 218.364 157.343 218.765C157.545 219.163 157.825 219.466 158.183 219.675C158.541 219.881 158.957 219.984 159.431 219.984C159.739 219.984 160.017 219.94 160.266 219.854C160.518 219.765 160.735 219.632 160.917 219.457C161.1 219.278 161.241 219.056 161.34 218.79L162.473 219.109C162.354 219.493 162.154 219.831 161.872 220.123C161.59 220.411 161.242 220.636 160.828 220.799C160.414 220.958 159.948 221.038 159.431 221.038ZM167.261 221.038C166.625 221.038 166.063 220.877 165.576 220.555C165.089 220.23 164.707 219.773 164.432 219.183C164.157 218.59 164.02 217.889 164.02 217.08C164.02 216.278 164.157 215.582 164.432 214.992C164.707 214.402 165.09 213.946 165.581 213.625C166.071 213.303 166.638 213.143 167.281 213.143C167.778 213.143 168.171 213.225 168.459 213.391C168.751 213.554 168.973 213.739 169.125 213.948C169.281 214.154 169.402 214.323 169.488 214.455H169.588V210.697H170.761V220.878H169.628V219.705H169.488C169.402 219.844 169.28 220.02 169.12 220.232C168.961 220.441 168.734 220.628 168.439 220.794C168.144 220.956 167.752 221.038 167.261 221.038ZM167.42 219.984C167.891 219.984 168.289 219.861 168.613 219.616C168.938 219.367 169.185 219.024 169.354 218.587C169.523 218.146 169.608 217.637 169.608 217.06C169.608 216.49 169.525 215.991 169.359 215.564C169.193 215.133 168.948 214.798 168.623 214.56C168.299 214.318 167.897 214.197 167.42 214.197C166.923 214.197 166.509 214.324 166.177 214.579C165.849 214.831 165.602 215.174 165.437 215.609C165.274 216.039 165.193 216.523 165.193 217.06C165.193 217.604 165.276 218.098 165.441 218.542C165.611 218.983 165.859 219.334 166.187 219.596C166.519 219.854 166.93 219.984 167.42 219.984ZM182.419 214.952L181.366 215.251C181.299 215.075 181.201 214.904 181.072 214.739C180.946 214.569 180.774 214.43 180.555 214.321C180.336 214.212 180.056 214.157 179.715 214.157C179.248 214.157 178.858 214.265 178.547 214.48C178.238 214.692 178.084 214.962 178.084 215.29C178.084 215.582 178.19 215.812 178.402 215.981C178.615 216.15 178.946 216.291 179.397 216.404L180.53 216.682C181.213 216.848 181.722 217.102 182.057 217.443C182.391 217.781 182.559 218.217 182.559 218.751C182.559 219.188 182.433 219.579 182.181 219.924C181.932 220.269 181.584 220.54 181.137 220.739C180.689 220.938 180.169 221.038 179.576 221.038C178.797 221.038 178.152 220.868 177.642 220.53C177.131 220.192 176.808 219.698 176.672 219.049L177.786 218.77C177.892 219.181 178.093 219.49 178.388 219.695C178.686 219.901 179.075 220.003 179.556 220.003C180.103 220.003 180.537 219.887 180.858 219.655C181.183 219.42 181.346 219.138 181.346 218.81C181.346 218.545 181.253 218.323 181.067 218.144C180.882 217.962 180.597 217.826 180.212 217.736L178.939 217.438C178.24 217.272 177.726 217.015 177.398 216.667C177.073 216.316 176.911 215.877 176.911 215.35C176.911 214.919 177.032 214.538 177.274 214.207C177.519 213.875 177.852 213.615 178.273 213.426C178.697 213.237 179.178 213.143 179.715 213.143C180.471 213.143 181.064 213.308 181.495 213.64C181.929 213.971 182.237 214.409 182.419 214.952ZM187.527 221.038C186.791 221.038 186.156 220.875 185.622 220.55C185.092 220.222 184.683 219.765 184.394 219.178C184.109 218.588 183.967 217.902 183.967 217.12C183.967 216.338 184.109 215.648 184.394 215.052C184.683 214.452 185.084 213.984 185.598 213.65C186.115 213.312 186.718 213.143 187.407 213.143C187.805 213.143 188.198 213.209 188.585 213.341C188.973 213.474 189.326 213.689 189.644 213.988C189.963 214.283 190.216 214.674 190.405 215.161C190.594 215.648 190.688 216.248 190.688 216.961V217.458H184.802V216.444H189.495C189.495 216.013 189.409 215.628 189.237 215.29C189.068 214.952 188.826 214.685 188.511 214.49C188.199 214.294 187.831 214.197 187.407 214.197C186.94 214.197 186.536 214.313 186.194 214.545C185.856 214.773 185.596 215.072 185.414 215.439C185.231 215.807 185.14 216.202 185.14 216.623V217.299C185.14 217.876 185.24 218.364 185.438 218.765C185.641 219.163 185.921 219.466 186.279 219.675C186.637 219.881 187.053 219.984 187.527 219.984C187.835 219.984 188.113 219.94 188.362 219.854C188.614 219.765 188.831 219.632 189.013 219.457C189.195 219.278 189.336 219.056 189.436 218.79L190.569 219.109C190.45 219.493 190.249 219.831 189.968 220.123C189.686 220.411 189.338 220.636 188.924 220.799C188.509 220.958 188.044 221.038 187.527 221.038ZM195.794 213.242V214.236H191.837V213.242H195.794ZM192.99 211.413H194.164V218.691C194.164 219.022 194.212 219.271 194.308 219.437C194.407 219.599 194.533 219.708 194.686 219.765C194.841 219.818 195.005 219.844 195.178 219.844C195.307 219.844 195.413 219.838 195.496 219.824C195.579 219.808 195.645 219.795 195.695 219.785L195.934 220.839C195.854 220.868 195.743 220.898 195.6 220.928C195.458 220.961 195.277 220.978 195.059 220.978C194.727 220.978 194.402 220.907 194.084 220.764C193.769 220.622 193.507 220.404 193.299 220.113C193.093 219.821 192.99 219.453 192.99 219.009V211.413ZM200.88 213.242V214.236H196.923V213.242H200.88ZM198.076 211.413H199.25V218.691C199.25 219.022 199.298 219.271 199.394 219.437C199.493 219.599 199.619 219.708 199.772 219.765C199.927 219.818 200.091 219.844 200.264 219.844C200.393 219.844 200.499 219.838 200.582 219.824C200.665 219.808 200.731 219.795 200.781 219.785L201.019 220.839C200.94 220.868 200.829 220.898 200.686 220.928C200.544 220.961 200.363 220.978 200.144 220.978C199.813 220.978 199.488 220.907 199.17 220.764C198.855 220.622 198.593 220.404 198.384 220.113C198.179 219.821 198.076 219.453 198.076 219.009V211.413ZM202.645 220.878V213.242H203.818V220.878H202.645ZM203.242 211.969C203.013 211.969 202.816 211.891 202.65 211.736C202.488 211.58 202.407 211.393 202.407 211.174C202.407 210.955 202.488 210.768 202.65 210.612C202.816 210.456 203.013 210.378 203.242 210.378C203.47 210.378 203.666 210.456 203.828 210.612C203.994 210.768 204.077 210.955 204.077 211.174C204.077 211.393 203.994 211.58 203.828 211.736C203.666 211.891 203.47 211.969 203.242 211.969ZM207.141 216.285V220.878H205.967V213.242H207.101V214.435H207.2C207.379 214.047 207.651 213.736 208.016 213.501C208.38 213.262 208.851 213.143 209.428 213.143C209.945 213.143 210.397 213.249 210.785 213.461C211.173 213.67 211.474 213.988 211.69 214.415C211.905 214.84 212.013 215.377 212.013 216.026V220.878H210.84V216.106C210.84 215.506 210.684 215.038 210.372 214.704C210.061 214.366 209.633 214.197 209.09 214.197C208.715 214.197 208.38 214.278 208.085 214.44C207.794 214.603 207.563 214.84 207.394 215.151C207.225 215.463 207.141 215.841 207.141 216.285ZM217.239 223.901C216.672 223.901 216.185 223.828 215.778 223.682C215.37 223.54 215.03 223.351 214.758 223.116C214.49 222.884 214.276 222.635 214.117 222.37L215.052 221.714C215.158 221.853 215.292 222.012 215.454 222.191C215.617 222.373 215.839 222.531 216.121 222.663C216.406 222.799 216.779 222.867 217.239 222.867C217.856 222.867 218.364 222.718 218.766 222.42C219.167 222.121 219.367 221.654 219.367 221.018V219.466H219.268C219.181 219.606 219.059 219.778 218.9 219.984C218.744 220.186 218.519 220.366 218.224 220.525C217.932 220.681 217.538 220.759 217.04 220.759C216.424 220.759 215.87 220.613 215.38 220.322C214.893 220.03 214.507 219.606 214.222 219.049C213.94 218.492 213.799 217.816 213.799 217.02C213.799 216.238 213.936 215.557 214.212 214.977C214.487 214.394 214.869 213.943 215.36 213.625C215.851 213.303 216.417 213.143 217.06 213.143C217.557 213.143 217.952 213.225 218.244 213.391C218.539 213.554 218.764 213.739 218.92 213.948C219.079 214.154 219.201 214.323 219.288 214.455H219.407V213.242H220.54V221.097C220.54 221.753 220.391 222.287 220.093 222.698C219.798 223.112 219.4 223.416 218.9 223.608C218.403 223.803 217.849 223.901 217.239 223.901ZM217.199 219.705C217.67 219.705 218.068 219.597 218.393 219.382C218.717 219.167 218.964 218.857 219.133 218.452C219.302 218.048 219.387 217.564 219.387 217.001C219.387 216.45 219.304 215.965 219.138 215.544C218.973 215.123 218.727 214.793 218.403 214.555C218.078 214.316 217.677 214.197 217.199 214.197C216.702 214.197 216.288 214.323 215.957 214.574C215.628 214.826 215.382 215.164 215.216 215.589C215.053 216.013 214.972 216.484 214.972 217.001C214.972 217.531 215.055 218 215.221 218.408C215.39 218.812 215.638 219.13 215.967 219.362C216.298 219.591 216.709 219.705 217.199 219.705ZM231.438 217.756V213.242H232.611V220.878H231.438V219.586H231.359C231.18 219.974 230.901 220.303 230.523 220.575C230.146 220.844 229.668 220.978 229.092 220.978C228.614 220.978 228.19 220.873 227.819 220.665C227.448 220.453 227.156 220.134 226.944 219.71C226.732 219.283 226.626 218.744 226.626 218.094V213.242H227.799V218.015C227.799 218.572 227.955 219.016 228.266 219.347C228.581 219.679 228.982 219.844 229.469 219.844C229.761 219.844 230.058 219.77 230.359 219.621C230.664 219.471 230.919 219.243 231.125 218.935C231.334 218.626 231.438 218.234 231.438 217.756ZM234.76 223.742V213.242H235.894V214.455H236.033C236.119 214.323 236.239 214.154 236.391 213.948C236.547 213.739 236.769 213.554 237.057 213.391C237.349 213.225 237.743 213.143 238.241 213.143C238.883 213.143 239.45 213.303 239.941 213.625C240.431 213.946 240.814 214.402 241.089 214.992C241.364 215.582 241.502 216.278 241.502 217.08C241.502 217.889 241.364 218.59 241.089 219.183C240.814 219.773 240.433 220.23 239.946 220.555C239.459 220.877 238.897 221.038 238.26 221.038C237.77 221.038 237.377 220.956 237.082 220.794C236.787 220.628 236.56 220.441 236.401 220.232C236.242 220.02 236.119 219.844 236.033 219.705H235.934V223.742H234.76ZM235.914 217.06C235.914 217.637 235.998 218.146 236.167 218.587C236.336 219.024 236.583 219.367 236.908 219.616C237.233 219.861 237.631 219.984 238.101 219.984C238.592 219.984 239.001 219.854 239.329 219.596C239.661 219.334 239.909 218.983 240.075 218.542C240.244 218.098 240.329 217.604 240.329 217.06C240.329 216.523 240.246 216.039 240.08 215.609C239.918 215.174 239.671 214.831 239.339 214.579C239.011 214.324 238.598 214.197 238.101 214.197C237.624 214.197 237.223 214.318 236.898 214.56C236.573 214.798 236.328 215.133 236.162 215.564C235.997 215.991 235.914 216.49 235.914 217.06ZM247.985 223.742C247.786 223.742 247.609 223.725 247.453 223.692C247.297 223.663 247.189 223.633 247.13 223.603L247.428 222.569C247.713 222.642 247.965 222.668 248.184 222.648C248.402 222.628 248.596 222.531 248.765 222.355C248.938 222.183 249.095 221.903 249.238 221.515L249.456 220.918L246.633 213.242H247.905L250.013 219.327H250.093L252.201 213.242H253.473L250.232 221.992C250.086 222.386 249.906 222.713 249.69 222.971C249.475 223.233 249.224 223.427 248.939 223.553C248.658 223.679 248.339 223.742 247.985 223.742ZM257.851 221.038C257.162 221.038 256.557 220.873 256.036 220.545C255.519 220.217 255.115 219.758 254.823 219.168C254.535 218.578 254.391 217.889 254.391 217.1C254.391 216.305 254.535 215.61 254.823 215.017C255.115 214.424 255.519 213.963 256.036 213.635C256.557 213.307 257.162 213.143 257.851 213.143C258.54 213.143 259.144 213.307 259.661 213.635C260.181 213.963 260.585 214.424 260.874 215.017C261.165 215.61 261.311 216.305 261.311 217.1C261.311 217.889 261.165 218.578 260.874 219.168C260.585 219.758 260.181 220.217 259.661 220.545C259.144 220.873 258.54 221.038 257.851 221.038ZM257.851 219.984C258.375 219.984 258.805 219.849 259.144 219.581C259.482 219.312 259.732 218.959 259.894 218.522C260.057 218.084 260.138 217.61 260.138 217.1C260.138 216.59 260.057 216.114 259.894 215.673C259.732 215.232 259.482 214.876 259.144 214.604C258.805 214.332 258.375 214.197 257.851 214.197C257.327 214.197 256.896 214.332 256.558 214.604C256.22 214.876 255.97 215.232 255.808 215.673C255.645 216.114 255.564 216.59 255.564 217.1C255.564 217.61 255.645 218.084 255.808 218.522C255.97 218.959 256.22 219.312 256.558 219.581C256.896 219.849 257.327 219.984 257.851 219.984ZM267.915 217.756V213.242H269.088V220.878H267.915V219.586H267.835C267.656 219.974 267.378 220.303 267 220.575C266.622 220.844 266.145 220.978 265.568 220.978C265.091 220.978 264.667 220.873 264.295 220.665C263.924 220.453 263.632 220.134 263.42 219.71C263.208 219.283 263.102 218.744 263.102 218.094V213.242H264.275V218.015C264.275 218.572 264.431 219.016 264.743 219.347C265.058 219.679 265.459 219.844 265.946 219.844C266.238 219.844 266.534 219.77 266.836 219.621C267.141 219.471 267.396 219.243 267.601 218.935C267.81 218.626 267.915 218.234 267.915 217.756ZM271.237 220.878V213.242H272.37V214.395H272.45C272.589 214.018 272.841 213.711 273.206 213.476C273.57 213.24 273.981 213.123 274.439 213.123C274.525 213.123 274.633 213.124 274.762 213.128C274.891 213.131 274.989 213.136 275.055 213.143V214.336C275.015 214.326 274.924 214.311 274.782 214.291C274.642 214.268 274.495 214.256 274.339 214.256C273.968 214.256 273.637 214.334 273.345 214.49C273.057 214.642 272.828 214.855 272.659 215.126C272.493 215.395 272.41 215.701 272.41 216.046V220.878H271.237ZM282.631 221.057C282.147 221.057 281.708 220.966 281.313 220.784C280.919 220.598 280.605 220.332 280.373 219.984C280.141 219.632 280.025 219.208 280.025 218.711C280.025 218.273 280.112 217.919 280.284 217.647C280.456 217.372 280.687 217.156 280.975 217.001C281.263 216.845 281.582 216.729 281.93 216.653C282.281 216.573 282.634 216.51 282.989 216.464C283.453 216.404 283.829 216.359 284.117 216.329C284.409 216.296 284.621 216.242 284.753 216.165C284.889 216.089 284.957 215.957 284.957 215.768V215.728C284.957 215.237 284.823 214.856 284.555 214.584C284.289 214.313 283.887 214.177 283.347 214.177C282.786 214.177 282.347 214.299 282.029 214.545C281.711 214.79 281.487 215.052 281.358 215.33L280.244 214.932C280.443 214.468 280.708 214.107 281.04 213.849C281.374 213.587 281.739 213.404 282.133 213.302C282.531 213.196 282.922 213.143 283.307 213.143C283.552 213.143 283.834 213.172 284.152 213.232C284.473 213.288 284.783 213.406 285.082 213.585C285.383 213.764 285.633 214.034 285.832 214.395C286.031 214.757 286.131 215.241 286.131 215.847V220.878H284.957V219.844H284.898C284.818 220.01 284.686 220.187 284.5 220.376C284.314 220.565 284.067 220.726 283.759 220.859C283.451 220.991 283.075 221.057 282.631 221.057ZM282.81 220.003C283.274 220.003 283.665 219.912 283.983 219.73C284.304 219.548 284.546 219.312 284.709 219.024C284.874 218.736 284.957 218.432 284.957 218.114V217.04C284.908 217.1 284.798 217.155 284.629 217.204C284.463 217.251 284.271 217.292 284.052 217.329C283.837 217.362 283.627 217.392 283.421 217.418C283.219 217.441 283.055 217.461 282.929 217.478C282.624 217.518 282.339 217.582 282.074 217.672C281.812 217.758 281.6 217.889 281.437 218.064C281.278 218.237 281.199 218.472 281.199 218.77C281.199 219.178 281.35 219.486 281.651 219.695C281.956 219.901 282.342 220.003 282.81 220.003ZM291.374 221.038C290.658 221.038 290.042 220.868 289.525 220.53C289.008 220.192 288.61 219.727 288.332 219.133C288.053 218.54 287.914 217.862 287.914 217.1C287.914 216.324 288.057 215.64 288.342 215.047C288.63 214.45 289.031 213.984 289.545 213.65C290.062 213.312 290.665 213.143 291.354 213.143C291.891 213.143 292.375 213.242 292.806 213.441C293.237 213.64 293.59 213.918 293.865 214.276C294.14 214.634 294.311 215.052 294.377 215.529H293.204C293.114 215.181 292.916 214.873 292.607 214.604C292.302 214.332 291.891 214.197 291.374 214.197C290.917 214.197 290.516 214.316 290.171 214.555C289.83 214.79 289.563 215.123 289.371 215.554C289.182 215.981 289.087 216.484 289.087 217.06C289.087 217.65 289.18 218.164 289.366 218.601C289.555 219.039 289.82 219.379 290.161 219.621C290.506 219.863 290.91 219.984 291.374 219.984C291.679 219.984 291.956 219.931 292.205 219.824C292.453 219.718 292.664 219.566 292.836 219.367C293.008 219.168 293.131 218.93 293.204 218.651H294.377C294.311 219.102 294.147 219.508 293.885 219.869C293.627 220.227 293.283 220.512 292.856 220.724C292.432 220.933 291.938 221.038 291.374 221.038ZM299.195 221.038C298.479 221.038 297.862 220.868 297.345 220.53C296.828 220.192 296.43 219.727 296.152 219.133C295.874 218.54 295.734 217.862 295.734 217.1C295.734 216.324 295.877 215.64 296.162 215.047C296.45 214.45 296.851 213.984 297.365 213.65C297.882 213.312 298.485 213.143 299.175 213.143C299.712 213.143 300.196 213.242 300.627 213.441C301.057 213.64 301.41 213.918 301.685 214.276C301.961 214.634 302.131 215.052 302.198 215.529H301.024C300.935 215.181 300.736 214.873 300.428 214.604C300.123 214.332 299.712 214.197 299.195 214.197C298.737 214.197 298.336 214.316 297.992 214.555C297.65 214.79 297.383 215.123 297.191 215.554C297.002 215.981 296.908 216.484 296.908 217.06C296.908 217.65 297.001 218.164 297.186 218.601C297.375 219.039 297.64 219.379 297.982 219.621C298.326 219.863 298.731 219.984 299.195 219.984C299.5 219.984 299.776 219.931 300.025 219.824C300.274 219.718 300.484 219.566 300.656 219.367C300.829 219.168 300.951 218.93 301.024 218.651H302.198C302.131 219.102 301.967 219.508 301.705 219.869C301.447 220.227 301.104 220.512 300.676 220.724C300.252 220.933 299.758 221.038 299.195 221.038ZM307.015 221.038C306.326 221.038 305.721 220.873 305.2 220.545C304.683 220.217 304.279 219.758 303.987 219.168C303.699 218.578 303.555 217.889 303.555 217.1C303.555 216.305 303.699 215.61 303.987 215.017C304.279 214.424 304.683 213.963 305.2 213.635C305.721 213.307 306.326 213.143 307.015 213.143C307.704 213.143 308.308 213.307 308.825 213.635C309.345 213.963 309.749 214.424 310.038 215.017C310.329 215.61 310.475 216.305 310.475 217.1C310.475 217.889 310.329 218.578 310.038 219.168C309.749 219.758 309.345 220.217 308.825 220.545C308.308 220.873 307.704 221.038 307.015 221.038ZM307.015 219.984C307.539 219.984 307.97 219.849 308.308 219.581C308.646 219.312 308.896 218.959 309.058 218.522C309.221 218.084 309.302 217.61 309.302 217.1C309.302 216.59 309.221 216.114 309.058 215.673C308.896 215.232 308.646 214.876 308.308 214.604C307.97 214.332 307.539 214.197 307.015 214.197C306.491 214.197 306.06 214.332 305.722 214.604C305.384 214.876 305.134 215.232 304.972 215.673C304.809 216.114 304.728 216.59 304.728 217.1C304.728 217.61 304.809 218.084 304.972 218.522C305.134 218.959 305.384 219.312 305.722 219.581C306.06 219.849 306.491 219.984 307.015 219.984ZM317.079 217.756V213.242H318.252V220.878H317.079V219.586H316.999C316.82 219.974 316.542 220.303 316.164 220.575C315.786 220.844 315.309 220.978 314.732 220.978C314.255 220.978 313.831 220.873 313.459 220.665C313.088 220.453 312.797 220.134 312.584 219.71C312.372 219.283 312.266 218.744 312.266 218.094V213.242H313.44V218.015C313.44 218.572 313.595 219.016 313.907 219.347C314.222 219.679 314.623 219.844 315.11 219.844C315.402 219.844 315.698 219.77 316 219.621C316.305 219.471 316.56 219.243 316.766 218.935C316.974 218.626 317.079 218.234 317.079 217.756ZM321.574 216.285V220.878H320.401V213.242H321.535V214.435H321.634C321.813 214.047 322.085 213.736 322.449 213.501C322.814 213.262 323.285 213.143 323.861 213.143C324.378 213.143 324.831 213.249 325.218 213.461C325.606 213.67 325.908 213.988 326.123 214.415C326.339 214.84 326.446 215.377 326.446 216.026V220.878H325.273V216.106C325.273 215.506 325.117 215.038 324.806 214.704C324.494 214.366 324.067 214.197 323.523 214.197C323.149 214.197 322.814 214.278 322.519 214.44C322.227 214.603 321.997 214.84 321.828 215.151C321.659 215.463 321.574 215.841 321.574 216.285ZM331.911 213.242V214.236H327.954V213.242H331.911ZM329.108 211.413H330.281V218.691C330.281 219.022 330.329 219.271 330.425 219.437C330.524 219.599 330.65 219.708 330.803 219.765C330.959 219.818 331.123 219.844 331.295 219.844C331.424 219.844 331.53 219.838 331.613 219.824C331.696 219.808 331.762 219.795 331.812 219.785L332.051 220.839C331.971 220.868 331.86 220.898 331.718 220.928C331.575 220.961 331.394 220.978 331.176 220.978C330.844 220.978 330.519 220.907 330.201 220.764C329.886 220.622 329.625 220.404 329.416 220.113C329.21 219.821 329.108 219.453 329.108 219.009V211.413ZM334.532 220.958C334.286 220.958 334.076 220.87 333.9 220.694C333.724 220.519 333.637 220.308 333.637 220.063C333.637 219.818 333.724 219.607 333.9 219.432C334.076 219.256 334.286 219.168 334.532 219.168C334.777 219.168 334.987 219.256 335.163 219.432C335.339 219.607 335.426 219.818 335.426 220.063C335.426 220.225 335.385 220.375 335.302 220.511C335.223 220.646 335.115 220.756 334.979 220.839C334.846 220.918 334.697 220.958 334.532 220.958Z" fill="#4B5563"/>
<defs>
<filter id="filter0_d_4306_82859" x="291.256" y="77.9395" width="19.7676" height="11" filterUnits="userSpaceOnUse" color-interpolation-filters="sRGB">
<feFlood flood-opacity="0" result="BackgroundImageFix"/>
<feColorMatrix in="SourceAlpha" type="matrix" values="0 0 0 0 0 0 0 0 0 0 0 0 0 0 0 0 0 0 127 0" result="hardAlpha"/>
<feOffset dy="4"/>
<feGaussianBlur stdDeviation="2"/>
<feComposite in2="hardAlpha" operator="out"/>
<feColorMatrix type="matrix" values="0 0 0 0 0 0 0 0 0 0 0 0 0 0 0 0 0 0 0.25 0"/>
<feBlend mode="normal" in2="BackgroundImageFix" result="effect1_dropShadow_4306_82859"/>
<feBlend mode="normal" in="SourceGraphic" in2="effect1_dropShadow_4306_82859" result="shape"/>
</filter>
</defs>
</svg>
